<?xml version="1.0" encoding="utf-8"?>
<!-- Generator: Adobe Illustrator 25.4.0, SVG Export Plug-In . SVG Version: 6.00 Build 0)  -->
<!DOCTYPE svg PUBLIC "-//W3C//DTD SVG 1.1//EN" "http://www.w3.org/Graphics/SVG/1.1/DTD/svg11.dtd" [
	<!ENTITY st0 "fill:#B3B3B3;">
	<!ENTITY st1 "font-family:'Roboto-Regular';">
	<!ENTITY st2 "font-size:41.4443px;">
]>
<svg version="1.1" id="Capa_1" xmlns="http://www.w3.org/2000/svg" xmlns:xlink="http://www.w3.org/1999/xlink" x="0px" y="0px"
	 viewBox="0 0 519.3 1080" style="enable-background:new 0 0 519.3 1080;" xml:space="preserve">
<g>
	<g>
		<path style="&st0;" d="M175.9,757.5c0,0-3.2-7.1-3.4-13.1c-0.2-6,1.5-22.5,2.2-27.5c0.7-5,2-17.5,1.5-20.9
			c-0.5-3.4-6.4-23.2-8-26.7c-1.5-3.5-9.1-20.4-9.8-26.5c-0.7-6.1,2.4-23.4,4.4-28.3c2-4.9,5.7-15.9,5.7-20.7s-6.9-35.6-6.9-35.6
			s-6.9-31.5-8.5-48.9c-1.6-17.4-5.1-47-3.5-56.9c1.6-9.8,7.9-19.3,7.9-19.3s-3.1-4.2-3.2-6.1c-0.1-1.9-0.8-38.2-0.8-50.9
			c0-12.7-1-39.6,0-49.4c1-9.8,3.7-64.4,4.3-72.5c0.6-8.1,5-56.8,5-56.8s9.1-4.1,15.5,2.7c6.4,6.8,9.8,6.8,11.1,17.8
			c1.3,11.1,5.8,73.4,5.8,73.4s1.2-48.8,1.3-57.8c0.1-9,1.4-48.5,6.9-67.6s11.1-30,15.3-29.1c4.2,0.9,9,2.3,11.3,9.7
			c2.3,7.5,10.8,82.5,11.6,92.8c0.8,10.3,2.3,18.4,2.3,18.4s5.7-34.9,5.3-41.7c-0.4-6.8,3.8-43.2,4.6-52.8
			c0.8-9.6,6.5-26.8,9.3-28.2s11.5-3.9,14,0.7s11.1,82.2,11.4,87.5c0.4,5.3,3.4,33.6,3.4,33.6s2.8-35.3,2.9-38.9
			c0.1-3.6-1.2-29.3,6.4-36.1c7.6-6.8,15.2-10.7,19.6-8.2c4.5,2.4,11.1,6.2,11.9,17.8S332,407.1,332,407.1l-0.8,105.2
			c0,0,24.3-23.6,29-25.6c4.8-2,10.5-3,13-1.4c2.5,1.5,7.9,8.1,8,13.6s-2.3,20.6-5.2,27.8c-2.9,7.1-18.3,40.6-19.6,43.4
			c-1.3,2.8-12.7,27.5-15.3,33.1c-2.6,5.6-9.8,24.6-9.8,24.6s-0.9,26.4-1.2,33.1c-0.2,6.7-1.5,42.6-0.3,52.5c1.2,9.9,6.7,31,6.7,31
			v3.6c0,0-16.3,5.1-19.6,4.4s-56,1.7-73,2.6C227,755.8,175.9,757.5,175.9,757.5z"/>
		<g>
			<g>
				<path d="M155.5,428.2c-6.4,8.2-8.4,18.3-8.6,28.5c-0.2,11.3,1.1,22.8,2,34.1c2,24.7,5,49.3,11.7,73.2
					c3.2,11.4,7.1,23.5,4.7,35.4c-2.2,10.8-8.7,20.2-10,31.3c-2.3,20.5,12.3,37.9,16.9,57c5.1,21.2-6.2,42.5-1.1,63.7
					c0.6,2.5,1.5,5,2.6,7.4c0.6,1.2,2.3,1.5,3.4,0.9c1.3-0.7,1.4-2.2,0.9-3.4c-4.3-9.5-3.5-20.2-2.2-30.3
					c1.4-10.5,3.6-21.2,2.5-31.8c-1-10.1-5.1-19.4-9.1-28.6c-3.9-8.7-8.2-17.8-9-27.4c-0.4-5.1,0.2-10.1,1.9-15
					c1.7-5.2,4.1-10,5.9-15.1c1.9-5.4,3-10.9,3-16.6c-0.1-5.9-1.2-11.8-2.6-17.6c-1.4-5.8-3.2-11.6-4.7-17.4
					c-1.5-5.9-2.8-11.8-3.9-17.8c-2.2-12-3.7-24-4.9-36.1c-1.1-11.8-2.1-23.7-2.8-35.5c-0.6-9.7-0.8-20.1,3.2-29.1
					c1-2.2,2.2-4.3,3.6-6.2c0.8-1.1,1-2.5,0-3.5C158.2,427.4,156.3,427.2,155.5,428.2L155.5,428.2z"/>
			</g>
		</g>
		<g>
			<g>
				<path d="M156.9,430.4c-1-30.4-1.2-60.8-0.5-91.2c0.6-30.4,2.1-60.8,4.4-91.1c1.3-17,2.8-33.9,4.6-50.8c-0.6,0.8-1.2,1.6-1.8,2.4
					c4.8-1.8,9.8-0.3,13.9,2.6c4.6,3.3,7.2,8.4,8.7,13.7c1.7,6,2.1,12.1,2.6,18.3c0.6,7.3,1.2,14.5,1.7,21.8
					c2.2,28.9,3.8,57.9,5,86.8c0.7,16.2,1.2,32.5,1.6,48.7c0.1,3.2,5,3.2,4.9,0c-0.7-29.9-1.9-59.8-3.6-89.7
					c-0.9-15-1.8-29.9-2.9-44.9c-0.6-7.4-1.1-14.9-1.7-22.3c-0.5-6.6-1-13.3-2.7-19.7c-1.8-6.6-5.2-12.7-10.8-16.8
					c-5.1-3.7-11.9-5.5-18-3.3c-1.1,0.4-1.7,1.2-1.8,2.4c-3.2,30.2-5.6,60.6-7.1,90.9c-1.6,30.4-2.3,60.8-2.2,91.2
					c0,17,0.3,34,0.9,51C152.1,433.6,157,433.6,156.9,430.4L156.9,430.4z"/>
			</g>
		</g>
		<g>
			<g>
				<path d="M248.4,370c0.2-17.9,0.1-35.9-0.3-53.8c-0.4-17.9-1.2-35.9-2.3-53.8c-1.1-17.8-2.5-35.6-4.3-53.4
					c-1.8-17.9-3.9-35.8-6.4-53.6c-0.8-6-3-12.2-7-16.8c-1.7-2-4.1-3.7-6.8-4.2c-3.2-0.6-6.4,0.3-8.9,2.3c-2.6,2.1-4.2,5.2-5.4,8.2
					c-1.4,3.6-2.5,7.3-3.5,11.1c-2.3,8-4,16.1-5.4,24.2c-2.7,16.3-3.8,32.9-3.9,49.4c-0.1,16.7,0.7,33.3,1.7,49.9
					c1.1,16.8,2.3,33.7,3.1,50.5c0.8,16.8,1.1,33.6,0.3,50.3c-0.2,4.1-0.5,8.1-0.9,12.2c-0.1,1.3,1.2,2.5,2.5,2.5
					c1.4,0,2.3-1.1,2.5-2.5c1.4-16.3,1.6-32.7,1.1-49c-0.5-16.5-1.6-32.9-2.7-49.3c-1.1-16.4-2.2-32.7-2.6-49.1
					c-0.4-16.2-0.1-32.4,1.6-48.4c1.7-16,4.8-31.9,9.8-47.2c0.9-2.8,1.9-5.8,3.9-8c0.9-1,1.9-1.7,3.2-2.1c1-0.3,1.9-0.3,2.8-0.1
					c0.9,0.2,1.8,0.7,2.5,1.3c0.9,0.8,1.8,1.7,2.4,2.6c1.6,2.3,2.7,4.9,3.6,7.6c1,3.2,1.4,6.5,1.8,9.8c0.6,4.3,1.1,8.6,1.7,13
					c1.1,8.7,2.1,17.4,3,26.1c1.8,17.4,3.4,34.9,4.6,52.4c1.2,17.5,2.1,35,2.7,52.5c0.6,17.5,0.8,35,0.7,52.6
					c0,4.3-0.1,8.6-0.1,12.9C243.4,373.2,248.4,373.2,248.4,370L248.4,370z"/>
			</g>
		</g>
		<g>
			<g>
				<path d="M289.3,376.4c-0.3-0.1-0.5-0.1-0.8-0.2c-0.3-0.3-0.6-0.6-0.9-0.9c-0.3-0.4-0.1-0.8-0.1-1.2c0-0.6,0.2-0.4,0-0.2
					c0.3-0.4,0.6-0.4,1.2-0.3c0.2,0,0.4,0.1,0.6,0.1c0.2,0.2,0.3,0.4,0.5,0.5c0,0,0,0,0,0c0,0,0.3-0.7,0.3-0.7
					c0.9-1.3,2.3-2.2,3-3.6c0.9-1.9,0.7-4.4,0.7-6.5c0.1-2.1,0.1-4.3,0.2-6.4c0.2-8.6,0.4-17.3,0.5-25.9c0.2-17.2,0-34.4-0.5-51.6
					s-1.3-34.4-2.5-51.5c-1.2-17.2-2.7-34.5-4.5-51.6c-0.9-8.6-1.9-17.2-3-25.7c-0.8-6.6-1.1-15.1-7.5-18.9
					c-5.6-3.4-13.1-1-17.4,3.5c-5.2,5.4-6.2,13.3-7,20.4c-2.1,17.1-3.9,34.3-5.4,51.5c-1.5,17.3-2.8,34.6-3.7,51.9
					c-1,17.2-1.6,34.5-2,51.7c-0.4,17.3-0.5,34.7-0.3,52c0,4.2,0.1,8.4,0.2,12.6c0.1,3.2,5,3.2,4.9,0c-0.3-17.5-0.3-35-0.1-52.5
					c0.3-17.4,0.8-34.8,1.6-52.2c0.8-17.5,2-34.9,3.4-52.4c1.4-17.4,3.1-34.7,5.1-52c0.5-4.2,0.9-8.4,1.5-12.7
					c0.5-3.4,1-6.9,2.4-10.1c1.2-2.9,3.1-5.4,5.8-6.9c2.3-1.3,5.1-1.9,7.5-1c2.7,1,4,3.7,4.7,6.3c1,3.6,1.2,7.4,1.7,11
					c1.1,8.7,2.1,17.3,3,26c1.8,17.3,3.3,34.6,4.4,51.9c1.1,17.4,1.9,34.8,2.4,52.3s0.6,34.9,0.4,52.3c-0.1,8.6-0.3,17.3-0.6,25.9
					c0,1.1-0.1,2.1-0.1,3.2c0,1,0.2,2.3-0.1,3.2c-0.2,0.5-0.7,0.9-1.1,1.3c-0.6,0.6-1.2,1.2-1.7,2c-1,1.6-1.5,3.7-0.6,5.5
					c0.8,1.5,2.5,2.3,4.2,1.8c1.5-0.5,2.7-2,2.8-3.6c0.1-1.9-1.3-3-3.1-3.2c-1.3-0.2-2.5,1.3-2.5,2.5
					C286.8,375.4,287.9,376.2,289.3,376.4L289.3,376.4z"/>
			</g>
		</g>
		<g>
			<g>
				<path d="M278.4,629.3c-4.3-12.3-4.1-25.5-1-38c3.2-12.9,9.5-24.8,17.3-35.5c7.9-10.9,17.4-20.7,26.9-30.1
					c5.2-5.1,10.4-10.1,15.6-15.2c5.4-5.2,10.7-10.5,16.1-15.6c4.1-3.8,9.5-8.4,15.5-8.2c5.2,0.2,8.2,4.7,9.3,9.3
					c1.4,5.7,0.5,11.8-0.7,17.4c-1.5,6.8-4.1,13.4-6.9,19.8c-6.1,13.8-12.6,27.5-18.9,41.2c-6.5,14-12.9,28.1-19.4,42.1
					s-12.9,28.1-19.4,42.1c-5.9,12.7-12.2,26.2-12.1,40.5c0,3.5,0.5,7,1.4,10.4c0.8,3.1,5.6,1.8,4.8-1.3
					c-3.7-14.1,1.8-28.4,7.5-41.1c6.4-14.4,13.2-28.6,19.8-42.9c13.2-28.6,26.6-57,39.5-85.7c3-6.6,5.8-13.3,7.7-20.2
					c1.8-6.3,3.1-13.2,2.3-19.8c-0.7-5.5-2.7-11.1-7.5-14.4c-5.6-3.8-12.7-2.3-18.1,1c-6.1,3.7-11,9.1-16,14
					c-5.7,5.5-11.3,11-17,16.5c-10,9.7-20,19.4-28.8,30.3c-8.7,10.8-16.2,22.5-20.9,35.6c-4.6,12.7-6.4,26.5-4.1,39.8
					c0.6,3.2,1.4,6.3,2.4,9.3c0.4,1.3,1.7,2.1,3,1.7C277.9,632,278.8,630.6,278.4,629.3L278.4,629.3z"/>
			</g>
		</g>
		<g>
			<g>
				<path d="M295.6,375.3c-0.4-38.1-0.2-76.2,0.6-114.3c0.4-18.8,0.8-37.6,1.8-56.4c0.4-7.6,1.2-16.3,6.2-22.5
					c4.1-5,11.2-8.8,17.6-5.7c5.2,2.6,7.4,8.4,8.5,13.8c1.4,7.1,1,14.4,0.9,21.5c-0.2,19.2-0.3,38.4-0.5,57.5
					c-0.3,38.1-0.6,76.3-0.9,114.4s-0.6,76.3-0.9,114.4c0,4.7-0.1,9.5-0.1,14.2c0,3.2,4.9,3.2,4.9,0c0.3-39.3,0.6-78.5,0.9-117.8
					c0.3-39.3,0.6-78.5,0.9-117.8c0.2-19.6,0.3-39.3,0.5-58.9c0.1-8.1,0.6-16.4-0.4-24.5c-0.8-6.3-2.4-12.9-6.8-17.7
					c-4.7-5-12-6.5-18.3-4.1c-7.5,2.9-12.5,9.3-15,16.8c-2.7,8.3-2.5,17.3-2.8,25.8c-0.4,9.9-0.7,19.8-0.9,29.7
					c-1.1,39.1-1.5,78.2-1.2,117.3c0,4.7,0.1,9.4,0.1,14.2C290.7,378.5,295.6,378.5,295.6,375.3L295.6,375.3z"/>
			</g>
		</g>
		<g>
			<g>
				<path d="M328.8,627.8c-0.6,16.2-1.1,32.4-1.7,48.6c-0.5,14.8-0.9,29.7,1.1,44.5c1.1,8.2,3,16.3,6,24.1c0.5,1.2,1.7,2.1,3,1.7
					c1.2-0.3,2.2-1.8,1.7-3c-5.3-13.7-7-28.4-7.3-43c-0.3-15.2,0.6-30.4,1.1-45.6c0.3-9.1,0.6-18.2,1-27.3
					C333.9,624.6,328.9,624.6,328.8,627.8L328.8,627.8z"/>
			</g>
		</g>
		<g>
			<g>
				<path d="M178,759.3c21.6-0.8,43.1-1.6,64.7-2.3c10.8-0.4,21.6-0.8,32.4-1.2c10.7-0.4,21.4-0.6,32.1-1.2c5.8-0.3,11.6-1,17.4-2.1
					c5.7-1.1,11.4-2.4,17.2-2c1.3,0.1,2.5-1.2,2.5-2.5c0-1.4-1.1-2.4-2.5-2.5c-5.2-0.4-10.4,0.5-15.5,1.5c-5.1,1-10.1,1.9-15.3,2.3
					c-10.6,0.8-21.3,0.9-32,1.3c-21.6,0.8-43.1,1.6-64.7,2.3c-12.1,0.4-24.2,0.9-36.3,1.3C174.8,754.5,174.8,759.4,178,759.3
					L178,759.3z"/>
			</g>
		</g>
		<g>
			<g>
				<path d="M171.7,502.7c19.7,6.6,37.9-7.6,53.7-17.4c7.8-4.8,16.4-9.3,25.8-9.8c10.5-0.6,20.5,3.4,30.8,4.7
					c9.6,1.2,20.2,0.2,27.5-6.8c2.3-2.2-1.2-5.7-3.5-3.5c-5.9,5.7-14.7,6.4-22.5,5.6c-10-1-19.6-4.8-29.7-4.9
					c-19.8-0.3-34.4,14.5-51,23c-9.1,4.7-19.7,7.9-29.7,4.5C170,497,168.7,501.7,171.7,502.7L171.7,502.7z"/>
			</g>
		</g>
		<g>
			<g>
				<path d="M241.1,393.4c-6.5,17-6.5,36.4-0.5,53.6c1.7,4.8,3.9,9.5,6.5,13.9c1.6,2.7,5.9,0.2,4.3-2.5
					c-8.8-14.7-12.2-32.6-9.4-49.5c0.8-4.9,2.1-9.6,3.8-14.2c0.5-1.2-0.5-2.7-1.7-3C242.8,391.3,241.6,392.2,241.1,393.4
					L241.1,393.4z"/>
			</g>
		</g>
		<g>
			<g>
				<path d="M273.5,400.2c-3.9,11.1-6.5,22.7-7.8,34.4c-0.6,5.6-1,11.2-0.8,16.8c0.1,4.4,0.6,9,2,13.2c1.6,4.8,4.4,9,8.8,11.7
					c0-1.4,0-2.8,0-4.3c-11.3,4.9-15.6,17.8-18.2,28.8c-3.5,14.6-6.4,29.8-6,44.9c0.3,8.5,1.6,16.9,4.4,25c0.4,1.3,1.7,2.1,3,1.7
					c1.2-0.3,2.2-1.8,1.7-3c-4.8-13.6-5-28.1-3.3-42.3c0.9-7.2,2.4-14.4,4-21.5c1.3-5.6,2.6-11.2,5-16.5c2.5-5.5,6.1-10.4,11.8-12.9
					c1.8-0.8,1.4-3.4,0-4.3c-6.7-4.2-8.1-13.1-8.4-20.5c-0.3-10.7,1-21.5,3.3-31.9c1.3-6.2,3.1-12.2,5.2-18.1c0.4-1.3-0.5-2.7-1.7-3
					C275.2,398.1,274,399,273.5,400.2L273.5,400.2z"/>
			</g>
		</g>
		<g>
			<g>
				<path d="M173.1,595c11.7,1.9,23.3,3.7,35,5.6c4.8,0.8,9.7,1.3,14.4,2.7c3.7,1.1,7.5,2.9,9.6,6.3c1.2,2,2,4.3,3,6.4
					c1.1,2.4,2.5,4.4,4.6,6c1.1,0.8,2.8,0.2,3.4-0.9c0.7-1.3,0.2-2.6-0.9-3.4c-1.5-1.1-2.3-3-3-4.7c-0.9-2-1.6-4-2.7-5.8
					c-2.4-4-6.3-6.5-10.5-8c-4.4-1.6-9.1-2.2-13.8-3c-5.9-0.9-11.7-1.9-17.6-2.8c-6.7-1.1-13.4-2.1-20.1-3.2c-1.3-0.2-2.7,0.3-3,1.7
					C171.1,593.2,171.8,594.8,173.1,595L173.1,595z"/>
			</g>
		</g>
		<g>
			<g>
				<path d="M177.6,683.5c10.5,2.6,21.1,5.2,31.6,7.7c5.1,1.2,10.2,2,15.5,1.3c4.7-0.6,9.1-2.3,13.3-4.4c4.7-2.4,9.1-5.4,13.5-8.4
					c1.1-0.8,1.6-2.2,0.9-3.4c-0.6-1.1-2.3-1.6-3.4-0.9c-7.3,5-14.9,10.4-23.8,12.1c-4.6,0.9-9.2,0.3-13.8-0.7
					c-5.1-1.2-10.2-2.5-15.3-3.7c-5.8-1.4-11.5-2.8-17.3-4.2C175.8,678,174.5,682.7,177.6,683.5L177.6,683.5z"/>
			</g>
		</g>
		<g>
			<g>
				<path d="M200.5,498.9c-0.4,14.5,2.1,29.1,7.3,42.7c0.5,1.2,1.7,2.1,3,1.7c1.2-0.3,2.2-1.8,1.7-3c-5.1-13.2-7.5-27.2-7.1-41.4
					C205.5,495.7,200.6,495.7,200.5,498.9L200.5,498.9z"/>
			</g>
		</g>
		<g>
			<g>
				<path d="M230.2,484.3c5.9,14.5,7.8,30.6,5.1,46c-0.2,1.3,0.4,2.7,1.7,3c1.2,0.3,2.8-0.4,3-1.7c2.9-16.3,1.2-33.3-5.1-48.7
					c-0.5-1.2-1.6-2.1-3-1.7C230.8,481.6,229.7,483.1,230.2,484.3L230.2,484.3z"/>
			</g>
		</g>
		<g>
			<g>
				<path d="M167.2,393.7c6-10.9,16.5-18.8,28.6-21.8c3.1-0.8,1.8-5.5-1.3-4.8c-13.2,3.2-24.9,12.1-31.5,24
					C161.4,394,165.7,396.5,167.2,393.7L167.2,393.7z"/>
			</g>
		</g>
		<g>
			<g>
				<path d="M180,398.1c4.1-6.6,10.1-11.8,17.3-15.1c1.2-0.5,1.5-2.3,0.9-3.4c-0.7-1.2-2.2-1.4-3.4-0.9c-7.9,3.6-14.5,9.5-19.1,16.8
					c-0.7,1.1-0.2,2.7,0.9,3.4C177.8,399.7,179.3,399.2,180,398.1L180,398.1z"/>
			</g>
		</g>
		<g>
			<g>
				<path d="M213.8,342.2c7.8-3.6,16.7-4.8,25.1-3.3c1.3,0.2,2.7-0.4,3-1.7c0.3-1.2-0.4-2.8-1.7-3c-9.8-1.7-19.8-0.4-28.9,3.8
					c-1.2,0.6-1.5,2.3-0.9,3.4C211.1,342.6,212.6,342.8,213.8,342.2L213.8,342.2z"/>
			</g>
		</g>
		<g>
			<g>
				<path d="M257.6,350.5c5.2-1.9,10.9-2.5,16.4-1.6c1.3,0.2,2.7-0.3,3-1.7c0.3-1.2-0.4-2.8-1.7-3c-6.4-1-12.9-0.5-19,1.6
					c-1.3,0.4-2.1,1.7-1.7,3C254.9,350,256.3,351,257.6,350.5L257.6,350.5z"/>
			</g>
		</g>
		<g>
			<g>
				<path d="M256.3,338.5c6.7-1.8,13.6-1.8,20.3,0c3.1,0.8,4.4-4,1.3-4.8c-7.5-1.9-15.4-1.9-22.9,0
					C251.9,334.6,253.2,339.3,256.3,338.5L256.3,338.5z"/>
			</g>
		</g>
		<g>
			<g>
				<path d="M300,352.9c7.2-0.2,14.2,3.9,17.4,10.5c0.6,1.2,2.3,1.5,3.4,0.9c1.2-0.7,1.5-2.2,0.9-3.4c-4-8-12.8-13.2-21.7-12.9
					C296.8,348.1,296.8,353,300,352.9L300,352.9z"/>
			</g>
		</g>
		<g>
			<g>
				<path d="M301.3,276.2c7.2,0.1,14.1,2.2,20.3,5.8c2.7,1.6,5.2-2.6,2.5-4.3c-6.9-4.1-14.8-6.3-22.8-6.5
					C298.2,271.2,298.2,276.2,301.3,276.2L301.3,276.2z"/>
			</g>
		</g>
		<g>
			<g>
				<path d="M299.5,212c5,5.3,12.1,8.3,19.3,8.2c1.3,0,2.5-1.1,2.5-2.5c0-1.3-1.1-2.5-2.5-2.5c-5.9,0-11.7-2.4-15.8-6.8
					c-0.9-1-2.6-0.9-3.5,0C298.5,209.5,298.5,211,299.5,212L299.5,212z"/>
			</g>
		</g>
		<g>
			<g>
				<path d="M261,187.1c8.1-0.1,16.1-0.3,24.2-0.4c3.2-0.1,3.2-5,0-4.9c-8.1,0.1-16.1,0.3-24.2,0.4
					C257.9,182.2,257.9,187.1,261,187.1L261,187.1z"/>
			</g>
		</g>
		<g>
			<g>
				<path d="M253.6,246.1c8.1-3.3,17.3-3.1,25.1,0.9c2.8,1.5,5.3-2.8,2.5-4.3c-8.9-4.6-19.6-5.2-28.9-1.4c-1.2,0.5-2.1,1.6-1.7,3
					C250.9,245.5,252.4,246.6,253.6,246.1L253.6,246.1z"/>
			</g>
		</g>
		<g>
			<g>
				<path d="M207.4,249.9c10.2-0.7,20.5-1.4,30.7-2.1c1.3-0.1,2.5-1.1,2.5-2.5c0-1.3-1.1-2.6-2.5-2.5c-10.2,0.7-20.5,1.4-30.7,2.1
					c-1.3,0.1-2.5,1.1-2.5,2.5C204.9,248.7,206.1,250,207.4,249.9L207.4,249.9z"/>
			</g>
		</g>
		<g>
			<g>
				<path d="M222.6,259.1c5.1-1.8,10.2-2.7,15.6-2.6c1.3,0,2.5-1.1,2.5-2.5c-0.1-1.3-1.1-2.4-2.5-2.5c-5.7-0.1-11.5,0.9-16.9,2.8
					c-1.3,0.4-2.1,1.7-1.7,3C219.9,258.6,221.4,259.6,222.6,259.1L222.6,259.1z"/>
			</g>
		</g>
		<g>
			<g>
				<path d="M207.2,193.5c7.3-3.8,15.8-4.8,23.8-3c3.1,0.7,4.4-4,1.3-4.8c-9.3-2.1-19.1-0.9-27.6,3.5
					C201.9,190.7,204.4,194.9,207.2,193.5L207.2,193.5z"/>
			</g>
		</g>
		<g>
			<g>
				<path d="M167.6,248.6c7.1-2.8,14.7-3.9,22.3-3.1c1.3,0.1,2.5-1.2,2.5-2.5c0-1.4-1.1-2.3-2.5-2.5c-8-0.8-16.2,0.3-23.7,3.3
					c-1.2,0.5-2.1,1.6-1.7,3C164.9,248,166.4,249,167.6,248.6L167.6,248.6z"/>
			</g>
		</g>
		<g>
			<g>
				<path d="M173.7,305.1c6.2-3,12.8-5.2,19.5-6.5c1.3-0.3,2.1-1.8,1.7-3c-0.4-1.4-1.7-2-3-1.7c-7.2,1.4-14.1,3.8-20.7,7
					c-1.2,0.6-1.5,2.3-0.9,3.4C171.1,305.4,172.5,305.6,173.7,305.1L173.7,305.1z"/>
			</g>
		</g>
		<g>
			<g>
				<path d="M180.2,310.6c5.4-5.4,12.8-8.4,20.4-8.2c3.2,0.1,3.2-4.8,0-4.9c-8.9-0.3-17.7,3.3-23.9,9.6
					C174.5,309.4,178,312.9,180.2,310.6L180.2,310.6z"/>
			</g>
		</g>
		<g>
			<g>
				<path d="M209.9,387.1c-5.8,9.5-7.9,20.8-6.1,31.8c0.2,1.3,1.8,2,3,1.7c1.4-0.4,1.9-1.7,1.7-3c-1.6-9.6,0.5-19.7,5.6-28
					C215.8,386.9,211.6,384.4,209.9,387.1L209.9,387.1z"/>
			</g>
		</g>
		<g>
			<g>
				<path d="M159.6,434.2c7.5-10.4,17.4-19,27.8-26.4c5.3-3.8,10.8-7.3,16.3-10.8c5.6-3.5,11.3-7,17.3-10c6-3,12.2-5.5,18.7-7
					c6.5-1.5,13.2-1.7,19.8-1c13.2,1.5,25.8,7.1,37.3,13.5c6.5,3.6,13,7.5,19.2,11.6c5.6,3.7,11.1,7.9,14.4,13.9
					c1.5,2.8,5.8,0.3,4.3-2.5c-3.1-5.8-8.1-10.1-13.5-13.9c-5.5-3.9-11.3-7.4-17.1-10.7c-12.2-7.1-25.2-13.5-39.2-16
					c-6.8-1.3-13.8-1.6-20.6-0.7c-7,0.9-13.7,3.1-20.1,5.9c-6.4,2.8-12.4,6.2-18.3,9.9c-5.9,3.6-11.7,7.3-17.3,11.2
					c-12.5,8.6-24.2,18.3-33.1,30.6c-0.8,1.1-0.2,2.7,0.9,3.4C157.5,435.8,158.9,435.3,159.6,434.2L159.6,434.2z"/>
			</g>
		</g>
	</g>
	<text transform="matrix(1 0 0 1 160.248 932.1768)" style="&st1; &st2;">Orangután</text>
</g>
</svg>
