<?xml version="1.0" encoding="utf-8"?>
<!-- Generator: Adobe Illustrator 25.4.0, SVG Export Plug-In . SVG Version: 6.00 Build 0)  -->
<!DOCTYPE svg PUBLIC "-//W3C//DTD SVG 1.1//EN" "http://www.w3.org/Graphics/SVG/1.1/DTD/svg11.dtd" [
	<!ENTITY st0 "fill:#B3B3B3;">
	<!ENTITY st1 "font-family:'Roboto-Regular';">
	<!ENTITY st2 "font-size:41.4443px;">
]>
<svg version="1.1" id="Capa_1" xmlns="http://www.w3.org/2000/svg" xmlns:xlink="http://www.w3.org/1999/xlink" x="0px" y="0px"
	 viewBox="0 0 519.3 1080" style="enable-background:new 0 0 519.3 1080;" xml:space="preserve">
<g>
	<g>
		<path style="&st0;" d="M155.8,758.8l-3.2-34.9l-1.4-32.3l2-9.9l-5.9-8.7c0,0-14.2-28.8-16.5-39.9c-2.3-11.1-7.9-49.4-7.8-64.3
			c0-14.9,3.1-69.7,3.5-73c0.3-3.4,8.1-56,8.1-56l0-18.4l2-83.5c0,0,1.3-70.5,4.8-78.8c3.6-8.3,9.3-13.2,11.7-13.2
			c2.4,0,15.8-0.3,18.6,13.5c2.9,13.8,6.8,56.2,7,59s2.9,40.8,2.9,40.8l1.2,45.4l5.9-7.6c0,0,4.3-26.5,4.9-36.3
			c0.6-9.8-0.6-88.5,0-99.8c0.6-11.3,3.5-55.2,3.5-55.2s4.1-32.2,12.3-33c8.2-0.8,17.4-1.5,21.8,8.1s9.5,53.4,9.5,53.4
			s1.5,63.3,0,93.7S235,391,235,391l6.4-1.3c0,0,3-10.9,3.9-19.8c0.9-8.9,5.7-72.4,6.1-80.6c0.4-8.2,1.7-57.7,1.6-72.1
			c-0.1-14.3,0.3-45.9,0-52.5c-0.3-6.6,3-22.1,8.3-24.7s13.8-6.1,20.6,0c6.7,6.1,15.7,17.7,18.6,39.6c3,21.9,3.6,111.6,6.7,120
			c3,8.3,5.1-48.2,5.1-48.2s-2.6-50.4,6.3-58.5c8.9-8.2,18.5-15.5,21.3-8.9c2.7,6.5,15.3,41.3,17.3,51.8
			c2.1,10.4,9.6,74.1,10.2,105.7s0.1,70.5,2.4,87.3s5.2,41.3,10.3,47c5.1,5.7,5.1,5.7,5.1,5.7l4.4-19.7c0,0-2.7-15-1.9-22
			c0.8-7,12.5-39.4,19.5-48c7-8.6,19.2-25.3,28.2-25.1c9,0.2,19.2,4.1,19.1,12.5c-0.1,8.4-5.8,32.3-6.9,40.7s-3.3,60.6-3.5,69.1
			c-0.1,8.5-0.7,41-4.3,58.1c-3.6,17.1-15.8,56.2-23.4,70.2c-7.7,14-30,47.9-39.1,56.6c-9.1,8.7-11.2,11.9-15.4,20.4
			c-4.2,8.5-9.4,18.6-10.8,30.5c-1.5,11.9-3,23.8-1.7,29.2c1.4,5.3,1.4,5.3,1.4,5.3L155.8,758.8z"/>
		<g>
			<g>
				<path d="M130.8,439.6c-3.3,24.8-6.5,49.7-8.5,74.7c-1.9,24.7-2.6,49.6-0.6,74.4c1,12.3,2.6,24.6,5,36.7
					c2.1,10.5,4.5,21.1,8.6,31.1c3.6,8.8,8.4,17.4,15.5,23.9c3.6,3.3,7.7,5.9,12.2,7.8c5.6,2.3,11.6,3.2,17.5,3.9
					c12.7,1.4,25.5,2.5,38.2,3.7c12.9,1.2,25.8,2.5,38.7,3.7c3.2,0.3,6.5,0.6,9.7,0.9c1.3,0.1,2.5-1.2,2.5-2.5
					c0-1.4-1.1-2.3-2.5-2.5c-25.5-2.4-51.1-4.9-76.6-7.3c-11-1-22.5-1.6-32-7.9c-7.6-5-12.8-12.8-16.7-20.9c-4.3-9-6.8-18.7-9-28.4
					c-2.6-11.8-4.5-23.7-5.7-35.8c-2.4-24.3-2.1-48.7-0.5-73c1.6-24.6,4.7-49.1,7.9-73.5c0.4-3,0.8-6,1.2-9c0.2-1.3-1.3-2.5-2.5-2.5
					C131.8,437.1,131,438.3,130.8,439.6L130.8,439.6z"/>
			</g>
		</g>
		<g>
			<g>
				<path d="M293.3,689c16.5,7.4,34.9,9.4,52.6,5.7c3.1-0.7,1.8-5.4-1.3-4.8c-16.3,3.4-33.6,1.6-48.8-5.2c-1.2-0.5-2.6-0.4-3.4,0.9
					C291.8,686.7,292.1,688.4,293.3,689L293.3,689z"/>
			</g>
		</g>
		<g>
			<g>
				<path d="M343,693.3c17.9,2.5,31.6-12.8,42.1-25.1c11.3-13.3,21.2-27.7,29.5-43c16.8-30.8,27.1-64.9,30.2-99.9
					c3.5-39.4-1.6-79.7,7.5-118.6c2.1-9.2,5.9-18.7,3.8-28.2c-1.7-7.6-7.3-14.4-15.5-15c-9-0.7-16.9,6-22.8,12
					c-6,6.1-11.5,12.7-16.3,19.7c-9.4,13.9-16,30.1-16.5,47c-0.5,15.6,4,31.6,13.8,43.9c2.4,3,5.1,5.7,8,8.1c1,0.8,2.5,1,3.5,0
					c0.9-0.9,1-2.7,0-3.5c-11.5-9.3-18.3-23.3-20-37.9c-1.8-15.7,2-31.3,9.4-45.2c3.8-7.2,8.5-13.9,13.7-20.1
					c5.2-6.2,11-13,18.3-16.9c3.5-1.9,7.4-3,11.3-1.7c3.2,1.1,5.5,3.7,6.9,6.7c3.8,7.7,1.1,16.7-1,24.5c-9.7,37-6.2,75.5-8.2,113.3
					c-1.7,33.9-9.8,67.2-24.5,97.9c-7.2,15-15.9,29.3-25.9,42.6c-4.9,6.5-10.2,12.9-15.8,18.8c-5.4,5.7-11.6,11.5-19.1,14.4
					c-3.5,1.3-7.3,2-11.1,1.5c-1.3-0.2-2.6,0.3-3,1.7C341,691.4,341.7,693.1,343,693.3L343,693.3z"/>
			</g>
		</g>
		<g>
			<g>
				<path d="M389.1,454.7c-4.2,12.3-7.9,24.9-10.3,37.7c-1.2,6.4-1.9,12.9-1,19.4c0.8,5.9,2.7,11.4,4.9,17
					c2.3,5.9,4.8,11.8,5.6,18.1c0.2,1.3,1,2.5,2.5,2.5c1.2,0,2.6-1.1,2.5-2.5c-1.5-11.5-7.8-21.5-10.2-32.9
					c-1.2-6-0.9-12.2,0.1-18.1c1-6.4,2.6-12.7,4.3-19c1.9-7.1,4-14,6.4-20.9C394.9,453,390.1,451.7,389.1,454.7L389.1,454.7z"/>
			</g>
		</g>
		<g>
			<g>
				<path d="M377.8,516.6c-7.6,3.1-14.5,7.6-20.3,13.5c-5.3,5.5-10.1,13.5-6.4,21.1c0.6,1.2,2.3,1.5,3.4,0.9
					c1.2-0.7,1.5-2.2,0.9-3.4c-2.8-5.8,2.7-12.3,6.6-16.1c4.9-4.8,10.8-8.7,17.2-11.4c1.2-0.5,2.1-1.6,1.7-3
					C380.5,517.1,379.1,516.1,377.8,516.6L377.8,516.6z"/>
			</g>
		</g>
		<g>
			<g>
				<path d="M382.1,515.1c-12.1,15.5-12.2,36-8.7,54.5c1.1,5.8,2.6,11.6,4,17.4c0.8,3.1,5.5,1.8,4.8-1.3
					c-4.5-17.8-9.2-36.9-3.1-54.9c1.5-4.3,3.6-8.6,6.4-12.2c0.8-1,1-2.5,0-3.5C384.7,514.2,382.9,514,382.1,515.1L382.1,515.1z"/>
			</g>
		</g>
		<g>
			<g>
				<path d="M312.5,384.4c-0.7-36.5-0.3-72.9,1.1-109.4c0.7-18.3,1.7-36.6,2.9-54.9c0.3-4.4,0.6-8.8,1-13.2
					c0.3-3.9,0.9-7.8,2.4-11.5c2.4-5.6,8.6-11.1,15.1-8.4c5.5,2.3,8.3,8.9,10.1,14.1c2.8,7.9,5,16,7.1,24.1
					c4.1,16.4,6.8,33,8.7,49.8c3.8,34.1,4.1,68.4,4.6,102.7c0.2,16.5,0.2,33.1,1.6,49.5c1.3,15.5,4,31,10.4,45.2
					c1.6,3.5,3.4,6.9,5.4,10.2c1.7,2.7,5.9,0.2,4.3-2.5c-8.4-13.5-12.5-29.1-14.4-44.8c-2-16.3-2-32.9-2.3-49.3
					c-0.6-35-0.6-70.1-4.1-105c-1.7-17.4-4.3-34.7-8.2-51.8c-1.9-8.4-4.2-16.8-6.9-25c-2.1-6.4-4.3-13.3-9.3-18.2
					c-5-5-12.4-6.1-18.5-2.3c-7.1,4.4-9.6,12.4-10.6,20.3c-1.1,9-1.4,18.2-2,27.3c-0.6,9.2-1.1,18.5-1.5,27.7
					c-1.8,37.2-2.4,74.5-2,111.7c0.1,4.5,0.1,9.1,0.2,13.6C307.6,387.6,312.5,387.6,312.5,384.4L312.5,384.4z"/>
			</g>
		</g>
		<g>
			<g>
				<path d="M246.5,381.5c2-17.9,3.7-35.7,5-53.7c1.3-17.9,2.3-35.9,3-53.8c0.7-18,1-35.9,1-53.9c0-9-0.1-18-0.3-26.9
					c-0.2-8.3-0.6-16.7-0.7-25c0-9.9,1.1-24.7,12.1-28.3c6.3-2,13.2,0.8,17.8,5.3c5.2,5.2,7.9,12.3,9.9,19.3
					c4.7,16.4,6.6,33.5,7.6,50.5c1,17.7,1.3,35.4,1.8,53c0.5,18.1,1,36.1,1.5,54.2c0.5,18.1,1,36.1,1.5,54.2
					c0.1,4.4,0.3,8.9,0.4,13.3c0.1,3.2,5,3.2,4.9,0c-0.5-18.5-1.1-37-1.6-55.5c-0.5-18.4-1.1-36.8-1.6-55.2
					c-0.5-18.2-0.9-36.5-1.6-54.7c-0.7-17.6-2.1-35.3-6-52.6c-3.3-14.4-8.6-32.4-24.9-36.7c-6.6-1.8-13.7-0.2-18.6,4.7
					c-4.3,4.2-6.4,10.3-7.3,16.1c-1.1,6.6-0.9,13.3-0.7,20c0.3,9.1,0.5,18.3,0.6,27.4c0.2,18.4,0.1,36.8-0.4,55.1
					c-0.5,18.4-1.3,36.7-2.5,55.1c-1.2,18.3-2.7,36.5-4.6,54.7c-0.5,4.5-0.9,8.9-1.4,13.4c-0.1,1.3,1.2,2.5,2.5,2.5
					C245.5,384,246.3,382.9,246.5,381.5L246.5,381.5z"/>
			</g>
		</g>
		<g>
			<g>
				<path d="M190,402.7c6.9-30.2,7.7-61.4,7.3-92.3c-0.3-30.8-1.8-61.7,1-92.5c0.7-7.6,1.6-15.1,2.9-22.6c0.6-3.6,1.2-7.2,2.1-10.7
					c0.8-2.8,1.9-5.7,4.1-7.7c3.7-3.6,9.3-3.4,13.8-1.5c5.3,2.2,8.9,6.9,10.9,12.2c2.4,6.3,3.1,13.2,3.8,19.9
					c0.9,8,1.6,16.1,2.2,24.2c1.2,16.1,1.9,32.2,2,48.3c0.3,32.1-1.5,64.1-5.3,96c-0.5,3.8-1,7.7-1.5,11.5c-0.2,1.3,0.3,2.6,1.7,3
					c1.2,0.3,2.8-0.4,3-1.7c2.2-16.3,4-32.8,5.1-49.2c1.2-16.4,1.8-32.8,1.8-49.3c0.1-16.4-0.4-32.9-1.4-49.3
					c-0.5-8.2-1.2-16.5-2-24.7c-0.7-7.5-1.3-15.1-2.8-22.5c-1.3-6.6-3.8-13.4-8.7-18.2c-4.2-4-10.1-6.7-16-6.4
					c-6.6,0.3-11.7,4.3-14.3,10.2c-1.4,3.2-2.1,6.6-2.7,10c-0.7,3.9-1.4,7.7-1.9,11.6c-2.2,15.7-3.2,31.6-3.5,47.5
					c-0.3,15.8,0.1,31.7,0.3,47.5c0.3,15.8,0.5,31.6,0,47.4c-0.5,15.6-1.8,31.3-4.6,46.7c-0.7,3.8-1.4,7.5-2.3,11.3
					C184.5,404.5,189.3,405.8,190,402.7L190,402.7z"/>
			</g>
		</g>
		<g>
			<g>
				<path d="M136.4,428.7c0.7-24.7,1.5-49.4,2.2-74.2c0.7-24.5,1.4-49,3.1-73.4c0.4-5.7,0.7-11.5,1.4-17.1c0.5-4,1.4-8.4,3.8-11.7
					c5.2-7,15-3.7,19.6,2.3c3,4,4.3,9.1,5.1,14c0.9,5.5,1.2,11.1,1.7,16.6c1.1,12.2,2.3,24.4,3.3,36.6c2,24.6,3.5,49.2,3.8,73.8
					c0,3,0,6,0,8.9c0,3.2,4.9,3.2,4.9,0c0.1-25.4-1.3-50.7-3.3-76c-1-12.6-2.1-25.2-3.3-37.8c-0.6-6-1.1-12.1-1.7-18.1
					c-0.6-5.5-1.5-11-3.8-16.1c-3.8-8.3-13.5-15.5-23-12.4c-9.8,3.2-11.7,14.3-12.4,23.2c-2.2,25.2-3.1,50.5-3.8,75.8
					c-0.8,25.4-1.5,50.8-2.3,76.1c-0.1,3.2-0.2,6.3-0.3,9.5C131.4,431.9,136.3,431.9,136.4,428.7L136.4,428.7z"/>
			</g>
		</g>
		<g>
			<g>
				<path d="M146.7,354.4c-2-2.4-5.9-2.9-8.4-1c-1.8,1.4-1.4,3.7,0.6,4.5c11.6,4.8,25.1,4.9,36.7,0.1c1.2-0.5,2.1-1.6,1.7-3
					c-0.3-1.2-1.8-2.2-3-1.7c-10.9,4.5-23.2,4.5-34-0.1c0.2,1.5,0.4,3,0.6,4.5c0.9-0.7,1.7-0.6,2.4,0.3c0.8,1,2.6,0.9,3.5,0
					C147.8,356.9,147.6,355.4,146.7,354.4L146.7,354.4z"/>
			</g>
		</g>
		<g>
			<g>
				<path d="M147,302.4c9.3,3.9,19.8,3.6,28.9-0.5c1.2-0.5,1.5-2.3,0.9-3.4c-0.7-1.3-2.1-1.4-3.4-0.9c-8,3.5-17.2,3.3-25.1,0
					c-1.2-0.5-2.7,0.6-3,1.7C144.9,300.8,145.7,301.9,147,302.4L147,302.4z"/>
			</g>
		</g>
		<g>
			<g>
				<path d="M209.3,235.4c8.6,3.8,18.5,3.6,26.9-0.7c2.8-1.5,0.3-5.7-2.5-4.3c-6.7,3.5-15,3.8-21.9,0.7c-1.2-0.5-2.6-0.4-3.4,0.9
					C207.8,233,208.1,234.8,209.3,235.4L209.3,235.4z"/>
			</g>
		</g>
		<g>
			<g>
				<path d="M209.4,292.9c7.3,0,14.5,0,21.8,0c3.2,0,3.2-4.9,0-4.9c-7.3,0-14.5,0-21.8,0C206.2,287.9,206.2,292.9,209.4,292.9
					L209.4,292.9z"/>
			</g>
		</g>
		<g>
			<g>
				<path d="M209.6,296.5c-2.3,1.6-2,4.4,0.2,5.9c2.1,1.5,4.3,1.1,6.7,0.7c5.5-0.9,10.9-1.7,16.4-2.6c1.3-0.2,2-1.9,1.7-3
					c-0.4-1.4-1.7-1.9-3-1.7c-3.9,0.6-7.9,1.2-11.8,1.9c-2,0.3-3.9,0.6-5.9,0.9c-0.7,0.1-0.6,0.2-1.3-0.1c0.4,0.2-0.3-0.2-0.3-0.2
					c0.1,0.1,0.2,0.2,0.3,0.3c0.4,0.7,0.2,1.5-0.6,2.2c1.1-0.7,1.6-2.2,0.9-3.4C212.3,296.3,210.7,295.8,209.6,296.5L209.6,296.5z"
					/>
			</g>
		</g>
		<g>
			<g>
				<path d="M262.5,200.5c-2,0.6-3.9-0.5-4.8-2.4c-0.9,1.2-1.9,2.4-2.8,3.6c13.6,5,28.7,5.4,42.5,1.1c3-0.9,1.7-5.7-1.3-4.8
					c-13.1,4-27.1,3.6-39.9-1.1c-0.9-0.3-2,0.2-2.6,0.9c-0.6,0.9-0.6,1.8-0.2,2.7c1.7,3.9,6.4,5.8,10.3,4.7
					C266.9,204.3,265.6,199.6,262.5,200.5L262.5,200.5z"/>
			</g>
		</g>
		<g>
			<g>
				<path d="M254.4,282.2c10.2,5.5,22.4,6.7,33.5,3.3c3-0.9,1.7-5.7-1.3-4.8c-9.8,3-20.6,2-29.7-2.8
					C254.1,276.4,251.6,280.7,254.4,282.2L254.4,282.2z"/>
			</g>
		</g>
		<g>
			<g>
				<path d="M326.3,314.2c7.5,5.5,16.4,8.7,25.6,9.6c1.3,0.1,2.5-1.2,2.5-2.5c0-1.4-1.1-2.3-2.5-2.5c-8.4-0.8-16.3-4-23.1-9
					c-1.1-0.8-2.7-0.2-3.4,0.9C324.7,312,325.2,313.4,326.3,314.2L326.3,314.2z"/>
			</g>
		</g>
		<g>
			<g>
				<path d="M332.4,319.2c-2.6,0.6-3.2,3.4-2.1,5.5c1,1.9,2.9,3,4.9,3.5c5,1.1,10.2,1.3,15.3,0.7c1.3-0.2,2.5-1,2.5-2.5
					c0-1.2-1.1-2.6-2.5-2.5c-3.7,0.5-7.4,0.5-11,0c-0.9-0.1-1.9-0.3-2.8-0.5c-0.4-0.1-0.8-0.2-1.2-0.3c-0.3-0.1-0.1-0.1,0,0
					c-0.2-0.1-0.3-0.2-0.4-0.3c-0.3-0.2,0.2,0.2,0,0c-0.1-0.1-0.2-0.2-0.3-0.3c-0.2-0.2-0.2-0.3-0.1-0.1c-0.1-0.1-0.1-0.2-0.2-0.3
					c-0.2-0.3,0-0.1,0,0.1c-0.1-0.3,0,0.1,0,0.2c0,0.5-0.2,0.7-0.5,1c-0.1,0.2-0.3,0.3-0.4,0.4c-0.2,0.1-0.2,0.1,0,0
					c1.3-0.3,2.1-1.8,1.7-3C335.1,319.6,333.7,318.9,332.4,319.2L332.4,319.2z"/>
			</g>
		</g>
		<g>
			<g>
				<path d="M144.3,496.9c2.9-4.4,8.2-6.6,13.3-7.1c6.9-0.7,13.6,1.3,20.2,3.1c13.2,3.5,26.8,5.2,40.4,4.5
					c25.1-1.3,49.6-11,67.2-29.3c9-9.4,15.8-20.8,19.5-33.3c0.9-3.1-3.9-4.4-4.8-1.3c-6.4,21.8-23,39.5-43.2,49.4
					c-24,11.8-52.1,12.1-77.6,5.4c-7.3-1.9-15-4.2-22.6-3.2c-6.6,0.8-12.9,3.8-16.6,9.5C138.3,497.1,142.6,499.6,144.3,496.9
					L144.3,496.9z"/>
			</g>
		</g>
		<g>
			<g>
				<path d="M148.9,551.7c7,4.8,15.9,6.2,24.2,5.2c9-1.1,17.3-4.8,24.9-9.6c4.5-2.8,8.7-5.8,13-8.9c1.1-0.8,1.6-2.1,0.9-3.4
					c-0.6-1.1-2.3-1.7-3.4-0.9c-13.2,9.4-28.2,20.2-45.3,17.8c-4.3-0.6-8.3-2.1-11.9-4.5C148.8,545.6,146.3,549.9,148.9,551.7
					L148.9,551.7z"/>
			</g>
		</g>
		<g>
			<g>
				<path d="M195.8,587.9c9.7-21.3,23.8-40.3,41.3-55.8c8.6-7.6,17.9-14.4,27.9-20.1c10.3-5.9,21.1-10.5,32.4-14.2
					c13.5-4.5,27.5-8.6,38.7-17.9c1-0.8,0.9-2.6,0-3.5c-1-1-2.5-0.9-3.5,0c-9.7,8-22,11.8-33.7,15.7c-11.5,3.8-22.7,8.1-33.3,14
					c-20.6,11.3-38.8,26.8-53.2,45.3c-8.2,10.5-15.2,21.9-20.7,34c-0.6,1.2-0.3,2.7,0.9,3.4C193.5,589.4,195.2,589.1,195.8,587.9
					L195.8,587.9z"/>
			</g>
		</g>
		<g>
			<g>
				<path d="M231,608.5c0.9-15.7,4.6-31.2,10.5-45.8c5.9-14.5,14.3-28.1,24.5-39.9c5.8-6.7,12.3-12.9,19.2-18.5c1-0.8,0.9-2.6,0-3.5
					c-1-1-2.4-0.8-3.5,0C269,511,258.1,523.3,249.4,537c-8.7,13.6-15.2,28.7-19.2,44.4c-2.2,8.9-3.6,18-4.2,27.2
					C225.9,611.7,230.8,611.7,231,608.5L231,608.5z"/>
			</g>
		</g>
		<g>
			<g>
				<path d="M275.8,560.7c5.3-19.1,12.2-37.7,20.5-55.7c2.3-5.1,4.8-10.1,7.4-15.1c1.5-2.8-2.8-5.3-4.3-2.5
					c-9.2,17.9-17.1,36.6-23.4,55.7c-1.8,5.4-3.4,10.8-4.9,16.3C270.1,562.5,274.9,563.8,275.8,560.7L275.8,560.7z"/>
			</g>
		</g>
		<g>
			<g>
				<path d="M346.2,618.5c7.3,11.8,20,19.6,33.8,20.7c1.3,0.1,2.5-1.2,2.5-2.5c0-1.4-1.1-2.4-2.5-2.5c-12-1-23.3-8-29.6-18.3
					C348.8,613.3,344.5,615.7,346.2,618.5L346.2,618.5z"/>
			</g>
		</g>
		<g>
			<g>
				<path d="M362.7,606.1c3.6,4.8,4.5,10.9,7.2,16.1c2.6,5,7.1,9.4,13,9.5c3.2,0.1,3.2-4.9,0-4.9c-4.6-0.1-7.7-4.6-9.4-8.4
					c-2.2-5-3.2-10.4-6.5-14.8c-0.8-1.1-2.1-1.6-3.4-0.9C362.5,603.3,361.9,605,362.7,606.1L362.7,606.1z"/>
			</g>
		</g>
		<g>
			<g>
				<path d="M174.5,704.3c0,0.1,0,0.1,0,0.2c0-0.4,0-0.9,0-1.3c0,0,0,0.1-0.1,0.1c0.4-0.5,0.8-1,1.1-1.5c0.7-0.3,1.3-0.2,1.9,0.1
					c0.2,0.4,0.4,0.7,0.6,1.1c0,0.1,0,0.2,0.1,0.3c-0.1,0.4-0.2,0.8-0.3,1.2c-0.2,0.4-0.5,0.2-0.2,0.3c0.3,0.2,1.3,0,1.6,0
					c1.2,0,2.3,0,3.5,0c2.4,0,4.8,0,7.2,0c4.7,0,9.5,0,14.2,0.1c9.4,0,18.7,0.1,28.1,0.1c5.4,0,10.8,0,16.2,0.1c3.2,0,3.2-4.9,0-4.9
					c-23.2-0.1-46.4-0.2-69.6-0.3c-1.4,0-2.8,0-4,0.8c-1.4,0.9-2,2.8-1.2,4.2c0.7,1.2,2.3,1.8,3.6,1.5c1.7-0.4,2.2-1.9,2-3.5
					c-0.2-1.3-1.9-2-3-1.7C174.8,701.7,174.3,703,174.5,704.3L174.5,704.3z"/>
			</g>
		</g>
		<g>
			<g>
				<path d="M178.8,718.1c13.5,5.8,28.1,8.9,42.8,8.9c3.2,0,3.2-4.9,0-4.9c-13.8,0-27.6-2.8-40.4-8.2c-1.2-0.5-2.6-0.4-3.4,0.9
					C177.3,715.8,177.6,717.6,178.8,718.1L178.8,718.1z"/>
			</g>
		</g>
		<g>
			<g>
				<path d="M274.5,717.8c8.2,2.1,16.6,3.1,25,3c3.2,0,3.2-5,0-4.9c-8,0.1-15.9-0.9-23.7-2.9C272.7,712.2,271.4,717,274.5,717.8
					L274.5,717.8z"/>
			</g>
		</g>
		<g>
			<g>
				<path d="M135.8,439.9c0.3-0.4,0.8-0.4,1.1-0.6c0.1,0,0.1,0.1,0.1,0.1c-1.1-0.1,0-0.3-0.1-0.1c0,0,0.1,0.2,0.2,0
					c0.2-0.3,0.4-0.6,0.6-0.9c1.3-1.5,2.9-2.8,4.4-4.1c3.1-2.6,6.3-5.1,9.6-7.4c6.7-4.7,13.8-8.8,21.2-12.4
					c15.3-7.5,31.6-13.2,48-17.6c17.5-4.7,35.5-7.7,53.7-7.7c16.1,0,32.2,2.5,47.4,8c14.3,5.2,27.8,13.1,38.8,23.7
					c1.4,1.4,2.7,2.7,4,4.2c2.1,2.3,5.6-1.1,3.5-3.5c-11.2-12.3-25.4-21.4-40.8-27.6c-15.9-6.4-33.1-9.4-50.2-9.7
					c-19.4-0.3-38.8,2.8-57.6,7.9c-17.6,4.7-35,10.9-51.3,19.1c-7.7,3.9-15.2,8.4-22.2,13.6c-3.6,2.7-7.1,5.5-10.4,8.5
					c-1.6,1.5-3.3,3.1-3.6,5.3c-0.3,2.1,0.6,4.1,2.5,5c2,1,4,0.5,5.3-1.3c0.8-1.1,0.2-2.7-0.9-3.4
					C137.9,438.3,136.6,438.8,135.8,439.9L135.8,439.9z"/>
			</g>
		</g>
		<g>
			<g>
				<path d="M151.9,685c2.5,1.5,4.9-1.2,4.1-3.7c-0.5-1.5-1.9-2.3-3.4-2c-1.4,0.3-2.3,1.3-2.8,2.6c-1,2.5-1,5.5-1,8.2
					c-0.1,2.9,0.1,5.8,0.2,8.7c0.6,12,1.1,23.9,1.7,35.9c0.3,6.8,0.6,13.6,0.9,20.4c0.1,3.2,5.1,3.2,4.9,0
					c-0.9-19.1-1.8-38.2-2.7-57.3c-0.1-2.6-0.3-5.3-0.2-7.9c0-1.3,0.1-2.5,0.2-3.8c0.1-0.6,0.2-1.1,0.3-1.7c0-0.2,0.1-0.4,0.1-0.5
					c0.1-0.7,0.4,0.1-0.4,0.3c-0.4,0-0.9,0-1.3,0c-0.1,0-0.2-0.1-0.3-0.1c-0.3-0.3-0.6-0.6-0.9-0.9c-0.1-0.2,0-1.3-0.2-0.9
					c0.2-0.4,0.4-0.7,0.6-1.1c0.1-0.1,0.2-0.1,0.3-0.2c0.4-0.1,0.8-0.2,1.2-0.3c0,0-0.1,0-0.1,0c0.4,0.1,0.8,0.2,1.2,0.3
					c0,0-0.1-0.1-0.1-0.1C151.7,679,149.2,683.3,151.9,685L151.9,685z"/>
			</g>
		</g>
		<g>
			<g>
				<path d="M362.6,687.6c-10.5,16.5-16,36-16,55.5c0,5.6,0.5,11.2,1.4,16.7c0.2,1.3,1.8,2,3,1.7c1.4-0.4,1.9-1.7,1.7-3
					c-3-18.2-0.6-37.4,6.6-54.3c2.1-4.9,4.6-9.6,7.4-14C368.5,687.4,364.3,684.9,362.6,687.6L362.6,687.6z"/>
			</g>
		</g>
		<g>
			<g>
				<path d="M155.8,761.2c25.2,0.2,50.3,0.4,75.5,0.4s50.3,0.1,75.5,0c14.2,0,28.3-0.1,42.5-0.2c3.2,0,3.2-4.9,0-4.9
					c-25.2,0.2-50.3,0.2-75.5,0.2s-50.3-0.1-75.5-0.2c-14.2-0.1-28.3-0.2-42.5-0.3C152.6,756.3,152.6,761.2,155.8,761.2L155.8,761.2
					z"/>
			</g>
		</g>
	</g>
	<text transform="matrix(1 0 0 1 169.5024 939.8474)" style="&st1; &st2;">Humano</text>
</g>
</svg>
