<?xml version="1.0" encoding="utf-8"?>
<!-- Generator: Adobe Illustrator 25.4.0, SVG Export Plug-In . SVG Version: 6.00 Build 0)  -->
<!DOCTYPE svg PUBLIC "-//W3C//DTD SVG 1.1//EN" "http://www.w3.org/Graphics/SVG/1.1/DTD/svg11.dtd" [
	<!ENTITY st0 "fill:#DB9F00;">
	<!ENTITY st1 "font-family:'Roboto-Regular';">
	<!ENTITY st2 "font-size:41.4443px;">
	<!ENTITY st3 "fill:#B3B3B3;">
]>
<svg version="1.1" id="Capa_1" xmlns="http://www.w3.org/2000/svg" xmlns:xlink="http://www.w3.org/1999/xlink" x="0px" y="0px"
	 viewBox="0 0 1058.7 1080" style="enable-background:new 0 0 1058.7 1080;" xml:space="preserve">
<g>
	<g>
		<g>
			<path style="&st0;" d="M205.2,740.2c0,0,3.8-18,3.3-23.3s-7.8-70.2-9.6-82.6c-1.8-12.4-19.9-119.8-19.7-140.1
				c0.3-20.3-2.7-36.9,0-47.6c2.7-10.7,4.7-17.5,4.7-17.5s-3.4-5.5-4.7-12.2c-1.3-6.8,3.3-39.9,3.6-44.2s0.6-22.5-0.1-32.5
				c-0.8-10-4.6-45.3-5.1-49.7c-0.5-4.4-3-18.2-1.8-24.1s7-16.6,10.9-17.9c3.9-1.3,7.7-2.2,10.4-0.6c2.7,1.6,5.8,3.1,7.3,8.2
				c1.5,5.1,2.5,13.5,2.5,13.5s1-14.3,0.5-22.1s-3-47.1-3-52.6c0-5.4-0.2-20.3,2-26.8s5.1-16.5,7.9-15.2c2.8,1.2,8.9,4.1,11.8,10.1
				s7.7,26.4,9.3,31.2s1.6-1.9,2-10.8s2.4-42.2,2.9-47.6s-1-27.1,6.3-31.5c7.3-4.4,14,1.8,15.3,3.2c1.3,1.4,9.1,10.3,11.5,30
				c2.4,19.7,3.9,33.8,5.1,45.9c1.2,12,5.9-28,6.8-29.5c0.8-1.5,5.6-9.3,10.9-6.4c5.3,2.9,11,9.1,12.4,16.6
				c1.4,7.5,14.3,87.7,12.9,141.4s-2.4,93.3-6.3,106.1c-3.9,12.9-22.4,63.4-24.5,74.3c-2.1,11-6.4,42.7-5,56.2s6.4,41.5,6.4,41.5
				s5.2-18.3,7.8-23.1c2.6-4.8,11.5-19.2,13.8-26c2.3-6.8,4.9-16.9,5.2-24s-2.9-43-1.8-48.9s3.5-26.8,9.7-32.3s14.3-8,14.3-8
				s7.9,124.5,7.5,131c-0.4,6.6-2.7,25.9-16.5,41c-13.8,15.1-16.3,40.1-16.3,40.1s-2.8,41,0.1,58.5c2.9,17.6,12.8,52.7,12.8,52.7
				s-63-3.2-76.7-2.6C238.2,742.6,205.2,740.2,205.2,740.2z"/>
		</g>
		<g>
			<g>
				<path d="M187.8,432.2c-4.6-10.1-5.2-21.3-4.7-32.2c0.5-11.6,2.2-23.1,2.5-34.7c0.8-25-2.8-49.8-5.6-74.5
					c-0.7-5.9-1.5-11.9-1.7-17.8c-0.2-5.2,0-10.8,2.4-15.5c1.9-3.7,5.3-6.7,9.3-7.8c3.8-1,7.5,0.4,9.9,3.4c2.4,3.1,3.4,7.4,3.9,11.3
					c0.7,5.5,0.8,11.1,1.1,16.6c0.7,12.6,1.4,25.2,2.1,37.8c1.4,25.2,2.8,50.5,4.1,75.7c0.2,3.2,0.3,6.3,0.5,9.5
					c0.2,3.2,5.1,3.2,4.9,0c-1.4-26.2-2.9-52.4-4.3-78.7c-0.7-13.1-1.4-26.2-2.2-39.3c-0.3-6.2-0.6-12.4-1-18.6
					c-0.4-4.7-1.1-9.4-3.1-13.6c-1.9-4.1-5.3-7.6-9.8-8.8c-4.7-1.3-9.8,0.2-13.6,3.1c-9.6,7.1-9.9,19.4-8.8,30.3
					c2.5,25.7,6.7,51.4,7,77.3c0.1,6.3-0.1,12.6-0.6,18.9c-0.4,5.9-1.1,11.9-1.6,17.8c-0.9,11.4-1.3,23.2,1.9,34.4
					c0.8,2.8,1.8,5.5,3,8.1c0.6,1.2,2.3,1.5,3.4,0.9C188.1,434.9,188.3,433.5,187.8,432.2L187.8,432.2z"/>
			</g>
		</g>
		<g>
			<g>
				<path d="M244.4,382.7c0.2-17,0.2-34.1-0.2-51.1c-0.3-17.1-0.9-34.2-1.7-51.3c-0.8-17-1.9-34-3.2-51c-0.7-8.4-1.4-16.9-2.2-25.3
					c-0.7-7.4-1.2-14.9-2.4-22.3c-1.8-11-5.6-23.5-15.8-29.5c-1.3-0.8-2.7-1.4-4.1-1.9c-0.8-0.3-1.9,0-2.4,0.6
					c-9.4,10.5-10.9,25-10.7,38.6c0.1,8,0.7,16,1.1,24c0.5,8.8,0.9,17.5,1.4,26.3c1,17.5,2,35,3,52.5s2.1,35,3.3,52.5
					c1.1,17.5,2.3,35,3.5,52.5c0.2,2.2,0.3,4.3,0.5,6.5c0.1,1.3,1.1,2.5,2.5,2.5c1.3,0,2.6-1.1,2.5-2.5c-1.2-17.3-2.4-34.7-3.5-52
					c-1.1-17.3-2.2-34.5-3.3-51.8c-1.1-17.3-2.1-34.7-3-52c-1-17.2-1.9-34.3-2.8-51.5c-0.6-12.8-1.1-27.2,6.1-38.4
					c0.8-1.3,1.8-2.5,2.8-3.7c-0.8,0.2-1.6,0.4-2.4,0.6c10.4,3.7,14.2,15.7,16,25.5c1.3,6.7,1.7,13.6,2.4,20.4
					c0.8,8.4,1.5,16.7,2.2,25.1c1.3,16.6,2.4,33.3,3.3,50c0.8,16.7,1.4,33.4,1.8,50.1c0.4,16.8,0.5,33.6,0.3,50.3
					c0,2.1,0,4.2-0.1,6.2C239.4,385.8,244.4,385.8,244.4,382.7L244.4,382.7z"/>
			</g>
		</g>
		<g>
			<g>
				<path d="M281.8,379.7c-0.3-19.9-0.5-39.8-0.8-59.7c-0.3-19.8-0.5-39.6-0.8-59.4c-0.3-19.9-0.5-39.8-0.8-59.7
					c-0.3-18.9-0.1-37.9-2.6-56.7c-1.2-9-3-18.3-6.2-26.8c-2.3-6.2-6.5-13.5-13.4-15.2c-7-1.7-12.7,2.9-15.4,9
					c-3.2,7.3-3.4,15.7-4.1,23.5c-1.8,19.5-2.8,39.1-3.2,58.7c-0.5,19.7-0.3,39.4,0.2,59.2c0.5,19.7,1.4,39.3,2.6,58.9
					c1.1,19.7,2.5,39.4,3.9,59.1c0.3,4.8,0.7,9.6,1,14.4c0.2,3.1,5.2,3.2,4.9,0c-1.4-19.2-2.8-38.5-4-57.7
					c-1.2-19.3-2.3-38.5-3-57.8c-0.7-19.3-1.1-38.5-1-57.8c0.1-19.2,0.7-38.5,2-57.7c0.6-9.6,1.4-19.2,2.4-28.8
					c0.6-5.6,1.4-12.9,6-16.8c2-1.7,4.7-2.2,7.1-1.3c2.8,1,4.9,3.5,6.4,5.9c1.9,3.1,3.1,6.5,4.2,9.9c1.3,4.3,2.3,8.6,3.2,13
					c3.5,17.9,3.6,36.3,3.9,54.6c0.3,19.4,0.5,38.9,0.8,58.3s0.5,38.9,0.8,58.3c0.3,19.4,0.5,38.9,0.8,58.3
					c0.1,4.8,0.1,9.5,0.2,14.3C277,382.9,281.9,382.9,281.8,379.7L281.8,379.7z"/>
			</g>
		</g>
		<g>
			<g>
				<path d="M318.4,405.4c2-17.7,3.5-35.4,4.3-53.2c0.9-17.8,1.2-35.6,1-53.3c-0.2-17.8-1-35.6-2.4-53.3
					c-1.4-17.7-3.3-35.4-5.8-52.9c-1.2-8.8-2.5-17.5-4.1-26.3c-1.1-6-3.4-12.2-7.4-16.8c-4-4.5-10.3-6.4-15.7-3.1
					c-5.5,3.3-7.4,10.2-8.3,16.1c-2.6,17.1-3.3,34.6-3.3,51.9c0,17.4,1,34.9,2.1,52.3c1.1,17.4,2.2,34.7,2.8,52.1
					c0.5,17.4,0.4,34.8-1.1,52.1c-0.4,4.3-0.8,8.5-1.4,12.7c-0.2,1.3,1.3,2.5,2.5,2.5c1.5,0,2.3-1.1,2.5-2.5
					c2.2-16.8,2.9-33.8,2.8-50.8c-0.1-17-1.1-34.1-2.1-51.1c-1-17-2.2-34-2.7-51.1c-0.5-17-0.4-34.1,1.1-51.1
					c0.4-4.2,0.8-8.3,1.3-12.5c0.4-3.2,0.9-6.5,1.9-9.6c0.8-2.4,1.9-4.9,4-6.5c2-1.5,4.4-1.8,6.4-1.1c1.9,0.7,3.7,2.4,5,4.3
					c1.6,2.4,2.9,5,3.8,7.8c1.1,3.3,1.6,6.6,2.2,10c0.7,4.3,1.4,8.6,2.1,12.9c2.6,17.1,4.6,34.3,6.1,51.6c1.5,17.3,2.5,34.6,2.9,52
					s0.4,34.7-0.3,52.1c-0.6,17.4-1.8,34.7-3.5,52c-0.4,4.3-0.9,8.5-1.4,12.8c-0.2,1.3,1.2,2.5,2.5,2.5
					C317.4,407.9,318.3,406.8,318.4,405.4L318.4,405.4z"/>
			</g>
		</g>
		<g>
			<g>
				<path d="M314.8,401.8c-4.9,24.8-16.8,47.4-23.7,71.7c-6.9,24.3-9.4,49.9-7.4,75.1c1.1,14.2,3.6,28.2,7.5,41.9
					c0.9,3.1,5.4,1.8,4.8-1.3c-2.5-11.4,2.9-22.3,8.4-31.9c6.1-10.9,12.6-21.5,15.2-33.9c2.7-13.2,2.1-26.9,1.5-40.3
					c-0.3-6.7-0.7-13.4-0.6-20.2c0-5.8,0.2-11.6,1.6-17.2c2.2-9.5,7.9-21.3,19-22c-0.8-0.8-1.6-1.6-2.5-2.5
					c1.4,23.5,2.8,46.9,4.2,70.4c0.7,11.7,1.4,23.5,2.1,35.2c0.3,5.8,0.7,11.6,1,17.4c0.3,5.6,0.4,11.3-0.5,16.8
					c-1.7,10-7.1,18.5-12.7,26.8c-5.5,8.2-10.5,16.5-14,25.8c-6.9,18.2-8.5,38-7.4,57.3c1.1,20.1,5,39.9,9.3,59.4
					c0.5,2.4,1.1,4.7,1.6,7.1c0.7,3.1,5.5,1.8,4.8-1.3c-4.4-19.4-8.6-38.9-10.3-58.8c-1.6-19.2-1-38.8,5-57.3
					c3-9.3,7.5-17.9,12.8-26c5.4-8.1,11.2-16.2,14.2-25.6c3.5-10.8,2.3-22.3,1.6-33.4c-0.7-11.7-1.4-23.5-2.1-35.2
					c-1.4-23.3-2.8-46.7-4.2-70c-0.2-2.9-0.3-5.8-0.5-8.6c-0.1-1.3-1.1-2.5-2.5-2.5c-10.9,0.6-18,9.4-21.7,19
					c-4.5,11.5-4.1,24.3-3.6,36.3c0.5,14.1,1.9,28.3,0,42.3c-0.9,6.6-2.5,13.2-5.3,19.3c-2.6,5.7-5.8,11.1-8.9,16.6
					c-6.7,11.7-13.4,24.4-10.3,38.3c1.6-0.4,3.2-0.9,4.8-1.3c-6.8-24-9.3-49.2-7.3-74.1c1-12.4,3.1-24.7,6.3-36.7
					c3.2-12,7.6-23.6,12-35.2c5-13.1,9.9-26.3,12.6-40C320.2,400,315.4,398.7,314.8,401.8L314.8,401.8z"/>
			</g>
		</g>
		<g>
			<g>
				<path d="M181.5,428.5c-6.6,18.5-5,39.1-3.9,58.4c1.2,20.5,3.4,41,6.1,61.3c2.7,20.5,5.9,41,9,61.4c3.1,20.4,6.1,40.9,8.8,61.4
					c2.6,20,5.9,40.5,3.2,60.6c-0.3,2.4-0.8,4.9-1.3,7.3c-0.7,3.1,4.1,4.4,4.8,1.3c4.3-19.9,2-40.3-0.6-60.3
					c-2.6-20.6-5.5-41.1-8.6-61.6c-3.1-20.4-6.3-40.9-9.1-61.4c-2.8-20.3-5.2-40.7-6.7-61.2c-0.7-10.1-1.3-20.2-1.4-30.4
					c-0.1-9.6,0.2-19.4,2.5-28.8c0.6-2.3,1.3-4.6,2.1-6.8C187.3,426.8,182.6,425.5,181.5,428.5L181.5,428.5z"/>
			</g>
		</g>
		<g>
			<g>
				<path d="M208,737.1c-1.2,0.3-2.3,0.5-3.5,0.8c-2.8,0.6-2,4.7,0.7,4.8c32,2.2,64,3.6,96.1,4.1c9.1,0.1,18.3,0.2,27.4,0.2
					c3.2,0,3.2-4.9,0-4.9c-32.1,0-64.1-0.9-96.1-2.6c-9.1-0.5-18.2-1.1-27.4-1.7c0.2,1.6,0.4,3.2,0.7,4.8c1.2-0.3,2.3-0.5,3.5-0.8
					C212.4,741.1,211.1,736.4,208,737.1L208,737.1z"/>
			</g>
		</g>
		<g>
			<g>
				<path d="M185.2,491.9c8.3,1.8,16.9,1.1,25.1-1.1c8-2.1,15.9-5.4,23.1-9.5c14.1-7.8,25.7-20,40.7-26.3c7.9-3.3,16.7-4.9,25.1-2.4
					c3,0.9,4.3-3.9,1.3-4.8c-15.9-4.7-31.9,3.1-44.6,12.1c-6.6,4.7-13,9.8-19.8,14.1c-6.9,4.4-14.4,8-22.2,10.5
					c-8.7,2.9-18.2,4.6-27.3,2.5C183.4,486.5,182.1,491.2,185.2,491.9L185.2,491.9z"/>
			</g>
		</g>
		<g>
			<g>
				<path d="M201.7,634.6c2.2-4.7,7.3-7.2,12.3-7.6c6.9-0.5,13.6,2.4,19.8,5c1.2,0.5,2.7-0.6,3-1.7c0.4-1.4-0.5-2.5-1.7-3
					c-7-2.9-14.5-6-22.2-5c-6.3,0.8-12.6,3.9-15.5,9.9c-0.6,1.2-0.3,2.7,0.9,3.4C199.4,636.1,201.1,635.8,201.7,634.6L201.7,634.6z"
					/>
			</g>
		</g>
		<g>
			<g>
				<path d="M206.4,687.9c3.1,6.3,9.4,10.5,16.1,12.3c7.5,2,15.3,1,22.5-1.6c16-5.9,28.8-19.1,46-21.9c7.3-1.2,16-1.4,20.4-8.4
					c1.7-2.7-2.6-5.2-4.3-2.5c-3.1,5-10.5,5.2-15.7,5.9c-8,1.1-15.3,4.3-22.3,8.2c-7.1,4-13.8,8.6-21.1,12.1
					c-6.5,3-13.7,5.1-20.9,4.1c-6.8-1-13.3-4.4-16.4-10.7C209.2,682.6,205,685.1,206.4,687.9L206.4,687.9z"/>
			</g>
		</g>
		<g>
			<g>
				<path d="M228.3,422.2c-6,6.7-8.2,15.4-8.8,24.1c-0.3,4.5-0.3,9,0.1,13.4c0.4,4.8,1.4,9.8,4.1,13.8c2.8,4.1,6.9,7,11.8,7.5
					c1.3,0.1,2.5-1.2,2.5-2.5c0-1.4-1.1-2.3-2.5-2.5c-3.1-0.3-5.9-2.5-7.6-5c-2.3-3.4-3.1-7.5-3.5-11.6c-0.6-7.7-0.5-15.8,1.6-23.2
					c1.1-3.9,2.9-7.6,5.7-10.7C233.9,423.3,230.4,419.8,228.3,422.2L228.3,422.2z"/>
			</g>
		</g>
		<g>
			<g>
				<path d="M276.9,419.9c-3.5-7.6-2.1-17.3,3.2-23.8c0.8-1,1-2.5,0-3.5c-0.9-0.9-2.6-1-3.5,0c-6.9,8.3-8.4,19.9-4,29.8
					c0.5,1.2,2.3,1.5,3.4,0.9C277.3,422.6,277.5,421.2,276.9,419.9L276.9,419.9z"/>
			</g>
		</g>
		<g>
			<g>
				<path d="M287.4,349.4c0.7,0.3,1.6,0.7,2.5,1.1c0.9,0.5,1.8,1,2.7,1.5c1.7,1.1,3,2.1,4.5,3.5c3,2.8,5.3,5.8,7.1,9.5
					c0.6,1.2,2.3,1.5,3.4,0.9c1.2-0.7,1.5-2.2,0.9-3.4c-4.1-8.2-11.2-14.5-19.7-17.9c-1.2-0.5-2.7,0.5-3,1.7
					C285.3,347.8,286.1,348.9,287.4,349.4L287.4,349.4z"/>
			</g>
		</g>
		<g>
			<g>
				<path d="M247.1,276.4c6.7-2.7,14.7-1.7,20.2,3.1c1,0.9,2.5,1,3.5,0c0.9-0.9,1-2.6,0-3.5c-6.7-5.9-16.7-7.8-25-4.4
					c-1.2,0.5-2.1,1.6-1.7,3C244.4,275.8,245.8,276.9,247.1,276.4L247.1,276.4z"/>
			</g>
		</g>
		<g>
			<g>
				<path d="M282.9,281c8.6,2.8,16.7,6.7,24.3,11.6c2.7,1.7,5.1-2.5,2.5-4.3c-7.9-5.1-16.5-9.2-25.5-12.1
					C281.2,275.2,279.9,280,282.9,281L282.9,281z"/>
			</g>
		</g>
		<g>
			<g>
				<path d="M285.1,255.3c8.9,0.9,17.9,1,26.9,0.5c3.2-0.2,3.2-5.1,0-4.9c-9,0.5-18,0.4-26.9-0.5c-1.3-0.1-2.5,1.2-2.5,2.5
					C282.7,254.3,283.8,255.2,285.1,255.3L285.1,255.3z"/>
			</g>
		</g>
		<g>
			<g>
				<path d="M245.6,247.1c-1.7,0.5-3.3,1-5,1.5c0.6,1.5,1.3,3,1.9,4.5c7-3.7,14.6-6.1,22.5-7c1.3-0.2,2.5-1,2.5-2.5
					c0-1.2-1.1-2.6-2.5-2.5c-8.7,1.1-17.1,3.6-24.9,7.7c-2.5,1.3-0.8,5.3,1.9,4.5c1.7-0.5,3.3-1,5-1.5
					C250,251,248.7,246.2,245.6,247.1L245.6,247.1z"/>
			</g>
		</g>
		<g>
			<g>
				<path d="M216.3,307.5c5.2-3.5,12-4.3,17.8-1.8c1.2,0.5,2.6,0.4,3.4-0.9c0.6-1.1,0.3-2.8-0.9-3.4c-7.3-3.3-16.1-2.8-22.8,1.8
					c-1.1,0.7-1.6,2.2-0.9,3.4C213.5,307.7,215.2,308.3,216.3,307.5L216.3,307.5z"/>
			</g>
		</g>
		<g>
			<g>
				<path d="M217.2,283.7c5.9-2.1,12-3.1,18.3-3.1c3.2,0,3.2-4.9,0-4.9c-6.7,0-13.3,1.1-19.6,3.3c-1.3,0.4-2.1,1.7-1.7,3
					C214.5,283.2,216,284.1,217.2,283.7L217.2,283.7z"/>
			</g>
		</g>
		<g>
			<g>
				<path d="M214.6,220.4c6.4-1.3,12.7-2.7,19.1-4c1.3-0.3,2.1-1.8,1.7-3c-0.4-1.3-1.7-2-3-1.7c-6.4,1.3-12.7,2.7-19.1,4
					c-1.3,0.3-2.1,1.8-1.7,3C211.9,220,213.3,220.7,214.6,220.4L214.6,220.4z"/>
			</g>
		</g>
		<g>
			<g>
				<path d="M215.4,213.5c6.2-0.6,12.5-1.3,18.7-1.9c1.3-0.1,2.5-1,2.5-2.5c0-1.2-1.1-2.6-2.5-2.5c-6.2,0.6-12.5,1.3-18.7,1.9
					c-1.3,0.1-2.5,1-2.5,2.5C212.9,212.2,214.1,213.6,215.4,213.5L215.4,213.5z"/>
			</g>
		</g>
		<g>
			<g>
				<path d="M245.7,176.7c0,0.1,0,0.1,0,0.2c0.1-0.4,0.2-0.8,0.3-1.2c0,0,0,0.1-0.1,0.1c0.3-0.3,0.6-0.6,0.9-0.9c0,0-0.1,0-0.1,0.1
					c0.4-0.1,0.8-0.2,1.2-0.3c0.7,0.1,1.2,0.5,1.5,1.2c0,0.4,0,0.9,0,1.3c-1.1,0.8-1.4,1.1-0.7,0.9c0,0-0.1,0-0.1,0
					c0.4,0.1,0.9,0,1.4,0c0.9,0,1.7,0,2.6,0c1.8,0,3.6,0,5.5,0c3.6,0,7.3,0,10.9,0c3.2,0,3.2-4.9,0-4.9c-6,0-12.1-0.1-18.1-0.1
					c-1.3,0-2.6-0.1-3.8,0.3c-1.6,0.5-2.8,2.1-2.4,3.8c0.8,3.2,5.8,3.1,5.9-0.4C250.8,173.5,245.9,173.5,245.7,176.7L245.7,176.7z"
					/>
			</g>
		</g>
		<g>
			<g>
				<path d="M248.9,171.3c7,0.1,14,0.8,20.9,2.1c1.3,0.3,2.7-0.4,3-1.7c0.3-1.2-0.4-2.8-1.7-3c-7.3-1.4-14.8-2.2-22.2-2.3
					C245.8,166.3,245.8,171.3,248.9,171.3L248.9,171.3z"/>
			</g>
		</g>
		<g>
			<g>
				<path d="M289.3,198.3c4.8-2.1,10.4-2.9,15.5-2.2c1.3,0.2,2.6-0.3,3-1.7c0.3-1.2-0.4-2.8-1.7-3c-6.6-0.9-13.2,0-19.3,2.7
					c-1.2,0.5-1.5,2.3-0.9,3.4C286.7,198.6,288.1,198.8,289.3,198.3L289.3,198.3z"/>
			</g>
		</g>
		<g>
			<g>
				<path d="M288.6,202.2c6.2-1.9,12.5-3.9,18.7-5.8c1.3-0.4,2.1-1.7,1.7-3c-0.3-1.3-1.8-2.1-3-1.7c-6.2,1.9-12.5,3.9-18.7,5.8
					c-1.3,0.4-2.1,1.7-1.7,3C285.9,201.8,287.3,202.6,288.6,202.2L288.6,202.2z"/>
			</g>
		</g>
		<g>
			<g>
				<path d="M185.1,303.1c5.2,2,11.1,2.1,16.3,0.1c1.2-0.4,2.2-1.7,1.7-3c-0.4-1.2-1.7-2.2-3-1.7c-1.2,0.4-2.3,0.8-3.6,1
					c-0.2,0-0.3,0.1-0.5,0.1c-0.3,0-0.3,0.1-0.1,0c-0.3,0-0.5,0.1-0.8,0.1c-0.6,0-1.2,0.1-1.8,0.1c-0.6,0-1.2,0-1.8-0.1
					c0,0-0.8-0.1-0.4,0c-0.3,0-0.7-0.1-1-0.2c-1.2-0.2-2.4-0.6-3.5-1.1c-1.2-0.5-2.8,0.5-3,1.7C183,301.5,183.8,302.6,185.1,303.1
					L185.1,303.1z"/>
			</g>
		</g>
		<g>
			<g>
				<path d="M185.8,351.4c2-1.6,4.7-3.3,7.3-4.4c2.4-1.1,5.3-2,8.1-2.6c1.3-0.3,2.1-1.8,1.7-3c-0.4-1.4-1.7-2-3-1.7
					c-6.5,1.3-12.4,4.2-17.6,8.3c-1,0.8-0.9,2.6,0,3.5C183.4,352.4,184.8,352.2,185.8,351.4L185.8,351.4z"/>
			</g>
		</g>
		<g>
			<g>
				<path d="M187.8,369.5c5-3.5,11.7-4.3,17.2-1.7c1.2,0.6,2.7,0.3,3.4-0.9c0.6-1.1,0.3-2.8-0.9-3.4c-7.1-3.3-15.7-2.8-22.2,1.7
					c-1.1,0.8-1.6,2.2-0.9,3.4C185.1,369.7,186.7,370.2,187.8,369.5L187.8,369.5z"/>
			</g>
		</g>
		<g>
			<g>
				<path d="M186.8,434.6c8.1-6.6,16.2-13.3,24.4-19.9c4-3.3,8-6.5,12-9.8c3.7-3,7.4-6.2,11.3-9c15-10.5,34-10,50.7-3.9
					c9.8,3.5,18.8,8.8,27.4,14.5c2.7,1.7,5.1-2.5,2.5-4.3c-15.7-10.3-33.4-19.4-52.7-19.5c-9.2-0.1-18.6,1.9-26.6,6.5
					c-4.3,2.4-8.1,5.6-11.9,8.7c-4.1,3.4-8.3,6.7-12.4,10.1c-9.4,7.7-18.8,15.4-28.2,23c-1,0.8-0.9,2.6,0,3.5
					C184.3,435.6,185.7,435.4,186.8,434.6L186.8,434.6z"/>
			</g>
		</g>
	</g>
	<text transform="matrix(1 0 0 1 192.4321 919.1025)"><tspan x="0" y="0" style="&st1; &st2;">Gibón de </tspan><tspan x="-53.7" y="49.7" style="&st1; &st2;">manos blancas</tspan></text>
</g>
<g>
	<g>
		<path style="&st3;" d="M623,758.8l-3.2-34.9l-1.4-32.3l2-9.9l-5.9-8.7c0,0-14.2-28.8-16.5-39.9c-2.3-11.1-7.9-49.4-7.8-64.3
			c0-14.9,3.1-69.7,3.5-73c0.3-3.4,8.1-56,8.1-56l0-18.4l2-83.5c0,0,1.3-70.5,4.8-78.8c3.6-8.3,9.3-13.2,11.7-13.2
			c2.4,0,15.8-0.3,18.6,13.5c2.9,13.8,6.8,56.2,7,59s2.9,40.8,2.9,40.8l1.2,45.4l5.9-7.6c0,0,4.3-26.5,4.9-36.3
			c0.6-9.8-0.6-88.5,0-99.8s3.5-55.2,3.5-55.2s4.1-32.2,12.3-33c8.2-0.8,17.4-1.5,21.8,8.1c4.3,9.6,9.5,53.4,9.5,53.4
			s1.5,63.3,0,93.7c-1.5,30.4-5.7,63.1-5.7,63.1l6.4-1.3c0,0,3-10.9,3.9-19.8c0.9-8.9,5.7-72.4,6.1-80.6c0.4-8.2,1.7-57.7,1.6-72.1
			c-0.1-14.3,0.3-45.9,0-52.5s3-22.1,8.3-24.7c5.2-2.6,13.8-6.1,20.6,0c6.7,6.1,15.7,17.7,18.6,39.6c3,21.9,3.6,111.6,6.7,120
			c3,8.3,5.1-48.2,5.1-48.2s-2.6-50.4,6.3-58.5s18.5-15.5,21.3-8.9c2.7,6.5,15.3,41.3,17.3,51.8c2.1,10.4,9.6,74.1,10.2,105.7
			s0.1,70.5,2.4,87.3c2.2,16.8,5.2,41.3,10.3,47c5.1,5.7,5.1,5.7,5.1,5.7l4.4-19.7c0,0-2.7-15-1.9-22s12.5-39.4,19.5-48
			s19.2-25.3,28.2-25.1c9,0.2,19.2,4.1,19.1,12.5c-0.1,8.4-5.8,32.3-6.9,40.7c-1.1,8.3-3.3,60.6-3.5,69.1c-0.1,8.5-0.7,41-4.3,58.1
			s-15.8,56.2-23.4,70.2c-7.7,14-30,47.9-39.1,56.6c-9.1,8.7-11.2,11.9-15.4,20.4c-4.2,8.5-9.4,18.6-10.8,30.5s-3,23.8-1.7,29.2
			c1.4,5.3,1.4,5.3,1.4,5.3L623,758.8z"/>
		<g>
			<g>
				<path d="M598.1,439.6c-3.3,24.8-6.5,49.7-8.5,74.7c-1.9,24.7-2.6,49.6-0.6,74.4c1,12.3,2.6,24.6,5,36.7
					c2.1,10.5,4.5,21.1,8.6,31.1c3.6,8.8,8.4,17.4,15.5,23.9c3.6,3.3,7.7,5.9,12.2,7.8c5.6,2.3,11.6,3.2,17.5,3.9
					c12.7,1.4,25.5,2.5,38.2,3.7c12.9,1.2,25.8,2.5,38.7,3.7c3.2,0.3,6.5,0.6,9.7,0.9c1.3,0.1,2.5-1.2,2.5-2.5
					c0-1.4-1.1-2.3-2.5-2.5c-25.5-2.4-51.1-4.9-76.6-7.3c-11-1-22.5-1.6-32-7.9c-7.6-5-12.8-12.8-16.7-20.9c-4.3-9-6.8-18.7-9-28.4
					c-2.6-11.8-4.5-23.7-5.7-35.8c-2.4-24.3-2.1-48.7-0.5-73c1.6-24.6,4.7-49.1,7.9-73.5c0.4-3,0.8-6,1.2-9c0.2-1.3-1.3-2.5-2.5-2.5
					C599.1,437.1,598.2,438.3,598.1,439.6L598.1,439.6z"/>
			</g>
		</g>
		<g>
			<g>
				<path d="M760.6,689c16.5,7.4,34.9,9.4,52.6,5.7c3.1-0.7,1.8-5.4-1.3-4.8c-16.3,3.4-33.6,1.6-48.8-5.2c-1.2-0.5-2.6-0.4-3.4,0.9
					C759.1,686.7,759.3,688.4,760.6,689L760.6,689z"/>
			</g>
		</g>
		<g>
			<g>
				<path d="M810.3,693.3c17.9,2.5,31.6-12.8,42.1-25.1c11.3-13.3,21.2-27.7,29.5-43c16.8-30.8,27.1-64.9,30.2-99.9
					c3.5-39.4-1.6-79.7,7.5-118.6c2.1-9.2,5.9-18.7,3.8-28.2c-1.7-7.6-7.3-14.4-15.5-15c-9-0.7-16.9,6-22.8,12
					c-6,6.1-11.5,12.7-16.3,19.7c-9.4,13.9-16,30.1-16.5,47c-0.5,15.6,4,31.6,13.8,43.9c2.4,3,5.1,5.7,8,8.1c1,0.8,2.5,1,3.5,0
					c0.9-0.9,1-2.7,0-3.5c-11.5-9.3-18.3-23.3-20-37.9c-1.8-15.7,2-31.3,9.4-45.2c3.8-7.2,8.5-13.9,13.7-20.1
					c5.2-6.2,11-13,18.3-16.9c3.5-1.9,7.4-3,11.3-1.7c3.2,1.1,5.5,3.7,6.9,6.7c3.8,7.7,1.1,16.7-1,24.5c-9.7,37-6.2,75.5-8.2,113.3
					c-1.7,33.9-9.8,67.2-24.5,97.9c-7.2,15-15.9,29.3-25.9,42.6c-4.9,6.5-10.2,12.9-15.8,18.8c-5.4,5.7-11.6,11.5-19.1,14.4
					c-3.5,1.3-7.3,2-11.1,1.5c-1.3-0.2-2.6,0.3-3,1.7C808.2,691.4,808.9,693.1,810.3,693.3L810.3,693.3z"/>
			</g>
		</g>
		<g>
			<g>
				<path d="M856.3,454.7c-4.2,12.3-7.9,24.9-10.3,37.7c-1.2,6.4-1.9,12.9-1,19.4c0.8,5.9,2.7,11.4,4.9,17
					c2.3,5.9,4.8,11.8,5.6,18.1c0.2,1.3,1,2.5,2.5,2.5c1.2,0,2.6-1.1,2.5-2.5c-1.5-11.5-7.8-21.5-10.2-32.9
					c-1.2-6-0.9-12.2,0.1-18.1c1-6.4,2.6-12.7,4.3-19c1.9-7.1,4-14,6.4-20.9C862.1,453,857.4,451.7,856.3,454.7L856.3,454.7z"/>
			</g>
		</g>
		<g>
			<g>
				<path d="M845.1,516.6c-7.6,3.1-14.5,7.6-20.3,13.5c-5.3,5.5-10.1,13.5-6.4,21.1c0.6,1.2,2.3,1.5,3.4,0.9
					c1.2-0.7,1.5-2.2,0.9-3.4c-2.8-5.8,2.7-12.3,6.6-16.1c4.9-4.8,10.8-8.7,17.2-11.4c1.2-0.5,2.1-1.6,1.7-3
					C847.8,517.1,846.3,516.1,845.1,516.6L845.1,516.6z"/>
			</g>
		</g>
		<g>
			<g>
				<path d="M849.3,515.1c-12.1,15.5-12.2,36-8.7,54.5c1.1,5.8,2.6,11.6,4,17.4c0.8,3.1,5.5,1.8,4.8-1.3
					c-4.5-17.8-9.2-36.9-3.1-54.9c1.5-4.3,3.6-8.6,6.4-12.2c0.8-1,1-2.5,0-3.5C852,514.2,850.2,514,849.3,515.1L849.3,515.1z"/>
			</g>
		</g>
		<g>
			<g>
				<path d="M779.7,384.4c-0.7-36.5-0.3-72.9,1.1-109.4c0.7-18.3,1.7-36.6,2.9-54.9c0.3-4.4,0.6-8.8,1-13.2
					c0.3-3.9,0.9-7.8,2.4-11.5c2.4-5.6,8.6-11.1,15.1-8.4c5.5,2.3,8.3,8.9,10.1,14.1c2.8,7.9,5,16,7.1,24.1
					c4.1,16.4,6.8,33,8.7,49.8c3.8,34.1,4.1,68.4,4.6,102.7c0.2,16.5,0.2,33.1,1.6,49.5c1.3,15.5,4,31,10.4,45.2
					c1.6,3.5,3.4,6.9,5.4,10.2c1.7,2.7,5.9,0.2,4.3-2.5c-8.4-13.5-12.5-29.1-14.4-44.8c-2-16.3-2-32.9-2.3-49.3
					c-0.6-35-0.6-70.1-4.1-105c-1.7-17.4-4.3-34.7-8.2-51.8c-1.9-8.4-4.2-16.8-6.9-25c-2.1-6.4-4.3-13.3-9.3-18.2
					c-5-5-12.4-6.1-18.5-2.3c-7.1,4.4-9.6,12.4-10.6,20.3c-1.1,9-1.4,18.2-2,27.3c-0.6,9.2-1.1,18.5-1.5,27.7
					c-1.8,37.2-2.4,74.5-2,111.7c0.1,4.5,0.1,9.1,0.2,13.6C774.9,387.6,779.8,387.6,779.7,384.4L779.7,384.4z"/>
			</g>
		</g>
		<g>
			<g>
				<path d="M713.7,381.5c2-17.9,3.7-35.7,5-53.7c1.3-17.9,2.3-35.9,3-53.8c0.7-18,1-35.9,1-53.9c0-9-0.1-18-0.3-26.9
					c-0.2-8.3-0.6-16.7-0.7-25c0-9.9,1.1-24.7,12.1-28.3c6.3-2,13.2,0.8,17.8,5.3c5.2,5.2,7.9,12.3,9.9,19.3
					c4.7,16.4,6.6,33.5,7.6,50.5c1,17.7,1.3,35.4,1.8,53c0.5,18.1,1,36.1,1.5,54.2c0.5,18.1,1,36.1,1.5,54.2
					c0.1,4.4,0.3,8.9,0.4,13.3c0.1,3.2,5,3.2,4.9,0c-0.5-18.5-1.1-37-1.6-55.5c-0.5-18.4-1.1-36.8-1.6-55.2
					c-0.5-18.2-0.9-36.5-1.6-54.7c-0.7-17.6-2.1-35.3-6-52.6c-3.3-14.4-8.6-32.4-24.9-36.7c-6.6-1.8-13.7-0.2-18.6,4.7
					c-4.3,4.2-6.4,10.3-7.3,16.1c-1.1,6.6-0.9,13.3-0.7,20c0.3,9.1,0.5,18.3,0.6,27.4c0.2,18.4,0.1,36.8-0.4,55.1
					c-0.5,18.4-1.3,36.7-2.5,55.1c-1.2,18.3-2.7,36.5-4.6,54.7c-0.5,4.5-0.9,8.9-1.4,13.4c-0.1,1.3,1.2,2.5,2.5,2.5
					C712.7,384,713.5,382.9,713.7,381.5L713.7,381.5z"/>
			</g>
		</g>
		<g>
			<g>
				<path d="M657.2,402.7c6.9-30.2,7.7-61.4,7.3-92.3c-0.3-30.8-1.8-61.7,1-92.5c0.7-7.6,1.6-15.1,2.9-22.6
					c0.6-3.6,1.2-7.2,2.1-10.7c0.8-2.8,1.9-5.7,4.1-7.7c3.7-3.6,9.3-3.4,13.8-1.5c5.3,2.2,8.9,6.9,10.9,12.2
					c2.4,6.3,3.1,13.2,3.8,19.9c0.9,8,1.6,16.1,2.2,24.2c1.2,16.1,1.9,32.2,2,48.3c0.3,32.1-1.5,64.1-5.3,96
					c-0.5,3.8-1,7.7-1.5,11.5c-0.2,1.3,0.3,2.6,1.7,3c1.2,0.3,2.8-0.4,3-1.7c2.2-16.3,4-32.8,5.1-49.2c1.2-16.4,1.8-32.8,1.8-49.3
					c0.1-16.4-0.4-32.9-1.4-49.3c-0.5-8.2-1.2-16.5-2-24.7c-0.7-7.5-1.3-15.1-2.8-22.5c-1.3-6.6-3.8-13.4-8.7-18.2
					c-4.2-4-10.1-6.7-16-6.4c-6.6,0.3-11.7,4.3-14.3,10.2c-1.4,3.2-2.1,6.6-2.7,10c-0.7,3.9-1.4,7.7-1.9,11.6
					c-2.2,15.7-3.2,31.6-3.5,47.5c-0.3,15.8,0.1,31.7,0.3,47.5c0.3,15.8,0.5,31.6,0,47.4c-0.5,15.6-1.8,31.3-4.6,46.7
					c-0.7,3.8-1.4,7.5-2.3,11.3C651.8,404.5,656.5,405.8,657.2,402.7L657.2,402.7z"/>
			</g>
		</g>
		<g>
			<g>
				<path d="M603.6,428.7c0.7-24.7,1.5-49.4,2.2-74.2c0.7-24.5,1.4-49,3.1-73.4c0.4-5.7,0.7-11.5,1.4-17.1c0.5-4,1.4-8.4,3.8-11.7
					c5.2-7,15-3.7,19.6,2.3c3,4,4.3,9.1,5.1,14c0.9,5.5,1.2,11.1,1.7,16.6c1.1,12.2,2.3,24.4,3.3,36.6c2,24.6,3.5,49.2,3.8,73.8
					c0,3,0,6,0,8.9c0,3.2,4.9,3.2,4.9,0c0.1-25.4-1.3-50.7-3.3-76c-1-12.6-2.1-25.2-3.3-37.8c-0.6-6-1.1-12.1-1.7-18.1
					c-0.6-5.5-1.5-11-3.8-16.1c-3.8-8.3-13.5-15.5-23-12.4c-9.8,3.2-11.7,14.3-12.4,23.2c-2.2,25.2-3.1,50.5-3.8,75.8
					c-0.8,25.4-1.5,50.8-2.3,76.1c-0.1,3.2-0.2,6.3-0.3,9.5C598.6,431.9,603.5,431.9,603.6,428.7L603.6,428.7z"/>
			</g>
		</g>
		<g>
			<g>
				<path d="M614,354.4c-2-2.4-5.9-2.9-8.4-1c-1.8,1.4-1.4,3.7,0.6,4.5c11.6,4.8,25.1,4.9,36.7,0.1c1.2-0.5,2.1-1.6,1.7-3
					c-0.3-1.2-1.8-2.2-3-1.7c-10.9,4.5-23.2,4.5-34-0.1c0.2,1.5,0.4,3,0.6,4.5c0.9-0.7,1.7-0.6,2.4,0.3c0.8,1,2.6,0.9,3.5,0
					C615,356.9,614.8,355.4,614,354.4L614,354.4z"/>
			</g>
		</g>
		<g>
			<g>
				<path d="M614.2,302.4c9.3,3.9,19.8,3.6,28.9-0.5c1.2-0.5,1.5-2.3,0.9-3.4c-0.7-1.3-2.1-1.4-3.4-0.9c-8,3.5-17.2,3.3-25.1,0
					c-1.2-0.5-2.7,0.6-3,1.7C612.1,300.8,613,301.9,614.2,302.4L614.2,302.4z"/>
			</g>
		</g>
		<g>
			<g>
				<path d="M676.6,235.4c8.6,3.8,18.5,3.6,26.9-0.7c2.8-1.5,0.3-5.7-2.5-4.3c-6.7,3.5-15,3.8-21.9,0.7c-1.2-0.5-2.6-0.4-3.4,0.9
					C675.1,233,675.4,234.8,676.6,235.4L676.6,235.4z"/>
			</g>
		</g>
		<g>
			<g>
				<path d="M676.6,292.9c7.3,0,14.5,0,21.8,0c3.2,0,3.2-4.9,0-4.9c-7.3,0-14.5,0-21.8,0C673.5,287.9,673.5,292.9,676.6,292.9
					L676.6,292.9z"/>
			</g>
		</g>
		<g>
			<g>
				<path d="M676.8,296.5c-2.3,1.6-2,4.4,0.2,5.9c2.1,1.5,4.3,1.1,6.7,0.7c5.5-0.9,10.9-1.7,16.4-2.6c1.3-0.2,2-1.9,1.7-3
					c-0.4-1.4-1.7-1.9-3-1.7c-3.9,0.6-7.9,1.2-11.8,1.9c-2,0.3-3.9,0.6-5.9,0.9c-0.7,0.1-0.6,0.2-1.3-0.1c0.4,0.2-0.3-0.2-0.3-0.2
					c0.1,0.1,0.2,0.2,0.3,0.3c0.4,0.7,0.2,1.5-0.6,2.2c1.1-0.7,1.6-2.2,0.9-3.4C679.6,296.3,677.9,295.8,676.8,296.5L676.8,296.5z"
					/>
			</g>
		</g>
		<g>
			<g>
				<path d="M729.8,200.5c-2,0.6-3.9-0.5-4.8-2.4c-0.9,1.2-1.9,2.4-2.8,3.6c13.6,5,28.7,5.4,42.5,1.1c3-0.9,1.7-5.7-1.3-4.8
					c-13.1,4-27.1,3.6-39.9-1.1c-0.9-0.3-2,0.2-2.6,0.9c-0.6,0.9-0.6,1.8-0.2,2.7c1.7,3.9,6.4,5.8,10.3,4.7
					C734.1,204.3,732.8,199.6,729.8,200.5L729.8,200.5z"/>
			</g>
		</g>
		<g>
			<g>
				<path d="M721.7,282.2c10.2,5.5,22.4,6.7,33.5,3.3c3-0.9,1.7-5.7-1.3-4.8c-9.8,3-20.6,2-29.7-2.8
					C721.4,276.4,718.9,280.7,721.7,282.2L721.7,282.2z"/>
			</g>
		</g>
		<g>
			<g>
				<path d="M793.5,314.2c7.5,5.5,16.4,8.7,25.6,9.6c1.3,0.1,2.5-1.2,2.5-2.5c0-1.4-1.1-2.3-2.5-2.5c-8.4-0.8-16.3-4-23.1-9
					c-1.1-0.8-2.7-0.2-3.4,0.9C791.9,312,792.5,313.4,793.5,314.2L793.5,314.2z"/>
			</g>
		</g>
		<g>
			<g>
				<path d="M799.6,319.2c-2.6,0.6-3.2,3.4-2.1,5.5c1,1.9,2.9,3,4.9,3.5c5,1.1,10.2,1.3,15.3,0.7c1.3-0.2,2.5-1,2.5-2.5
					c0-1.2-1.1-2.6-2.5-2.5c-3.7,0.5-7.4,0.5-11,0c-0.9-0.1-1.9-0.3-2.8-0.5c-0.4-0.1-0.8-0.2-1.2-0.3c-0.3-0.1-0.1-0.1,0,0
					c-0.2-0.1-0.3-0.2-0.4-0.3c-0.3-0.2,0.2,0.2,0,0c-0.1-0.1-0.2-0.2-0.3-0.3c-0.2-0.2-0.2-0.3-0.1-0.1c-0.1-0.1-0.1-0.2-0.2-0.3
					c-0.2-0.3,0-0.1,0,0.1c-0.1-0.3,0,0.1,0,0.2c0,0.5-0.2,0.7-0.5,1c-0.1,0.2-0.3,0.3-0.4,0.4c-0.2,0.1-0.2,0.1,0,0
					c1.3-0.3,2.1-1.8,1.7-3C802.3,319.6,800.9,318.9,799.6,319.2L799.6,319.2z"/>
			</g>
		</g>
		<g>
			<g>
				<path d="M611.5,496.9c2.9-4.4,8.2-6.6,13.3-7.1c6.9-0.7,13.6,1.3,20.2,3.1c13.2,3.5,26.8,5.2,40.4,4.5
					c25.1-1.3,49.6-11,67.2-29.3c9-9.4,15.8-20.8,19.5-33.3c0.9-3.1-3.9-4.4-4.8-1.3c-6.4,21.8-23,39.5-43.2,49.4
					c-24,11.8-52.1,12.1-77.6,5.4c-7.3-1.9-15-4.2-22.6-3.2c-6.6,0.8-12.9,3.8-16.6,9.5C605.5,497.1,609.8,499.6,611.5,496.9
					L611.5,496.9z"/>
			</g>
		</g>
		<g>
			<g>
				<path d="M616.1,551.7c7,4.8,15.9,6.2,24.2,5.2c9-1.1,17.3-4.8,24.9-9.6c4.5-2.8,8.7-5.8,13-8.9c1.1-0.8,1.6-2.1,0.9-3.4
					c-0.6-1.1-2.3-1.7-3.4-0.9c-13.2,9.4-28.2,20.2-45.3,17.8c-4.3-0.6-8.3-2.1-11.9-4.5C616,545.6,613.5,549.9,616.1,551.7
					L616.1,551.7z"/>
			</g>
		</g>
		<g>
			<g>
				<path d="M663,587.9c9.7-21.3,23.8-40.3,41.3-55.8c8.6-7.6,17.9-14.4,27.9-20.1c10.3-5.9,21.1-10.5,32.4-14.2
					c13.5-4.5,27.5-8.6,38.7-17.9c1-0.8,0.9-2.6,0-3.5c-1-1-2.5-0.9-3.5,0c-9.7,8-22,11.8-33.7,15.7c-11.5,3.8-22.7,8.1-33.3,14
					c-20.6,11.3-38.8,26.8-53.2,45.3c-8.2,10.5-15.2,21.9-20.7,34c-0.6,1.2-0.3,2.7,0.9,3.4C660.7,589.4,662.5,589.1,663,587.9
					L663,587.9z"/>
			</g>
		</g>
		<g>
			<g>
				<path d="M698.2,608.5c0.9-15.7,4.6-31.2,10.5-45.8c5.9-14.5,14.3-28.1,24.5-39.9c5.8-6.7,12.3-12.9,19.2-18.5
					c1-0.8,0.9-2.6,0-3.5c-1-1-2.4-0.8-3.5,0c-12.7,10.1-23.6,22.4-32.4,36.1c-8.7,13.6-15.2,28.7-19.2,44.4
					c-2.2,8.9-3.6,18-4.2,27.2C693.1,611.7,698,611.7,698.2,608.5L698.2,608.5z"/>
			</g>
		</g>
		<g>
			<g>
				<path d="M743,560.7c5.3-19.1,12.2-37.7,20.5-55.7c2.3-5.1,4.8-10.1,7.4-15.1c1.5-2.8-2.8-5.3-4.3-2.5
					c-9.2,17.9-17.1,36.6-23.4,55.7c-1.8,5.4-3.4,10.8-4.9,16.3C737.4,562.5,742.1,563.8,743,560.7L743,560.7z"/>
			</g>
		</g>
		<g>
			<g>
				<path d="M813.4,618.5c7.3,11.8,20,19.6,33.8,20.7c1.3,0.1,2.5-1.2,2.5-2.5c0-1.4-1.1-2.4-2.5-2.5c-12-1-23.3-8-29.6-18.3
					C816,613.3,811.7,615.7,813.4,618.5L813.4,618.5z"/>
			</g>
		</g>
		<g>
			<g>
				<path d="M829.9,606.1c3.6,4.8,4.5,10.9,7.2,16.1c2.6,5,7.1,9.4,13,9.5c3.2,0.1,3.2-4.9,0-4.9c-4.6-0.1-7.7-4.6-9.4-8.4
					c-2.2-5-3.2-10.4-6.5-14.8c-0.8-1.1-2.1-1.6-3.4-0.9C829.7,603.3,829.1,605,829.9,606.1L829.9,606.1z"/>
			</g>
		</g>
		<g>
			<g>
				<path d="M641.7,704.3c0,0.1,0,0.1,0,0.2c0-0.4,0-0.9,0-1.3c0,0,0,0.1-0.1,0.1c0.4-0.5,0.8-1,1.1-1.5c0.7-0.3,1.3-0.2,1.9,0.1
					c0.2,0.4,0.4,0.7,0.6,1.1c0,0.1,0,0.2,0.1,0.3c-0.1,0.4-0.2,0.8-0.3,1.2c-0.2,0.4-0.5,0.2-0.2,0.3c0.3,0.2,1.3,0,1.6,0
					c1.2,0,2.3,0,3.5,0c2.4,0,4.8,0,7.2,0c4.7,0,9.5,0,14.2,0.1c9.4,0,18.7,0.1,28.1,0.1c5.4,0,10.8,0,16.2,0.1c3.2,0,3.2-4.9,0-4.9
					c-23.2-0.1-46.4-0.2-69.6-0.3c-1.4,0-2.8,0-4,0.8c-1.4,0.9-2,2.8-1.2,4.2c0.7,1.2,2.3,1.8,3.6,1.5c1.7-0.4,2.2-1.9,2-3.5
					c-0.2-1.3-1.9-2-3-1.7C642,701.7,641.5,703,641.7,704.3L641.7,704.3z"/>
			</g>
		</g>
		<g>
			<g>
				<path d="M646,718.1c13.5,5.8,28.1,8.9,42.8,8.9c3.2,0,3.2-4.9,0-4.9c-13.8,0-27.6-2.8-40.4-8.2c-1.2-0.5-2.6-0.4-3.4,0.9
					C644.5,715.8,644.8,717.6,646,718.1L646,718.1z"/>
			</g>
		</g>
		<g>
			<g>
				<path d="M741.7,717.8c8.2,2.1,16.6,3.1,25,3c3.2,0,3.2-5,0-4.9c-8,0.1-15.9-0.9-23.7-2.9C740,712.2,738.7,717,741.7,717.8
					L741.7,717.8z"/>
			</g>
		</g>
		<g>
			<g>
				<path d="M603,439.9c0.3-0.4,0.8-0.4,1.1-0.6c0.1,0,0.1,0.1,0.1,0.1c-1.1-0.1,0-0.3-0.1-0.1c0,0,0.1,0.2,0.2,0
					c0.2-0.3,0.4-0.6,0.6-0.9c1.3-1.5,2.9-2.8,4.4-4.1c3.1-2.6,6.3-5.1,9.6-7.4c6.7-4.7,13.8-8.8,21.2-12.4
					c15.3-7.5,31.6-13.2,48-17.6c17.5-4.7,35.5-7.7,53.7-7.7c16.1,0,32.2,2.5,47.4,8c14.3,5.2,27.8,13.1,38.8,23.7
					c1.4,1.4,2.7,2.7,4,4.2c2.1,2.3,5.6-1.1,3.5-3.5c-11.2-12.3-25.4-21.4-40.8-27.6c-15.9-6.4-33.1-9.4-50.2-9.7
					c-19.4-0.3-38.8,2.8-57.6,7.9c-17.6,4.7-35,10.9-51.3,19.1c-7.7,3.9-15.2,8.4-22.2,13.6c-3.6,2.7-7.1,5.5-10.4,8.5
					c-1.6,1.5-3.3,3.1-3.6,5.3c-0.3,2.1,0.6,4.1,2.5,5c2,1,4,0.5,5.3-1.3c0.8-1.1,0.2-2.7-0.9-3.4
					C605.2,438.3,603.8,438.8,603,439.9L603,439.9z"/>
			</g>
		</g>
		<g>
			<g>
				<path d="M619.2,685c2.5,1.5,4.9-1.2,4.1-3.7c-0.5-1.5-1.9-2.3-3.4-2c-1.4,0.3-2.3,1.3-2.8,2.6c-1,2.5-1,5.5-1,8.2
					c-0.1,2.9,0.1,5.8,0.2,8.7c0.6,12,1.1,23.9,1.7,35.9c0.3,6.8,0.6,13.6,0.9,20.4c0.1,3.2,5.1,3.2,4.9,0
					c-0.9-19.1-1.8-38.2-2.7-57.3c-0.1-2.6-0.3-5.3-0.2-7.9c0-1.3,0.1-2.5,0.2-3.8c0.1-0.6,0.2-1.1,0.3-1.7c0-0.2,0.1-0.4,0.1-0.5
					c0.1-0.7,0.4,0.1-0.4,0.3c-0.4,0-0.9,0-1.3,0c-0.1,0-0.2-0.1-0.3-0.1c-0.3-0.3-0.6-0.6-0.9-0.9c-0.1-0.2,0-1.3-0.2-0.9
					c0.2-0.4,0.4-0.7,0.6-1.1c0.1-0.1,0.2-0.1,0.3-0.2c0.4-0.1,0.8-0.2,1.2-0.3c0,0-0.1,0-0.1,0c0.4,0.1,0.8,0.2,1.2,0.3
					c0,0-0.1-0.1-0.1-0.1C619,679,616.5,683.3,619.2,685L619.2,685z"/>
			</g>
		</g>
		<g>
			<g>
				<path d="M829.8,687.6c-10.5,16.5-16,36-16,55.5c0,5.6,0.5,11.2,1.4,16.7c0.2,1.3,1.8,2,3,1.7c1.4-0.4,1.9-1.7,1.7-3
					c-3-18.2-0.6-37.4,6.6-54.3c2.1-4.9,4.6-9.6,7.4-14C835.8,687.4,831.5,684.9,829.8,687.6L829.8,687.6z"/>
			</g>
		</g>
		<g>
			<g>
				<path d="M623,761.2c25.2,0.2,50.3,0.4,75.5,0.4s50.3,0.1,75.5,0c14.2,0,28.3-0.1,42.5-0.2c3.2,0,3.2-4.9,0-4.9
					c-25.2,0.2-50.3,0.2-75.5,0.2c-25.2,0-50.3-0.1-75.5-0.2c-14.2-0.1-28.3-0.2-42.5-0.3C619.9,756.3,619.9,761.2,623,761.2
					L623,761.2z"/>
			</g>
		</g>
	</g>
	<text transform="matrix(1 0 0 1 636.7349 939.8474)" style="&st1; &st2;">Humano</text>
</g>
</svg>
