<?xml version="1.0" encoding="utf-8"?>
<!-- Generator: Adobe Illustrator 25.4.0, SVG Export Plug-In . SVG Version: 6.00 Build 0)  -->
<!DOCTYPE svg PUBLIC "-//W3C//DTD SVG 1.1//EN" "http://www.w3.org/Graphics/SVG/1.1/DTD/svg11.dtd" [
	<!ENTITY st0 "fill:#DB9F00;">
	<!ENTITY st1 "font-family:'Roboto-Regular';">
	<!ENTITY st2 "font-size:41.4443px;">
	<!ENTITY st3 "fill:#B3B3B3;">
]>
<svg version="1.1" id="Capa_1" xmlns="http://www.w3.org/2000/svg" xmlns:xlink="http://www.w3.org/1999/xlink" x="0px" y="0px"
	 viewBox="0 0 1058.7 1080" style="enable-background:new 0 0 1058.7 1080;" xml:space="preserve">
<g>
	<g>
		<g>
			<path style="&st0;" d="M205.2,740.2c0,0,3.8-18,3.3-23.3s-7.8-70.2-9.6-82.6c-1.8-12.4-19.9-119.8-19.7-140.1
				c0.3-20.3-2.7-36.9,0-47.6c2.7-10.7,4.7-17.5,4.7-17.5s-3.4-5.5-4.7-12.2c-1.3-6.8,3.3-39.9,3.6-44.2s0.6-22.5-0.1-32.5
				c-0.8-10-4.6-45.3-5.1-49.7c-0.5-4.4-3-18.2-1.8-24.1s7-16.6,10.9-17.9c3.9-1.3,7.7-2.2,10.4-0.6c2.7,1.6,5.8,3.1,7.3,8.2
				c1.5,5.1,2.5,13.5,2.5,13.5s1-14.3,0.5-22.1s-3-47.1-3-52.6c0-5.4-0.2-20.3,2-26.8s5.1-16.5,7.9-15.2c2.8,1.2,8.9,4.1,11.8,10.1
				s7.7,26.4,9.3,31.2s1.6-1.9,2-10.8s2.4-42.2,2.9-47.6s-1-27.1,6.3-31.5c7.3-4.4,14,1.8,15.3,3.2c1.3,1.4,9.1,10.3,11.5,30
				c2.4,19.7,3.9,33.8,5.1,45.9c1.2,12,5.9-28,6.8-29.5c0.8-1.5,5.6-9.3,10.9-6.4c5.3,2.9,11,9.1,12.4,16.6
				c1.4,7.5,14.3,87.7,12.9,141.4s-2.4,93.3-6.3,106.1c-3.9,12.9-22.4,63.4-24.5,74.3c-2.1,11-6.4,42.7-5,56.2s6.4,41.5,6.4,41.5
				s5.2-18.3,7.8-23.1c2.6-4.8,11.5-19.2,13.8-26c2.3-6.8,4.9-16.9,5.2-24s-2.9-43-1.8-48.9s3.5-26.8,9.7-32.3s14.3-8,14.3-8
				s7.9,124.5,7.5,131c-0.4,6.6-2.7,25.9-16.5,41c-13.8,15.1-16.3,40.1-16.3,40.1s-2.8,41,0.1,58.5c2.9,17.6,12.8,52.7,12.8,52.7
				s-63-3.2-76.7-2.6C238.2,742.6,205.2,740.2,205.2,740.2z"/>
		</g>
		<g>
			<g>
				<path d="M187.8,432.2c-4.6-10.1-5.2-21.3-4.7-32.2c0.5-11.6,2.2-23.1,2.5-34.7c0.8-25-2.8-49.8-5.6-74.5
					c-0.7-5.9-1.5-11.9-1.7-17.8c-0.2-5.2,0-10.8,2.4-15.5c1.9-3.7,5.3-6.7,9.3-7.8c3.8-1,7.5,0.4,9.9,3.4c2.4,3.1,3.4,7.4,3.9,11.3
					c0.7,5.5,0.8,11.1,1.1,16.6c0.7,12.6,1.4,25.2,2.1,37.8c1.4,25.2,2.8,50.5,4.1,75.7c0.2,3.2,0.3,6.3,0.5,9.5
					c0.2,3.2,5.1,3.2,4.9,0c-1.4-26.2-2.9-52.4-4.3-78.7c-0.7-13.1-1.4-26.2-2.2-39.3c-0.3-6.2-0.6-12.4-1-18.6
					c-0.4-4.7-1.1-9.4-3.1-13.6c-1.9-4.1-5.3-7.6-9.8-8.8c-4.7-1.3-9.8,0.2-13.6,3.1c-9.6,7.1-9.9,19.4-8.8,30.3
					c2.5,25.7,6.7,51.4,7,77.3c0.1,6.3-0.1,12.6-0.6,18.9c-0.4,5.9-1.1,11.9-1.6,17.8c-0.9,11.4-1.3,23.2,1.9,34.4
					c0.8,2.8,1.8,5.5,3,8.1c0.6,1.2,2.3,1.5,3.4,0.9C188.1,434.9,188.3,433.5,187.8,432.2L187.8,432.2z"/>
			</g>
		</g>
		<g>
			<g>
				<path d="M244.4,382.7c0.2-17,0.2-34.1-0.2-51.1c-0.3-17.1-0.9-34.2-1.7-51.3c-0.8-17-1.9-34-3.2-51c-0.7-8.4-1.4-16.9-2.2-25.3
					c-0.7-7.4-1.2-14.9-2.4-22.3c-1.8-11-5.6-23.5-15.8-29.5c-1.3-0.8-2.7-1.4-4.1-1.9c-0.8-0.3-1.9,0-2.4,0.6
					c-9.4,10.5-10.9,25-10.7,38.6c0.1,8,0.7,16,1.1,24c0.5,8.8,0.9,17.5,1.4,26.3c1,17.5,2,35,3,52.5s2.1,35,3.3,52.5
					c1.1,17.5,2.3,35,3.5,52.5c0.2,2.2,0.3,4.3,0.5,6.5c0.1,1.3,1.1,2.5,2.5,2.5c1.3,0,2.6-1.1,2.5-2.5c-1.2-17.3-2.4-34.7-3.5-52
					c-1.1-17.3-2.2-34.5-3.3-51.8c-1.1-17.3-2.1-34.7-3-52c-1-17.2-1.9-34.3-2.8-51.5c-0.6-12.8-1.1-27.2,6.1-38.4
					c0.8-1.3,1.8-2.5,2.8-3.7c-0.8,0.2-1.6,0.4-2.4,0.6c10.4,3.7,14.2,15.7,16,25.5c1.3,6.7,1.7,13.6,2.4,20.4
					c0.8,8.4,1.5,16.7,2.2,25.1c1.3,16.6,2.4,33.3,3.3,50c0.8,16.7,1.4,33.4,1.8,50.1c0.4,16.8,0.5,33.6,0.3,50.3
					c0,2.1,0,4.2-0.1,6.2C239.4,385.8,244.4,385.8,244.4,382.7L244.4,382.7z"/>
			</g>
		</g>
		<g>
			<g>
				<path d="M281.8,379.7c-0.3-19.9-0.5-39.8-0.8-59.7c-0.3-19.8-0.5-39.6-0.8-59.4c-0.3-19.9-0.5-39.8-0.8-59.7
					c-0.3-18.9-0.1-37.9-2.6-56.7c-1.2-9-3-18.3-6.2-26.8c-2.3-6.2-6.5-13.5-13.4-15.2c-7-1.7-12.7,2.9-15.4,9
					c-3.2,7.3-3.4,15.7-4.1,23.5c-1.8,19.5-2.8,39.1-3.2,58.7c-0.5,19.7-0.3,39.4,0.2,59.2c0.5,19.7,1.4,39.3,2.6,58.9
					c1.1,19.7,2.5,39.4,3.9,59.1c0.3,4.8,0.7,9.6,1,14.4c0.2,3.1,5.2,3.2,4.9,0c-1.4-19.2-2.8-38.5-4-57.7
					c-1.2-19.3-2.3-38.5-3-57.8c-0.7-19.3-1.1-38.5-1-57.8c0.1-19.2,0.7-38.5,2-57.7c0.6-9.6,1.4-19.2,2.4-28.8
					c0.6-5.6,1.4-12.9,6-16.8c2-1.7,4.7-2.2,7.1-1.3c2.8,1,4.9,3.5,6.4,5.9c1.9,3.1,3.1,6.5,4.2,9.9c1.3,4.3,2.3,8.6,3.2,13
					c3.5,17.9,3.6,36.3,3.9,54.6c0.3,19.4,0.5,38.9,0.8,58.3s0.5,38.9,0.8,58.3c0.3,19.4,0.5,38.9,0.8,58.3
					c0.1,4.8,0.1,9.5,0.2,14.3C277,382.9,281.9,382.9,281.8,379.7L281.8,379.7z"/>
			</g>
		</g>
		<g>
			<g>
				<path d="M318.4,405.4c2-17.7,3.5-35.4,4.3-53.2c0.9-17.8,1.2-35.6,1-53.3c-0.2-17.8-1-35.6-2.4-53.3
					c-1.4-17.7-3.3-35.4-5.8-52.9c-1.2-8.8-2.5-17.5-4.1-26.3c-1.1-6-3.4-12.2-7.4-16.8c-4-4.5-10.3-6.4-15.7-3.1
					c-5.5,3.3-7.4,10.2-8.3,16.1c-2.6,17.1-3.3,34.6-3.3,51.9c0,17.4,1,34.9,2.1,52.3c1.1,17.4,2.2,34.7,2.8,52.1
					c0.5,17.4,0.4,34.8-1.1,52.1c-0.4,4.3-0.8,8.5-1.4,12.7c-0.2,1.3,1.3,2.5,2.5,2.5c1.5,0,2.3-1.1,2.5-2.5
					c2.2-16.8,2.9-33.8,2.8-50.8c-0.1-17-1.1-34.1-2.1-51.1c-1-17-2.2-34-2.7-51.1c-0.5-17-0.4-34.1,1.1-51.1
					c0.4-4.2,0.8-8.3,1.3-12.5c0.4-3.2,0.9-6.5,1.9-9.6c0.8-2.4,1.9-4.9,4-6.5c2-1.5,4.4-1.8,6.4-1.1c1.9,0.7,3.7,2.4,5,4.3
					c1.6,2.4,2.9,5,3.8,7.8c1.1,3.3,1.6,6.6,2.2,10c0.7,4.3,1.4,8.6,2.1,12.9c2.6,17.1,4.6,34.3,6.1,51.6c1.5,17.3,2.5,34.6,2.9,52
					s0.4,34.7-0.3,52.1c-0.6,17.4-1.8,34.7-3.5,52c-0.4,4.3-0.9,8.5-1.4,12.8c-0.2,1.3,1.2,2.5,2.5,2.5
					C317.4,407.9,318.3,406.8,318.4,405.4L318.4,405.4z"/>
			</g>
		</g>
		<g>
			<g>
				<path d="M314.8,401.8c-4.9,24.8-16.8,47.4-23.7,71.7c-6.9,24.3-9.4,49.9-7.4,75.1c1.1,14.2,3.6,28.2,7.5,41.9
					c0.9,3.1,5.4,1.8,4.8-1.3c-2.5-11.4,2.9-22.3,8.4-31.9c6.1-10.9,12.6-21.5,15.2-33.9c2.7-13.2,2.1-26.9,1.5-40.3
					c-0.3-6.7-0.7-13.4-0.6-20.2c0-5.8,0.2-11.6,1.6-17.2c2.2-9.5,7.9-21.3,19-22c-0.8-0.8-1.6-1.6-2.5-2.5
					c1.4,23.5,2.8,46.9,4.2,70.4c0.7,11.7,1.4,23.5,2.1,35.2c0.3,5.8,0.7,11.6,1,17.4c0.3,5.6,0.4,11.3-0.5,16.8
					c-1.7,10-7.1,18.5-12.7,26.8c-5.5,8.2-10.5,16.5-14,25.8c-6.9,18.2-8.5,38-7.4,57.3c1.1,20.1,5,39.9,9.3,59.4
					c0.5,2.4,1.1,4.7,1.6,7.1c0.7,3.1,5.5,1.8,4.8-1.3c-4.4-19.4-8.6-38.9-10.3-58.8c-1.6-19.2-1-38.8,5-57.3
					c3-9.3,7.5-17.9,12.8-26c5.4-8.1,11.2-16.2,14.2-25.6c3.5-10.8,2.3-22.3,1.6-33.4c-0.7-11.7-1.4-23.5-2.1-35.2
					c-1.4-23.3-2.8-46.7-4.2-70c-0.2-2.9-0.3-5.8-0.5-8.6c-0.1-1.3-1.1-2.5-2.5-2.5c-10.9,0.6-18,9.4-21.7,19
					c-4.5,11.5-4.1,24.3-3.6,36.3c0.5,14.1,1.9,28.3,0,42.3c-0.9,6.6-2.5,13.2-5.3,19.3c-2.6,5.7-5.8,11.1-8.9,16.6
					c-6.7,11.7-13.4,24.4-10.3,38.3c1.6-0.4,3.2-0.9,4.8-1.3c-6.8-24-9.3-49.2-7.3-74.1c1-12.4,3.1-24.7,6.3-36.7
					c3.2-12,7.6-23.6,12-35.2c5-13.1,9.9-26.3,12.6-40C320.2,400,315.4,398.7,314.8,401.8L314.8,401.8z"/>
			</g>
		</g>
		<g>
			<g>
				<path d="M181.5,428.5c-6.6,18.5-5,39.1-3.9,58.4c1.2,20.5,3.4,41,6.1,61.3c2.7,20.5,5.9,41,9,61.4c3.1,20.4,6.1,40.9,8.8,61.4
					c2.6,20,5.9,40.5,3.2,60.6c-0.3,2.4-0.8,4.9-1.3,7.3c-0.7,3.1,4.1,4.4,4.8,1.3c4.3-19.9,2-40.3-0.6-60.3
					c-2.6-20.6-5.5-41.1-8.6-61.6c-3.1-20.4-6.3-40.9-9.1-61.4c-2.8-20.3-5.2-40.7-6.7-61.2c-0.7-10.1-1.3-20.2-1.4-30.4
					c-0.1-9.6,0.2-19.4,2.5-28.8c0.6-2.3,1.3-4.6,2.1-6.8C187.3,426.8,182.6,425.5,181.5,428.5L181.5,428.5z"/>
			</g>
		</g>
		<g>
			<g>
				<path d="M208,737.1c-1.2,0.3-2.3,0.5-3.5,0.8c-2.8,0.6-2,4.7,0.7,4.8c32,2.2,64,3.6,96.1,4.1c9.1,0.1,18.3,0.2,27.4,0.2
					c3.2,0,3.2-4.9,0-4.9c-32.1,0-64.1-0.9-96.1-2.6c-9.1-0.5-18.2-1.1-27.4-1.7c0.2,1.6,0.4,3.2,0.7,4.8c1.2-0.3,2.3-0.5,3.5-0.8
					C212.4,741.1,211.1,736.4,208,737.1L208,737.1z"/>
			</g>
		</g>
		<g>
			<g>
				<path d="M185.2,491.9c8.3,1.8,16.9,1.1,25.1-1.1c8-2.1,15.9-5.4,23.1-9.5c14.1-7.8,25.7-20,40.7-26.3c7.9-3.3,16.7-4.9,25.1-2.4
					c3,0.9,4.3-3.9,1.3-4.8c-15.9-4.7-31.9,3.1-44.6,12.1c-6.6,4.7-13,9.8-19.8,14.1c-6.9,4.4-14.4,8-22.2,10.5
					c-8.7,2.9-18.2,4.6-27.3,2.5C183.4,486.5,182.1,491.2,185.2,491.9L185.2,491.9z"/>
			</g>
		</g>
		<g>
			<g>
				<path d="M201.7,634.6c2.2-4.7,7.3-7.2,12.3-7.6c6.9-0.5,13.6,2.4,19.8,5c1.2,0.5,2.7-0.6,3-1.7c0.4-1.4-0.5-2.5-1.7-3
					c-7-2.9-14.5-6-22.2-5c-6.3,0.8-12.6,3.9-15.5,9.9c-0.6,1.2-0.3,2.7,0.9,3.4C199.4,636.1,201.1,635.8,201.7,634.6L201.7,634.6z"
					/>
			</g>
		</g>
		<g>
			<g>
				<path d="M206.4,687.9c3.1,6.3,9.4,10.5,16.1,12.3c7.5,2,15.3,1,22.5-1.6c16-5.9,28.8-19.1,46-21.9c7.3-1.2,16-1.4,20.4-8.4
					c1.7-2.7-2.6-5.2-4.3-2.5c-3.1,5-10.5,5.2-15.7,5.9c-8,1.1-15.3,4.3-22.3,8.2c-7.1,4-13.8,8.6-21.1,12.1
					c-6.5,3-13.7,5.1-20.9,4.1c-6.8-1-13.3-4.4-16.4-10.7C209.2,682.6,205,685.1,206.4,687.9L206.4,687.9z"/>
			</g>
		</g>
		<g>
			<g>
				<path d="M228.3,422.2c-6,6.7-8.2,15.4-8.8,24.1c-0.3,4.5-0.3,9,0.1,13.4c0.4,4.8,1.4,9.8,4.1,13.8c2.8,4.1,6.9,7,11.8,7.5
					c1.3,0.1,2.5-1.2,2.5-2.5c0-1.4-1.1-2.3-2.5-2.5c-3.1-0.3-5.9-2.5-7.6-5c-2.3-3.4-3.1-7.5-3.5-11.6c-0.6-7.7-0.5-15.8,1.6-23.2
					c1.1-3.9,2.9-7.6,5.7-10.7C233.9,423.3,230.4,419.8,228.3,422.2L228.3,422.2z"/>
			</g>
		</g>
		<g>
			<g>
				<path d="M276.9,419.9c-3.5-7.6-2.1-17.3,3.2-23.8c0.8-1,1-2.5,0-3.5c-0.9-0.9-2.6-1-3.5,0c-6.9,8.3-8.4,19.9-4,29.8
					c0.5,1.2,2.3,1.5,3.4,0.9C277.3,422.6,277.5,421.2,276.9,419.9L276.9,419.9z"/>
			</g>
		</g>
		<g>
			<g>
				<path d="M287.4,349.4c0.7,0.3,1.6,0.7,2.5,1.1c0.9,0.5,1.8,1,2.7,1.5c1.7,1.1,3,2.1,4.5,3.5c3,2.8,5.3,5.8,7.1,9.5
					c0.6,1.2,2.3,1.5,3.4,0.9c1.2-0.7,1.5-2.2,0.9-3.4c-4.1-8.2-11.2-14.5-19.7-17.9c-1.2-0.5-2.7,0.5-3,1.7
					C285.3,347.8,286.1,348.9,287.4,349.4L287.4,349.4z"/>
			</g>
		</g>
		<g>
			<g>
				<path d="M247.1,276.4c6.7-2.7,14.7-1.7,20.2,3.1c1,0.9,2.5,1,3.5,0c0.9-0.9,1-2.6,0-3.5c-6.7-5.9-16.7-7.8-25-4.4
					c-1.2,0.5-2.1,1.6-1.7,3C244.4,275.8,245.8,276.9,247.1,276.4L247.1,276.4z"/>
			</g>
		</g>
		<g>
			<g>
				<path d="M282.9,281c8.6,2.8,16.7,6.7,24.3,11.6c2.7,1.7,5.1-2.5,2.5-4.3c-7.9-5.1-16.5-9.2-25.5-12.1
					C281.2,275.2,279.9,280,282.9,281L282.9,281z"/>
			</g>
		</g>
		<g>
			<g>
				<path d="M285.1,255.3c8.9,0.9,17.9,1,26.9,0.5c3.2-0.2,3.2-5.1,0-4.9c-9,0.5-18,0.4-26.9-0.5c-1.3-0.1-2.5,1.2-2.5,2.5
					C282.7,254.3,283.8,255.2,285.1,255.3L285.1,255.3z"/>
			</g>
		</g>
		<g>
			<g>
				<path d="M245.6,247.1c-1.7,0.5-3.3,1-5,1.5c0.6,1.5,1.3,3,1.9,4.5c7-3.7,14.6-6.1,22.5-7c1.3-0.2,2.5-1,2.5-2.5
					c0-1.2-1.1-2.6-2.5-2.5c-8.7,1.1-17.1,3.6-24.9,7.7c-2.5,1.3-0.8,5.3,1.9,4.5c1.7-0.5,3.3-1,5-1.5
					C250,251,248.7,246.2,245.6,247.1L245.6,247.1z"/>
			</g>
		</g>
		<g>
			<g>
				<path d="M216.3,307.5c5.2-3.5,12-4.3,17.8-1.8c1.2,0.5,2.6,0.4,3.4-0.9c0.6-1.1,0.3-2.8-0.9-3.4c-7.3-3.3-16.1-2.8-22.8,1.8
					c-1.1,0.7-1.6,2.2-0.9,3.4C213.5,307.7,215.2,308.3,216.3,307.5L216.3,307.5z"/>
			</g>
		</g>
		<g>
			<g>
				<path d="M217.2,283.7c5.9-2.1,12-3.1,18.3-3.1c3.2,0,3.2-4.9,0-4.9c-6.7,0-13.3,1.1-19.6,3.3c-1.3,0.4-2.1,1.7-1.7,3
					C214.5,283.2,216,284.1,217.2,283.7L217.2,283.7z"/>
			</g>
		</g>
		<g>
			<g>
				<path d="M214.6,220.4c6.4-1.3,12.7-2.7,19.1-4c1.3-0.3,2.1-1.8,1.7-3c-0.4-1.3-1.7-2-3-1.7c-6.4,1.3-12.7,2.7-19.1,4
					c-1.3,0.3-2.1,1.8-1.7,3C211.9,220,213.3,220.7,214.6,220.4L214.6,220.4z"/>
			</g>
		</g>
		<g>
			<g>
				<path d="M215.4,213.5c6.2-0.6,12.5-1.3,18.7-1.9c1.3-0.1,2.5-1,2.5-2.5c0-1.2-1.1-2.6-2.5-2.5c-6.2,0.6-12.5,1.3-18.7,1.9
					c-1.3,0.1-2.5,1-2.5,2.5C212.9,212.2,214.1,213.6,215.4,213.5L215.4,213.5z"/>
			</g>
		</g>
		<g>
			<g>
				<path d="M245.7,176.7c0,0.1,0,0.1,0,0.2c0.1-0.4,0.2-0.8,0.3-1.2c0,0,0,0.1-0.1,0.1c0.3-0.3,0.6-0.6,0.9-0.9c0,0-0.1,0-0.1,0.1
					c0.4-0.1,0.8-0.2,1.2-0.3c0.7,0.1,1.2,0.5,1.5,1.2c0,0.4,0,0.9,0,1.3c-1.1,0.8-1.4,1.1-0.7,0.9c0,0-0.1,0-0.1,0
					c0.4,0.1,0.9,0,1.4,0c0.9,0,1.7,0,2.6,0c1.8,0,3.6,0,5.5,0c3.6,0,7.3,0,10.9,0c3.2,0,3.2-4.9,0-4.9c-6,0-12.1-0.1-18.1-0.1
					c-1.3,0-2.6-0.1-3.8,0.3c-1.6,0.5-2.8,2.1-2.4,3.8c0.8,3.2,5.8,3.1,5.9-0.4C250.8,173.5,245.9,173.5,245.7,176.7L245.7,176.7z"
					/>
			</g>
		</g>
		<g>
			<g>
				<path d="M248.9,171.3c7,0.1,14,0.8,20.9,2.1c1.3,0.3,2.7-0.4,3-1.7c0.3-1.2-0.4-2.8-1.7-3c-7.3-1.4-14.8-2.2-22.2-2.3
					C245.8,166.3,245.8,171.3,248.9,171.3L248.9,171.3z"/>
			</g>
		</g>
		<g>
			<g>
				<path d="M289.3,198.3c4.8-2.1,10.4-2.9,15.5-2.2c1.3,0.2,2.6-0.3,3-1.7c0.3-1.2-0.4-2.8-1.7-3c-6.6-0.9-13.2,0-19.3,2.7
					c-1.2,0.5-1.5,2.3-0.9,3.4C286.7,198.6,288.1,198.8,289.3,198.3L289.3,198.3z"/>
			</g>
		</g>
		<g>
			<g>
				<path d="M288.6,202.2c6.2-1.9,12.5-3.9,18.7-5.8c1.3-0.4,2.1-1.7,1.7-3c-0.3-1.3-1.8-2.1-3-1.7c-6.2,1.9-12.5,3.9-18.7,5.8
					c-1.3,0.4-2.1,1.7-1.7,3C285.9,201.8,287.3,202.6,288.6,202.2L288.6,202.2z"/>
			</g>
		</g>
		<g>
			<g>
				<path d="M185.1,303.1c5.2,2,11.1,2.1,16.3,0.1c1.2-0.4,2.2-1.7,1.7-3c-0.4-1.2-1.7-2.2-3-1.7c-1.2,0.4-2.3,0.8-3.6,1
					c-0.2,0-0.3,0.1-0.5,0.1c-0.3,0-0.3,0.1-0.1,0c-0.3,0-0.5,0.1-0.8,0.1c-0.6,0-1.2,0.1-1.8,0.1c-0.6,0-1.2,0-1.8-0.1
					c0,0-0.8-0.1-0.4,0c-0.3,0-0.7-0.1-1-0.2c-1.2-0.2-2.4-0.6-3.5-1.1c-1.2-0.5-2.8,0.5-3,1.7C183,301.5,183.8,302.6,185.1,303.1
					L185.1,303.1z"/>
			</g>
		</g>
		<g>
			<g>
				<path d="M185.8,351.4c2-1.6,4.7-3.3,7.3-4.4c2.4-1.1,5.3-2,8.1-2.6c1.3-0.3,2.1-1.8,1.7-3c-0.4-1.4-1.7-2-3-1.7
					c-6.5,1.3-12.4,4.2-17.6,8.3c-1,0.8-0.9,2.6,0,3.5C183.4,352.4,184.8,352.2,185.8,351.4L185.8,351.4z"/>
			</g>
		</g>
		<g>
			<g>
				<path d="M187.8,369.5c5-3.5,11.7-4.3,17.2-1.7c1.2,0.6,2.7,0.3,3.4-0.9c0.6-1.1,0.3-2.8-0.9-3.4c-7.1-3.3-15.7-2.8-22.2,1.7
					c-1.1,0.8-1.6,2.2-0.9,3.4C185.1,369.7,186.7,370.2,187.8,369.5L187.8,369.5z"/>
			</g>
		</g>
		<g>
			<g>
				<path d="M186.8,434.6c8.1-6.6,16.2-13.3,24.4-19.9c4-3.3,8-6.5,12-9.8c3.7-3,7.4-6.2,11.3-9c15-10.5,34-10,50.7-3.9
					c9.8,3.5,18.8,8.8,27.4,14.5c2.7,1.7,5.1-2.5,2.5-4.3c-15.7-10.3-33.4-19.4-52.7-19.5c-9.2-0.1-18.6,1.9-26.6,6.5
					c-4.3,2.4-8.1,5.6-11.9,8.7c-4.1,3.4-8.3,6.7-12.4,10.1c-9.4,7.7-18.8,15.4-28.2,23c-1,0.8-0.9,2.6,0,3.5
					C184.3,435.6,185.7,435.4,186.8,434.6L186.8,434.6z"/>
			</g>
		</g>
	</g>
	<text transform="matrix(1 0 0 1 192.4321 919.1025)"><tspan x="0" y="0" style="&st1; &st2;">Gibón de </tspan><tspan x="-53.7" y="49.7" style="&st1; &st2;">manos blancas</tspan></text>
</g>
<g>
	<g>
		<path style="&st3;" d="M715.3,757.5c0,0-3.2-7.1-3.4-13.1c-0.2-6,1.5-22.5,2.2-27.5c0.7-5,2-17.5,1.5-20.9
			c-0.5-3.4-6.4-23.2-8-26.7c-1.5-3.5-9.1-20.4-9.8-26.5c-0.7-6.1,2.4-23.4,4.4-28.3c2-4.9,5.7-15.9,5.7-20.7s-6.9-35.6-6.9-35.6
			s-6.9-31.5-8.5-48.9c-1.6-17.4-5.1-47-3.5-56.9s7.9-19.3,7.9-19.3s-3.1-4.2-3.2-6.1c-0.1-1.9-0.8-38.2-0.8-50.9
			c0-12.7-1-39.6,0-49.4s3.7-64.4,4.3-72.5c0.6-8.1,5-56.8,5-56.8s9.1-4.1,15.5,2.7c6.4,6.8,9.8,6.8,11.1,17.8
			c1.3,11.1,5.8,73.4,5.8,73.4s1.2-48.8,1.3-57.8s1.4-48.5,6.9-67.6s11.1-30,15.3-29.1c4.2,0.9,9,2.3,11.3,9.7
			c2.3,7.5,10.8,82.5,11.6,92.8c0.8,10.3,2.3,18.4,2.3,18.4s5.7-34.9,5.3-41.7c-0.4-6.8,3.8-43.2,4.6-52.8s6.5-26.8,9.3-28.2
			c2.8-1.4,11.5-3.9,14,0.7c2.5,4.6,11.1,82.2,11.4,87.5c0.4,5.3,3.4,33.6,3.4,33.6s2.8-35.3,2.9-38.9s-1.2-29.3,6.4-36.1
			c7.6-6.8,15.2-10.7,19.6-8.2c4.5,2.4,11.1,6.2,11.9,17.8c0.8,11.6-0.9,215.8-0.9,215.8l-0.8,105.2c0,0,24.3-23.6,29-25.6
			c4.8-2,10.5-3,13-1.4c2.5,1.5,7.9,8.1,8,13.6s-2.3,20.6-5.2,27.8c-2.9,7.1-18.3,40.6-19.6,43.4c-1.3,2.8-12.7,27.5-15.3,33.1
			s-9.8,24.6-9.8,24.6s-0.9,26.4-1.2,33.1c-0.2,6.7-1.5,42.6-0.3,52.5c1.2,9.9,6.7,31,6.7,31v3.6c0,0-16.3,5.1-19.6,4.4
			s-56,1.7-73,2.6C766.4,755.8,715.3,757.5,715.3,757.5z"/>
		<g>
			<g>
				<path d="M694.9,428.2c-6.4,8.2-8.4,18.3-8.6,28.5c-0.2,11.3,1.1,22.8,2,34.1c2,24.7,5,49.3,11.7,73.2
					c3.2,11.4,7.1,23.5,4.7,35.4c-2.2,10.8-8.7,20.2-10,31.3c-2.3,20.5,12.3,37.9,16.9,57c5.1,21.2-6.2,42.5-1.1,63.7
					c0.6,2.5,1.5,5,2.6,7.4c0.6,1.2,2.3,1.5,3.4,0.9c1.3-0.7,1.4-2.2,0.9-3.4c-4.3-9.5-3.5-20.2-2.2-30.3
					c1.4-10.5,3.6-21.2,2.5-31.8c-1-10.1-5-19.4-9.1-28.6c-3.9-8.7-8.2-17.8-9-27.4c-0.4-5.1,0.2-10.1,1.9-15
					c1.7-5.2,4.1-10,5.9-15.1c1.9-5.4,3-10.9,3-16.6c-0.1-5.9-1.2-11.8-2.6-17.6c-1.4-5.8-3.2-11.6-4.7-17.4
					c-1.5-5.9-2.8-11.8-3.9-17.8c-2.2-12-3.7-24-4.9-36.1c-1.1-11.8-2.1-23.7-2.8-35.5c-0.6-9.7-0.8-20.1,3.2-29.1
					c1-2.2,2.2-4.3,3.6-6.2c0.8-1.1,1-2.5,0-3.5C697.5,427.4,695.7,427.2,694.9,428.2L694.9,428.2z"/>
			</g>
		</g>
		<g>
			<g>
				<path d="M696.3,430.4c-1-30.4-1.2-60.8-0.5-91.2c0.6-30.4,2.1-60.8,4.4-91.1c1.3-17,2.8-33.9,4.6-50.8c-0.6,0.8-1.2,1.6-1.8,2.4
					c4.8-1.8,9.8-0.3,13.9,2.6c4.6,3.3,7.2,8.4,8.7,13.7c1.7,6,2.1,12.1,2.6,18.3c0.6,7.3,1.2,14.5,1.7,21.8
					c2.2,28.9,3.8,57.9,5,86.8c0.7,16.2,1.2,32.5,1.6,48.7c0.1,3.2,5,3.2,4.9,0c-0.7-29.9-1.9-59.8-3.6-89.7
					c-0.9-15-1.8-29.9-2.9-44.9c-0.6-7.4-1.1-14.9-1.7-22.3c-0.5-6.6-1-13.3-2.7-19.7c-1.8-6.6-5.2-12.7-10.8-16.8
					c-5.1-3.7-11.9-5.5-18-3.3c-1.1,0.4-1.7,1.2-1.8,2.4c-3.2,30.2-5.6,60.6-7.1,90.9c-1.6,30.4-2.3,60.8-2.2,91.2
					c0,17,0.3,34,0.9,51C691.4,433.6,696.4,433.6,696.3,430.4L696.3,430.4z"/>
			</g>
		</g>
		<g>
			<g>
				<path d="M787.8,370c0.2-17.9,0.1-35.9-0.3-53.8c-0.4-17.9-1.2-35.9-2.3-53.8c-1.1-17.8-2.5-35.6-4.3-53.4
					c-1.8-17.9-3.9-35.8-6.4-53.6c-0.8-6-3-12.2-7-16.8c-1.7-2-4.1-3.7-6.8-4.2c-3.2-0.6-6.4,0.3-8.9,2.3c-2.6,2.1-4.2,5.2-5.4,8.2
					c-1.4,3.6-2.5,7.3-3.5,11.1c-2.3,8-4,16.1-5.4,24.2c-2.7,16.3-3.8,32.9-3.9,49.4c-0.1,16.7,0.7,33.3,1.7,49.9
					c1.1,16.8,2.3,33.7,3.1,50.5c0.8,16.8,1.1,33.6,0.3,50.3c-0.2,4.1-0.5,8.1-0.9,12.2c-0.1,1.3,1.2,2.5,2.5,2.5
					c1.4,0,2.3-1.1,2.5-2.5c1.4-16.3,1.6-32.7,1.1-49c-0.5-16.5-1.6-32.9-2.7-49.3c-1.1-16.4-2.2-32.7-2.6-49.1
					c-0.4-16.2-0.1-32.4,1.6-48.4c1.7-16,4.8-31.9,9.8-47.2c0.9-2.8,1.9-5.8,3.9-8c0.9-1,1.9-1.7,3.2-2.1c1-0.3,1.9-0.3,2.8-0.1
					c0.9,0.2,1.8,0.7,2.5,1.3c0.9,0.8,1.8,1.7,2.4,2.6c1.6,2.3,2.7,4.9,3.6,7.6c1,3.2,1.4,6.5,1.8,9.8c0.6,4.3,1.1,8.6,1.7,13
					c1.1,8.7,2.1,17.4,3,26.1c1.8,17.4,3.4,34.9,4.6,52.4c1.2,17.5,2.1,35,2.7,52.5c0.6,17.5,0.8,35,0.7,52.6
					c0,4.3-0.1,8.6-0.1,12.9C782.8,373.2,787.7,373.2,787.8,370L787.8,370z"/>
			</g>
		</g>
		<g>
			<g>
				<path d="M828.6,376.4c-0.3-0.1-0.5-0.1-0.8-0.2c-0.3-0.3-0.6-0.6-0.9-0.9c-0.3-0.4-0.1-0.8-0.1-1.2c0-0.6,0.2-0.4,0-0.2
					c0.3-0.4,0.6-0.4,1.2-0.3c0.2,0,0.4,0.1,0.6,0.1c0.2,0.2,0.3,0.4,0.5,0.5c0,0,0,0,0,0c0,0,0.3-0.7,0.3-0.7
					c0.9-1.3,2.3-2.2,3-3.6c0.9-1.9,0.7-4.4,0.7-6.5c0.1-2.1,0.1-4.3,0.2-6.4c0.2-8.6,0.4-17.3,0.5-25.9c0.2-17.2,0-34.4-0.5-51.6
					c-0.5-17.2-1.3-34.4-2.5-51.5c-1.2-17.2-2.7-34.5-4.5-51.6c-0.9-8.6-1.9-17.2-3-25.7c-0.8-6.6-1.1-15.1-7.5-18.9
					c-5.6-3.4-13.1-1-17.4,3.5c-5.2,5.4-6.2,13.3-7,20.4c-2.1,17.1-3.9,34.3-5.4,51.5c-1.5,17.3-2.8,34.6-3.7,51.9
					c-1,17.2-1.6,34.5-2,51.7c-0.4,17.3-0.5,34.7-0.3,52c0,4.2,0.1,8.4,0.2,12.6c0.1,3.2,5,3.2,4.9,0c-0.3-17.5-0.3-35-0.1-52.5
					c0.3-17.4,0.8-34.8,1.6-52.2c0.8-17.5,2-34.9,3.4-52.4c1.4-17.4,3.1-34.7,5.1-52c0.5-4.2,0.9-8.4,1.5-12.7
					c0.5-3.4,1-6.9,2.4-10.1c1.2-2.9,3.1-5.4,5.8-6.9c2.3-1.3,5.1-1.9,7.5-1c2.7,1,4,3.7,4.7,6.3c1,3.6,1.2,7.4,1.7,11
					c1.1,8.7,2.1,17.3,3,26c1.8,17.3,3.3,34.6,4.4,51.9c1.1,17.4,1.9,34.8,2.4,52.3c0.5,17.4,0.6,34.9,0.4,52.3
					c-0.1,8.6-0.3,17.3-0.6,25.9c0,1.1-0.1,2.1-0.1,3.2c0,1,0.2,2.3-0.1,3.2c-0.2,0.5-0.7,0.9-1.1,1.3c-0.6,0.6-1.2,1.2-1.7,2
					c-1,1.6-1.5,3.7-0.6,5.5c0.8,1.5,2.5,2.3,4.2,1.8c1.5-0.5,2.7-2,2.8-3.6c0.1-1.9-1.3-3-3.1-3.2c-1.3-0.2-2.5,1.3-2.5,2.5
					C826.1,375.4,827.3,376.2,828.6,376.4L828.6,376.4z"/>
			</g>
		</g>
		<g>
			<g>
				<path d="M817.7,629.3c-4.3-12.3-4.1-25.5-1-38c3.2-12.9,9.5-24.8,17.3-35.5c7.9-10.9,17.4-20.7,26.9-30.1
					c5.2-5.1,10.4-10.1,15.6-15.2c5.4-5.2,10.7-10.5,16.1-15.6c4.1-3.8,9.5-8.4,15.5-8.2c5.2,0.2,8.2,4.7,9.3,9.3
					c1.4,5.7,0.5,11.8-0.7,17.4c-1.5,6.8-4.1,13.4-6.9,19.8c-6.1,13.8-12.6,27.5-18.9,41.2c-6.5,14-12.9,28.1-19.4,42.1
					s-12.9,28.1-19.4,42.1c-5.9,12.7-12.2,26.2-12.1,40.5c0,3.5,0.5,7,1.4,10.4c0.8,3.1,5.6,1.8,4.8-1.3
					c-3.7-14.1,1.8-28.4,7.5-41.1c6.4-14.4,13.2-28.6,19.8-42.9c13.2-28.6,26.6-57,39.5-85.7c3-6.6,5.8-13.3,7.7-20.2
					c1.8-6.3,3.1-13.2,2.3-19.8c-0.7-5.5-2.7-11.1-7.5-14.4c-5.6-3.8-12.7-2.3-18.1,1c-6.1,3.7-11,9.1-16,14
					c-5.7,5.5-11.3,11-17,16.5c-10,9.7-20,19.4-28.8,30.3c-8.7,10.8-16.2,22.5-20.9,35.6c-4.6,12.7-6.4,26.5-4.1,39.8
					c0.6,3.2,1.4,6.3,2.4,9.3c0.4,1.3,1.7,2.1,3,1.7C817.2,632,818.2,630.6,817.7,629.3L817.7,629.3z"/>
			</g>
		</g>
		<g>
			<g>
				<path d="M834.9,375.3c-0.4-38.1-0.2-76.2,0.6-114.3c0.4-18.8,0.8-37.6,1.8-56.4c0.4-7.6,1.2-16.3,6.2-22.5
					c4.1-5,11.2-8.8,17.6-5.7c5.2,2.6,7.4,8.4,8.5,13.8c1.4,7.1,1,14.4,0.9,21.5c-0.2,19.2-0.3,38.4-0.5,57.5
					c-0.3,38.1-0.6,76.3-0.9,114.4s-0.6,76.3-0.9,114.4c0,4.7-0.1,9.5-0.1,14.2c0,3.2,4.9,3.2,4.9,0c0.3-39.3,0.6-78.5,0.9-117.8
					s0.6-78.5,0.9-117.8c0.2-19.6,0.3-39.3,0.5-58.9c0.1-8.1,0.6-16.4-0.4-24.5c-0.8-6.3-2.4-12.9-6.8-17.7c-4.7-5-12-6.5-18.3-4.1
					c-7.5,2.9-12.5,9.3-15,16.8c-2.7,8.3-2.5,17.3-2.8,25.8c-0.4,9.9-0.7,19.8-0.9,29.7c-1.1,39.1-1.5,78.2-1.2,117.3
					c0,4.7,0.1,9.4,0.1,14.2C830,378.5,834.9,378.5,834.9,375.3L834.9,375.3z"/>
			</g>
		</g>
		<g>
			<g>
				<path d="M868.2,627.8c-0.6,16.2-1.1,32.4-1.7,48.6c-0.5,14.8-0.9,29.7,1.1,44.5c1.1,8.2,3,16.3,6,24.1c0.5,1.2,1.7,2.1,3,1.7
					c1.2-0.3,2.2-1.8,1.7-3c-5.3-13.7-7-28.4-7.3-43c-0.3-15.2,0.6-30.4,1.1-45.6c0.3-9.1,0.6-18.2,1-27.3
					C873.2,624.6,868.3,624.6,868.2,627.8L868.2,627.8z"/>
			</g>
		</g>
		<g>
			<g>
				<path d="M717.3,759.3c21.6-0.8,43.1-1.6,64.7-2.3c10.8-0.4,21.6-0.8,32.4-1.2c10.7-0.4,21.4-0.6,32.1-1.2
					c5.8-0.3,11.6-1,17.4-2.1c5.7-1.1,11.4-2.4,17.2-2c1.3,0.1,2.5-1.2,2.5-2.5c0-1.4-1.1-2.4-2.5-2.5c-5.2-0.4-10.4,0.5-15.5,1.5
					c-5.1,1-10.1,1.9-15.3,2.3c-10.6,0.8-21.3,0.9-32,1.3c-21.6,0.8-43.1,1.6-64.7,2.3c-12.1,0.4-24.2,0.9-36.3,1.3
					C714.1,754.5,714.1,759.4,717.3,759.3L717.3,759.3z"/>
			</g>
		</g>
		<g>
			<g>
				<path d="M711,502.7c19.7,6.6,37.9-7.6,53.7-17.4c7.8-4.8,16.4-9.3,25.8-9.8c10.5-0.6,20.5,3.4,30.8,4.7
					c9.6,1.2,20.2,0.2,27.5-6.8c2.3-2.2-1.2-5.7-3.5-3.5c-5.9,5.7-14.7,6.4-22.5,5.6c-10-1-19.6-4.8-29.7-4.9
					c-19.8-0.3-34.4,14.5-51,23c-9.1,4.7-19.7,7.9-29.7,4.5C709.3,497,708,501.7,711,502.7L711,502.7z"/>
			</g>
		</g>
		<g>
			<g>
				<path d="M780.5,393.4c-6.5,17-6.5,36.4-0.5,53.6c1.7,4.8,3.9,9.5,6.5,13.9c1.6,2.7,5.9,0.2,4.3-2.5
					c-8.8-14.7-12.2-32.6-9.4-49.5c0.8-4.9,2.1-9.6,3.8-14.2c0.5-1.2-0.5-2.7-1.7-3C782.1,391.3,781,392.2,780.5,393.4L780.5,393.4z
					"/>
			</g>
		</g>
		<g>
			<g>
				<path d="M812.9,400.2c-3.9,11.1-6.5,22.7-7.8,34.4c-0.6,5.6-1,11.2-0.8,16.8c0.1,4.4,0.6,9,2,13.2c1.6,4.8,4.4,9,8.8,11.7
					c0-1.4,0-2.8,0-4.3c-11.3,4.9-15.6,17.8-18.2,28.8c-3.5,14.6-6.4,29.8-6,44.9c0.3,8.5,1.6,16.9,4.4,25c0.4,1.3,1.7,2.1,3,1.7
					c1.2-0.3,2.2-1.8,1.7-3c-4.8-13.6-5-28.1-3.3-42.3c0.9-7.2,2.4-14.4,4-21.5c1.3-5.6,2.6-11.2,5-16.5c2.5-5.5,6.1-10.4,11.8-12.9
					c1.8-0.8,1.4-3.4,0-4.3c-6.7-4.2-8.1-13.1-8.4-20.5c-0.3-10.7,1-21.5,3.3-31.9c1.3-6.2,3.1-12.2,5.2-18.1c0.4-1.3-0.5-2.7-1.7-3
					C814.5,398.1,813.3,399,812.9,400.2L812.9,400.2z"/>
			</g>
		</g>
		<g>
			<g>
				<path d="M712.5,595c11.7,1.9,23.3,3.7,35,5.6c4.8,0.8,9.7,1.3,14.4,2.7c3.7,1.1,7.5,2.9,9.6,6.3c1.2,2,2,4.3,3,6.4
					c1.1,2.4,2.5,4.4,4.6,6c1.1,0.8,2.8,0.2,3.4-0.9c0.7-1.3,0.2-2.6-0.9-3.4c-1.5-1.1-2.3-3-3-4.7c-0.9-2-1.6-4-2.7-5.8
					c-2.4-4-6.3-6.5-10.5-8c-4.4-1.6-9.1-2.2-13.8-3c-5.9-0.9-11.7-1.9-17.6-2.8c-6.7-1.1-13.4-2.1-20.1-3.2c-1.3-0.2-2.7,0.3-3,1.7
					C710.4,593.2,711.1,594.8,712.5,595L712.5,595z"/>
			</g>
		</g>
		<g>
			<g>
				<path d="M716.9,683.5c10.5,2.6,21.1,5.2,31.6,7.7c5.1,1.2,10.2,2,15.5,1.3c4.7-0.6,9.1-2.3,13.3-4.4c4.7-2.4,9.1-5.4,13.5-8.4
					c1.1-0.8,1.6-2.2,0.9-3.4c-0.6-1.1-2.3-1.6-3.4-0.9c-7.3,5-14.9,10.4-23.8,12.1c-4.6,0.9-9.2,0.3-13.8-0.7
					c-5.1-1.2-10.2-2.5-15.3-3.7c-5.8-1.4-11.5-2.8-17.3-4.2C715.1,678,713.8,682.7,716.9,683.5L716.9,683.5z"/>
			</g>
		</g>
		<g>
			<g>
				<path d="M739.9,498.9c-0.4,14.5,2.1,29.1,7.3,42.7c0.5,1.2,1.7,2.1,3,1.7c1.2-0.3,2.2-1.8,1.7-3c-5.1-13.2-7.5-27.2-7.1-41.4
					C744.9,495.7,739.9,495.7,739.9,498.9L739.9,498.9z"/>
			</g>
		</g>
		<g>
			<g>
				<path d="M769.5,484.3c5.9,14.5,7.8,30.6,5.1,46c-0.2,1.3,0.4,2.7,1.7,3c1.2,0.3,2.8-0.4,3-1.7c2.9-16.3,1.2-33.3-5.1-48.7
					c-0.5-1.2-1.6-2.1-3-1.7C770.1,481.6,769,483.1,769.5,484.3L769.5,484.3z"/>
			</g>
		</g>
		<g>
			<g>
				<path d="M706.6,393.7c6-10.9,16.5-18.8,28.6-21.8c3.1-0.8,1.8-5.5-1.3-4.8c-13.2,3.2-24.9,12.1-31.5,24
					C700.8,394,705,396.5,706.6,393.7L706.6,393.7z"/>
			</g>
		</g>
		<g>
			<g>
				<path d="M719.3,398.1c4.1-6.6,10.1-11.8,17.3-15.1c1.2-0.5,1.5-2.3,0.9-3.4c-0.7-1.2-2.2-1.4-3.4-0.9
					c-7.9,3.6-14.5,9.5-19.1,16.8c-0.7,1.1-0.2,2.7,0.9,3.4C717.1,399.7,718.6,399.2,719.3,398.1L719.3,398.1z"/>
			</g>
		</g>
		<g>
			<g>
				<path d="M753.1,342.2c7.8-3.6,16.7-4.8,25.1-3.3c1.3,0.2,2.7-0.4,3-1.7c0.3-1.2-0.4-2.8-1.7-3c-9.8-1.7-19.8-0.4-28.9,3.8
					c-1.2,0.6-1.5,2.3-0.9,3.4C750.5,342.6,751.9,342.8,753.1,342.2L753.1,342.2z"/>
			</g>
		</g>
		<g>
			<g>
				<path d="M796.9,350.5c5.2-1.9,10.9-2.5,16.4-1.6c1.3,0.2,2.7-0.3,3-1.7c0.3-1.2-0.4-2.8-1.7-3c-6.4-1-12.9-0.5-19,1.6
					c-1.3,0.4-2.1,1.7-1.7,3C794.2,350,795.6,351,796.9,350.5L796.9,350.5z"/>
			</g>
		</g>
		<g>
			<g>
				<path d="M795.6,338.5c6.7-1.8,13.6-1.8,20.3,0c3.1,0.8,4.4-4,1.3-4.8c-7.5-1.9-15.4-1.9-22.9,0
					C791.2,334.6,792.5,339.3,795.6,338.5L795.6,338.5z"/>
			</g>
		</g>
		<g>
			<g>
				<path d="M839.3,352.9c7.2-0.2,14.2,3.9,17.4,10.5c0.6,1.2,2.3,1.5,3.4,0.9c1.2-0.7,1.5-2.2,0.9-3.4c-4-8-12.8-13.2-21.7-12.9
					C836.1,348.1,836.1,353,839.3,352.9L839.3,352.9z"/>
			</g>
		</g>
		<g>
			<g>
				<path d="M840.7,276.2c7.2,0.1,14.1,2.2,20.3,5.8c2.7,1.6,5.2-2.6,2.5-4.3c-6.9-4.1-14.8-6.3-22.8-6.5
					C837.5,271.2,837.5,276.2,840.7,276.2L840.7,276.2z"/>
			</g>
		</g>
		<g>
			<g>
				<path d="M838.8,212c5,5.3,12.1,8.3,19.3,8.2c1.3,0,2.5-1.1,2.5-2.5c0-1.3-1.1-2.5-2.5-2.5c-5.9,0-11.7-2.4-15.8-6.8
					c-0.9-1-2.6-0.9-3.5,0C837.8,209.5,837.9,211,838.8,212L838.8,212z"/>
			</g>
		</g>
		<g>
			<g>
				<path d="M800.4,187.1c8.1-0.1,16.1-0.3,24.2-0.4c3.2-0.1,3.2-5,0-4.9c-8.1,0.1-16.1,0.3-24.2,0.4
					C797.2,182.2,797.2,187.1,800.4,187.1L800.4,187.1z"/>
			</g>
		</g>
		<g>
			<g>
				<path d="M793,246.1c8.1-3.3,17.3-3.1,25.1,0.9c2.8,1.5,5.3-2.8,2.5-4.3c-8.9-4.6-19.6-5.2-28.9-1.4c-1.2,0.5-2.1,1.6-1.7,3
					C790.3,245.5,791.7,246.6,793,246.1L793,246.1z"/>
			</g>
		</g>
		<g>
			<g>
				<path d="M746.7,249.9c10.2-0.7,20.5-1.4,30.7-2.1c1.3-0.1,2.5-1.1,2.5-2.5c0-1.3-1.1-2.6-2.5-2.5c-10.2,0.7-20.5,1.4-30.7,2.1
					c-1.3,0.1-2.5,1.1-2.5,2.5C744.3,248.7,745.4,250,746.7,249.9L746.7,249.9z"/>
			</g>
		</g>
		<g>
			<g>
				<path d="M762,259.1c5.1-1.8,10.2-2.7,15.6-2.6c1.3,0,2.5-1.1,2.5-2.5c-0.1-1.3-1.1-2.4-2.5-2.5c-5.7-0.1-11.5,0.9-16.9,2.8
					c-1.3,0.4-2.1,1.7-1.7,3C759.3,258.6,760.7,259.6,762,259.1L762,259.1z"/>
			</g>
		</g>
		<g>
			<g>
				<path d="M746.6,193.5c7.3-3.8,15.8-4.8,23.8-3c3.1,0.7,4.4-4,1.3-4.8c-9.3-2.1-19.1-0.9-27.6,3.5
					C741.3,190.7,743.7,194.9,746.6,193.5L746.6,193.5z"/>
			</g>
		</g>
		<g>
			<g>
				<path d="M706.9,248.6c7.1-2.8,14.7-3.9,22.3-3.1c1.3,0.1,2.5-1.2,2.5-2.5c0-1.4-1.1-2.3-2.5-2.5c-8-0.8-16.2,0.3-23.7,3.3
					c-1.2,0.5-2.1,1.6-1.7,3C704.2,248,705.7,249,706.9,248.6L706.9,248.6z"/>
			</g>
		</g>
		<g>
			<g>
				<path d="M713.1,305.1c6.2-3,12.8-5.2,19.5-6.5c1.3-0.3,2.1-1.8,1.7-3c-0.4-1.4-1.7-2-3-1.7c-7.2,1.4-14.1,3.8-20.7,7
					c-1.2,0.6-1.5,2.3-0.9,3.4C710.4,305.4,711.9,305.6,713.1,305.1L713.1,305.1z"/>
			</g>
		</g>
		<g>
			<g>
				<path d="M719.6,310.6c5.4-5.4,12.8-8.4,20.4-8.2c3.2,0.1,3.2-4.8,0-4.9c-8.9-0.3-17.7,3.3-23.9,9.6
					C713.8,309.4,717.3,312.9,719.6,310.6L719.6,310.6z"/>
			</g>
		</g>
		<g>
			<g>
				<path d="M749.3,387.1c-5.8,9.5-7.9,20.8-6.1,31.8c0.2,1.3,1.8,2,3,1.7c1.4-0.4,1.9-1.7,1.7-3c-1.6-9.6,0.5-19.7,5.6-28
					C755.2,386.9,750.9,384.4,749.3,387.1L749.3,387.1z"/>
			</g>
		</g>
		<g>
			<g>
				<path d="M699,434.2c7.5-10.4,17.4-19,27.8-26.4c5.3-3.8,10.8-7.3,16.3-10.8c5.6-3.5,11.3-7,17.3-10c6-3,12.2-5.5,18.7-7
					c6.5-1.5,13.2-1.7,19.8-1c13.2,1.5,25.8,7.1,37.3,13.5c6.5,3.6,13,7.5,19.2,11.6c5.6,3.7,11.1,7.9,14.4,13.9
					c1.5,2.8,5.8,0.3,4.3-2.5c-3.1-5.8-8.1-10.1-13.5-13.9c-5.5-3.9-11.3-7.4-17.1-10.7c-12.2-7.1-25.2-13.5-39.2-16
					c-6.8-1.3-13.8-1.6-20.6-0.7c-7,0.9-13.7,3.1-20.1,5.9c-6.4,2.8-12.4,6.2-18.3,9.9c-5.9,3.6-11.7,7.3-17.3,11.2
					c-12.5,8.6-24.2,18.3-33.1,30.6c-0.8,1.1-0.2,2.7,0.9,3.4C696.9,435.8,698.2,435.3,699,434.2L699,434.2z"/>
			</g>
		</g>
	</g>
	<text transform="matrix(1 0 0 1 699.585 932.1768)" style="&st1; &st2;">Orangután</text>
</g>
</svg>
