<?xml version="1.0" encoding="utf-8"?>
<!-- Generator: Adobe Illustrator 25.4.0, SVG Export Plug-In . SVG Version: 6.00 Build 0)  -->
<!DOCTYPE svg PUBLIC "-//W3C//DTD SVG 1.1//EN" "http://www.w3.org/Graphics/SVG/1.1/DTD/svg11.dtd" [
	<!ENTITY st0 "fill:#B3B3B3;">
	<!ENTITY st1 "font-family:'Roboto-Regular';">
	<!ENTITY st2 "font-size:41.4443px;">
]>
<svg version="1.1" id="Capa_1" xmlns="http://www.w3.org/2000/svg" xmlns:xlink="http://www.w3.org/1999/xlink" x="0px" y="0px"
	 viewBox="0 0 519.3 1080" style="enable-background:new 0 0 519.3 1080;" xml:space="preserve">
<g>
	<g>
		<path style="&st0;" d="M138.5,755c0,0,0-26.4-0.7-33.4c-0.7-7-5.4-34.8-5.4-34.8l-3.7-7.6c0,0-10.1-20.4-10.9-25s-1.1-25.9,1-32.2
			c2.1-6.3,5.5-14.4,5.5-14.4s0.6,3.9,0-10.5c-0.6-14.4-2-45.8-2-45.8l0.6-4.1l-3.5-3.5c0,0-2.5-9.3-2.6-13.5
			c-0.1-4.2-0.4-28.7-0.4-28.7l-0.5-10.2c0,0,2.2-27.4,4.4-32.6c2.3-5.1,2.3-5.1,2.3-5.1s-12.2-79.1-12.1-95.3
			c0.1-16.2,1.2-70.5,1.2-70.5s-3.2-40.8,2.6-43.4s8.1-4.5,12.3-1.4s21.7,24.7,21.5,50.6s-5.7,68.7-3,76.4
			c2.7,7.8,8.1,37.8,9.3,41.1c1.3,3.3,6.1-40.4,6.5-47c0.4-6.5,2.2-91.6,2.2-91.6v-69.5c0,0-0.2-29.4,5.1-30.4
			c5.3-1,21.4,2.4,24.1,24.4c2.7,22,6.2,71,6.8,79.6s4.7,67.3,4.7,67.3s4.3-14,4.5-17.8c0.2-3.8,2-49.5,2-49.5s0.3-61.1,0-73.6
			s-0.3-40.5,2.5-50.7s4.8-15.5,4.8-15.5l15.2,3.6c0,0,13.5,12.2,15.4,21.8c1.9,9.6,3.5,52.8,3.7,59.6s5,88.4,2.5,102.5
			c-2.5,14.1,0.7,39.7,0.7,39.7s5.1-11.8,5.9-20.2c0.8-8.4,2.5-44.3,2.6-53.5s-1.9-47.5,0-58.2c1.9-10.7,3.8-42.1,12.6-43.1
			c8.7-1,16.1-5.5,21.4,8.9c5.3,14.4,19.3,109.8,19.8,126.3c0.5,16.5,0.6,80.4,0.5,89.4c-0.1,9-1.6,65.3,0,82.1s4.4,50.1,4.4,50.1
			s13.9-7.5,19-12.3c5.1-4.8,12.4-12.9,17.7-24.1s12.2-29.9,24.5-30.3c12.2-0.4,19,1.1,21.6,7.1s6.1,20.6,1,32.7
			c-5.1,12.1-24.3,44.5-30.5,55.2c-6.2,10.7-14.2,25.7-16.5,34.2c-2.3,8.5-6.7,41.2-12.1,50.2c-5.4,9-11.3,15.2-11.3,15.2
			s-0.7,25.5,0.3,35.1c1,9.6,10.9,44.6,10.9,44.6l0.1,5.3c0,0-8.6-4.2-18.3-2.6c-9.7,1.6-43.3,4.1-58.8,4.7s-23.3,1.9-41.1,0
			s-25.6-5.1-33.4-4.7c-7.8,0.4-28.8,1.6-32,1.4c-3.2-0.2-14.7-2.6-19.7-2.7C138.5,755,138.5,755,138.5,755z"/>
		<g>
			<g>
				<path d="M114.1,452.9c-0.8-28.9-1.1-57.8-1.1-86.8c0.1-28.9,0.5-57.9,1.4-86.8c0.2-7.2,0.5-14.5,0.7-21.7
					c0.2-4.3-0.3-12.5,5.4-13.7c4.6-1,9.3,3.9,11.7,7.3c3.2,4.6,5.3,10.2,7.1,15.4c7.5,22.3,6.6,46.4,5.9,69.6
					c-0.7,23.5-1.6,47.6,5.3,70.4c0.8,2.8,1.8,5.6,2.9,8.3c0.8,2,4.4,2.7,4.8,0c4.4-30.1,6.3-60.6,7-91c0.7-30.6,0.4-61.1,0.7-91.7
					c0.2-15.3,0.5-30.6,1.2-45.8c0.1-3.1-0.3-13.3,5.1-12.8c2.7,0.3,5.3,3.1,7.1,5c1.9,2,3.5,4.2,4.9,6.6c5.8,10,7.5,21.9,8.5,33.2
					c1.3,14.6,2.1,29.3,3.1,44c2.2,30.9,4.3,61.8,6.5,92.8c0.3,3.9,0.5,7.7,0.8,11.6c0.2,3.2,4.7,3.2,4.9,0
					c2.6-30.8,4.2-61.7,4.9-92.7c0.3-15.5,0.5-30.9,0.3-46.4c-0.1-14.7-0.8-29.4-0.7-44c0-15.7,1.4-31.6,7.5-46.3
					c-0.8,0.6-1.6,1.2-2.4,1.8c14.1-1.7,24.5,10.8,28.1,23.2c2.2,7.5,2.6,15.3,2.8,23.1c0.3,8.5,0.4,17.1,0.6,25.7
					c0.9,34.9,1.7,69.7,2.6,104.6c0.5,19.7,1,39.4,1.4,59.1c0.1,2.7,4.2,3.4,4.8,0.7c8.8-36.1,7.8-73.4,8.2-110.2
					c0.2-18.5,0.7-37,2.9-55.3c0.7-6.1,1.6-14.5,7.3-18.2c6.4-4.2,14.5,0.6,18.2,6.2c4.6,7,6.1,16,7.9,24c2,8.9,3.8,17.9,5.3,26.9
					c3,18.3,4.9,36.7,6,55.2c2.3,36.9,1.8,74,1.5,111c-0.3,37-0.6,74.2,2.6,111.2c0.4,4.6,1,9.2,1.9,13.7c0.7,3.1,5.4,1.8,4.8-1.3
					c-2-9.4-2.4-19.2-2.9-28.8c-0.6-9.6-0.9-19.1-1.2-28.7c-0.5-18.9-0.5-37.9-0.3-56.8c0.3-38.2,1-76.4-1.1-114.5
					c-1-18.8-2.8-37.6-5.6-56.2c-1.4-9.3-3.1-18.5-5-27.7c-1.9-8.6-3.5-17.6-7.1-25.8c-3.1-7.1-8.8-13.2-16.7-14.6
					c-7.4-1.2-13.8,2.7-16.9,9.4c-3.3,7.2-3.7,15.6-4.4,23.4c-0.9,9.5-1.4,19-1.7,28.6c-1.1,37.8,1.3,76.1-5.4,113.5
					c-0.8,4.6-1.8,9.2-2.9,13.8c1.6,0.2,3.2,0.4,4.8,0.7c-0.9-36.2-1.8-72.4-2.7-108.6c-0.4-18.1-0.9-36.2-1.3-54.3
					c-0.2-8.8-0.4-17.6-0.7-26.5c-0.2-8-0.7-16-2.8-23.8c-4-14.5-16.5-29.4-33-27.4c-1.2,0.1-1.9,0.7-2.4,1.8
					c-5.4,13-7.2,27.1-7.6,41c-0.4,14.6,0.4,29.2,0.6,43.8c0.4,31.1-0.2,62.2-1.7,93.2c-0.9,17.6-2,35.1-3.5,52.7c1.6,0,3.3,0,4.9,0
					c-2.2-32-4.5-64-6.7-96c-1.1-16-2.2-31.9-3.4-47.9c-0.9-12-2.2-24.2-7.1-35.3c-2.3-5.3-5.6-10.2-9.8-14.2
					c-4.1-3.8-10.6-7.3-15.2-2.1c-3.9,4.5-3.5,11.4-3.8,17c-0.3,7.9-0.6,15.8-0.8,23.7c-0.7,31.8-0.3,63.5-0.8,95.3
					c-0.4,31.5-1.6,63.1-5.5,94.4c-0.5,4-1,7.9-1.6,11.9c1.6,0,3.2,0,4.8,0c-9.2-23.1-8.8-48.2-8.1-72.7c0.7-24.3,2.1-49.3-5-72.9
					c-1.7-5.7-4-11.4-6.8-16.6c-2.5-4.7-6.5-9.1-11.4-11.3c-4.9-2.2-10.3-1.2-13.5,3.3c-3.5,4.8-2.9,11.8-3.1,17.4
					c-1.1,30.1-1.7,60.2-1.9,90.4s0,60.3,0.7,90.4c0.1,3.7,0.2,7.5,0.3,11.2C109.2,456,114.2,456,114.1,452.9L114.1,452.9z"/>
			</g>
		</g>
		<g>
			<g>
				<path d="M262.3,614c-4.1-16.3,6.3-31.3,18.1-41.4c12.6-10.9,28.5-16.8,43.1-24.6c7.2-3.8,14.1-8,20.3-13.3
					c6.6-5.6,11.6-12.4,15.5-20.2c4-8.1,7-17.2,12.9-24.1c4.8-5.7,12.2-10.9,20.1-9.8c6.2,0.9,10.6,5.5,12.5,11.1
					c2.1,6.1,2,12.9,0.9,19.2c-1.4,7.7-4.8,15.1-8.3,22c-3.9,7.8-8.4,15.3-13.1,22.7c-9.2,14.7-18.9,29.3-25.3,45.6
					c-3.1,7.9-5,16.1-6.5,24.4c-1.4,8.1-2.6,16.2-4.9,24.1c-2.2,7.4-5.5,14.6-11.1,20.1c-6.3,6.3-14.7,9.7-23,12.7
					c-9.1,3.3-18.8,7.1-28.7,6.7c-8.9-0.3-17.3-4.2-26.2-4.1c-4.2,0-8.3,1-11.7,3.4c-1.1,0.8-1.6,2.2-0.9,3.4
					c0.6,1.1,2.3,1.7,3.4,0.9c7.3-5.1,16.6-2,24.5-0.3c4.7,1,9.5,1.9,14.4,1.6c5.2-0.3,10.4-1.5,15.4-3.1c9-2.8,18.4-5.8,26.7-10.6
					c7.6-4.4,13.8-10.7,17.7-18.6c7.6-15.2,7.6-32.7,12.1-48.9c4.7-17.1,14.1-32.4,23.5-47.2c9.4-14.9,19.4-30.1,24.9-47
					c2.2-6.7,3.1-14.1,2.3-21.1c-0.8-6.6-3.2-13.4-8.6-17.7c-6.6-5.2-15.3-5.3-22.7-1.7c-8.4,4-14,11.6-18.1,19.7
					c-4.2,8.3-7.3,17.3-13.1,24.8c-5,6.4-11.4,11.5-18.2,15.8c-7.1,4.4-14.6,8.1-22.2,11.8c-7.6,3.7-15.4,7.4-22.4,12.1
					c-13.9,9.4-27.3,23.4-29.2,40.9c-0.4,4.1-0.1,8.2,0.9,12.1C258.3,618.4,263.1,617.1,262.3,614L262.3,614z"/>
			</g>
		</g>
		<g>
			<g>
				<path d="M335.8,672.3c-4.3,21.5-3.5,44.1,2.5,65.2c1.7,6,3.8,11.8,6.3,17.5c0.5,1.2,2.3,1.5,3.4,0.9c1.3-0.7,1.4-2.1,0.9-3.4
					c-8.3-19.2-11.9-40.4-10.6-61.3c0.4-5.9,1.1-11.8,2.3-17.5c0.3-1.3-0.4-2.7-1.7-3C337.6,670.2,336,671,335.8,672.3L335.8,672.3z
					"/>
			</g>
		</g>
		<g>
			<g>
				<path d="M197.3,627.9c-12.7-12.3-28.9-20.9-46.2-24.6c-4.3-0.9-8.8-1.6-13.2-1.9c-4.6-0.3-9.5-0.7-13.2,2.6
					c-3.2,2.8-4.9,7.6-6.4,11.4c-1.5,4.1-2.7,8.3-3.4,12.6c-2.9,17.4,0.5,35.8,10.3,50.5c9.1,13.6,23,23.8,38.7,28.6
					c7.9,2.4,15.9,2.8,24,3.1c7.3,0.2,15.4,0.4,22,4.2c1.6,0.9,2.9,2,4.2,3.3c2.2,2.3,5.7-1.2,3.5-3.5c-11.3-11.6-28.9-7.6-43.3-9.8
					c-15.2-2.3-29.4-10.2-39.6-21.7c-10.8-12.2-16.3-28.4-15.8-44.7c0.2-8.2,2-16.5,5.3-24.1c1.5-3.4,3.1-7.3,7.2-7.7
					c2.2-0.2,4.5,0,6.7,0.2c2,0.1,3.9,0.4,5.8,0.6c16.5,2.4,32.3,9.4,45.1,20.1c1.6,1.4,3.2,2.8,4.7,4.2
					C196.1,633.6,199.6,630.1,197.3,627.9L197.3,627.9z"/>
			</g>
		</g>
		<g>
			<g>
				<path d="M130,687.4c4,17.6,6.1,35.5,6,53.5c0,5.2-0.2,10.3-0.5,15.5c-0.1,1.3,1.2,2.5,2.5,2.5c1.4,0,2.4-1.1,2.5-2.5
					c1.2-18.3,0.3-36.8-2.6-54.9c-0.8-5.2-1.9-10.3-3-15.4C134.1,683,129.3,684.3,130,687.4L130,687.4z"/>
			</g>
		</g>
		<g>
			<g>
				<path d="M142.7,752.5c-1.4,0-2.8,0-4.3,0c0.2,1.6,0.4,3.2,0.7,4.8c-0.6,0.1,0.3,0,0.3,0c0.3,0,0.5,0,0.8,0c0.6,0,1.1,0,1.7,0.1
					c1.2,0.1,2.4,0.2,3.6,0.4c2.8,0.4,5.7,1,8.5,1.4c2.8,0.5,5.7,0.9,8.5,1c3.5,0.1,7-0.2,10.4-0.6c3.5-0.4,7.1-0.8,10.7-1
					c3.8-0.2,7.5,0.2,11.3,0.6c6.9,0.8,13.7,1.9,20.6,2.8c7.1,1,14.2,1.8,21.3,2.1c7.6,0.3,15.3,0,22.9-0.2
					c7.5-0.2,14.9-0.6,22.4-0.8c7.2-0.2,14.4,0,21.5-0.5c7.3-0.6,14.6-1.8,21.9-2.4c6.9-0.6,13.9-0.7,20.6,1.3
					c3,0.9,4.3-3.8,1.3-4.8c-12.6-3.9-26.1-1-38.8,0.5c-6.9,0.8-13.7,0.7-20.6,0.9c-7.6,0.2-15.3,0.5-22.9,0.7
					c-7.5,0.3-15,0.5-22.5,0.5c-7.3,0-14.7-0.6-21.9-1.5c-7.1-0.9-14.1-2-21.2-2.9c-3.5-0.5-7.1-1-10.7-1.1
					c-3.7-0.2-7.5,0.1-11.2,0.5c-4,0.4-8,1-12.1,1.1c-3.2,0.1-6.3-0.2-9.5-0.7c-3.2-0.5-6.4-1.1-9.6-1.6c-2.9-0.4-5.8-0.8-8.7-0.4
					c-1.2,0.2-1.9,1.6-1.8,2.7c0.2,1.2,1.2,2.1,2.4,2.1c1.4,0,2.8,0,4.3,0C145.9,757.4,145.9,752.5,142.7,752.5L142.7,752.5z"/>
			</g>
		</g>
		<g>
			<g>
				<path d="M217.6,606.2c-5.2-9.7-4.5-21.1-2.3-31.6c2.4-11.7,7-22.9,8.7-34.8c1-6.9,1.2-13.8-0.4-20.6c-0.7-3.1-5.5-1.8-4.8,1.3
					c2.8,12-0.5,24.3-3.8,35.8c-3.2,11-6.6,22.3-6.3,33.9c0.2,6.4,1.6,12.7,4.6,18.4C214.9,611.5,219.1,609,217.6,606.2L217.6,606.2
					z"/>
			</g>
		</g>
		<g>
			<g>
				<path d="M237.2,413.7c-0.2,11-1.7,22-4.6,32.6c-2.7,10-6.6,20-6,30.6c0.3,5.4,1.7,10.9,4.7,15.4c1.8,2.6,6,0.2,4.3-2.5
					c-5.3-7.9-4.7-17.8-2.6-26.6c1.2-5.2,2.9-10.2,4.3-15.4c1.4-5.2,2.5-10.5,3.3-15.8c0.9-6.1,1.4-12.2,1.5-18.4
					C242.2,410.5,237.2,410.5,237.2,413.7L237.2,413.7z"/>
			</g>
		</g>
		<g>
			<g>
				<path d="M120.5,452.1c-4.5,9.5-7.7,19.9-8.5,30.4c-0.4,5.1,0.1,10.3,2.5,14.9c1.9,3.7,5,6.8,8.4,9c7.9,5.1,17.4,5.8,26.5,4.4
					c10.8-1.7,20.9-6.3,31.6-8.6c5.8-1.2,11.7-1.7,17.5-0.6c5.1,0.9,10.9,2.3,15.6-0.9c1.1-0.8,1.6-2.2,0.9-3.4
					c-0.6-1.1-2.3-1.6-3.4-0.9c-3.4,2.4-7.8,1.1-11.6,0.4c-5.1-1-10.2-1-15.4-0.3c-10.3,1.4-19.9,5.6-29.9,8.1
					c-8.4,2.1-17.5,3.1-25.6-0.5c-3.3-1.5-6.4-3.6-8.7-6.5c-2.6-3.3-3.6-7.4-3.7-11.6c-0.1-5.3,1-10.7,2.3-15.9
					c1.4-5.4,3.3-10.6,5.6-15.7c0.6-1.2,0.3-2.7-0.9-3.4C122.8,450.6,121.1,450.9,120.5,452.1L120.5,452.1z"/>
			</g>
		</g>
		<g>
			<g>
				<path d="M122.1,455.2c8.8-10.7,19-20.1,30.5-27.8c11.4-7.7,23.8-13.8,36.9-18.1c14.3-4.7,29.2-6.8,44.2-7.1
					c8.6-0.1,17.2,0.3,25.8,0.9c8.4,0.6,16.8,1.3,25.1,2.3c7.2,0.9,14,2.8,20,6.9c5.2,3.6,9.5,8.5,12.4,14.1
					c0.7,1.4,1.3,2.7,1.8,4.2c0.5,1.3,1.7,2.1,3,1.7c1.2-0.3,2.2-1.8,1.7-3c-4.8-13.2-16-23.5-29.6-27.1c-8.3-2.2-17.2-2.5-25.7-3.3
					c-8.8-0.8-17.7-1.4-26.5-1.6c-16.1-0.3-32.2,1.1-47.8,5.4c-13.8,3.8-27,9.7-39.1,17.2c-12.2,7.6-23.3,16.9-32.8,27.6
					c-1.2,1.3-2.3,2.7-3.5,4.1c-0.8,1-1,2.5,0,3.5C119.5,456,121.2,456.2,122.1,455.2L122.1,455.2z"/>
			</g>
		</g>
		<g>
			<g>
				<path d="M113.5,495.8c0.3,12,0.6,23.9,1,35.9c0.2,5.1,0.8,10.6,4.1,14.8c1.6,2,3.8,3.4,6.3,3.6c2.8,0.2,5.1-1.5,7.6-2.4
					c9.6-3.5,20.3-2.2,29.7-6.7c4.4-2.1,8.2-5.2,12.5-7.3c4.6-2.2,9.2-1.9,14-0.5c5.4,1.6,10.5,4,16.3,4.3c4.9,0.3,10.2-1,13.4-4.9
					c0.8-1,1-2.5,0-3.5c-0.9-0.9-2.6-1-3.5,0c-5.7,6.9-16.2,2.2-22.9-0.1c-4.9-1.6-10.1-2.7-15.2-1.4c-4.4,1.2-8.3,3.8-12.1,6.2
					c-1.9,1.2-3.8,2.4-5.8,3.2c-2.2,0.9-4.5,1.5-6.9,2c-4.9,1-9.8,1.3-14.7,2.2c-2.3,0.4-4.6,1-6.9,1.9c-1.2,0.5-2.3,1.1-3.5,1.6
					c-0.9,0.4-1.7,0.6-2.6,0.2c-3.9-1.7-4.6-7.5-4.8-11.1c-0.4-6.2-0.4-12.5-0.6-18.7c-0.2-6.4-0.4-12.9-0.5-19.3
					C118.3,492.6,113.4,492.6,113.5,495.8L113.5,495.8z"/>
			</g>
		</g>
		<g>
			<g>
				<path d="M126.4,541.7c-3.8-0.3-5.8,3.4-6.3,6.6c-0.3,2.1-0.2,4.2-0.1,6.2c0.1,2.5,0.2,5,0.3,7.4c0.4,9.9,1,19.8,1.8,29.7
					c0.4,5.6,1,11.2,1.5,16.8c0.1,1.3,1,2.5,2.5,2.5c1.2,0,2.6-1.1,2.5-2.5c-1.8-18.2-3-36.4-3.6-54.7c-0.1-1.8-0.2-3.7,0.2-5.4
					c0.1-0.5,0.4-1.3,0.6-1.5c0.1-0.1,0.2-0.2,0.3-0.3c0.3-0.3-0.2,0.2,0.1-0.1c0.2-0.2,0,0-0.1,0c-0.2,0,0.5,0,0.5,0
					c1.3,0.1,2.5-1.2,2.5-2.5C128.9,542.8,127.8,541.8,126.4,541.7L126.4,541.7z"/>
			</g>
		</g>
		<g>
			<g>
				<path d="M234.4,487.7c5,7.5,13.7,10.4,22.4,10.9c9.7,0.5,19-2.2,28.6-2.7c5.6-0.3,11.3,0.2,16.3,3c2.8,1.5,5.3-2.7,2.5-4.3
					c-17.7-9.6-37.3,3.3-55.7-2.4c-4-1.2-7.6-3.5-9.9-7C236.9,482.5,232.6,485,234.4,487.7L234.4,487.7z"/>
			</g>
		</g>
		<g>
			<g>
				<path d="M217.9,606.2c7.3-0.5,14.4-2.3,21-5.3c3.2-1.5,6.2-3.2,9.1-5.2c2-1.4,5.4-4.1,7.9-2.6c2.8,1.6,5.2-2.7,2.5-4.3
					c-3.5-2-7.3-0.8-10.5,1.1c-3.1,1.8-6,4-9.2,5.7c-6.5,3.3-13.6,5.3-20.8,5.7c-1.3,0.1-2.5,1.1-2.5,2.5
					C215.4,605,216.6,606.3,217.9,606.2L217.9,606.2z"/>
			</g>
		</g>
		<g>
			<g>
				<path d="M114.9,358.6c0,0.1-0.1,0.1-0.1,0.2c0.3-0.3,0.6-0.6,0.9-0.9c0.1,0,0.2-0.1,0.3-0.1c0.4,0,0.9,0,1.3,0
					c0.4,0.2,0.7,0.5,0.9,0.9c0,0.4,0,0.9,0,1.3c-0.1,0.7-1.1,0.7-0.2,0.5c0.3-0.1,0.6-0.1,1-0.1c1-0.1,2.1-0.3,3.1-0.4
					c2-0.3,3.9-0.5,5.9-0.8c4-0.5,8.1-1,12.1-1.6c1.3-0.2,2.5-1,2.5-2.5c0-1.2-1.1-2.6-2.5-2.5c-6.4,0.8-12.8,1.7-19.2,2.5
					c-2.6,0.3-6.6,0.2-7.4,3.4c-0.8,3.3,4.2,5.8,5.8,2.5c0.6-1.2,0.3-2.7-0.9-3.4C117.1,357.1,115.4,357.4,114.9,358.6L114.9,358.6z
					"/>
			</g>
		</g>
		<g>
			<g>
				<path d="M115.8,294.9c7.2-0.9,14.4-1.9,21.6-2.8c1.3-0.2,2.5-1,2.5-2.5c0-1.2-1.1-2.6-2.5-2.5c-7.2,0.9-14.4,1.9-21.6,2.8
					c-1.3,0.2-2.5,1-2.5,2.5C113.3,293.7,114.5,295.1,115.8,294.9L115.8,294.9z"/>
			</g>
		</g>
		<g>
			<g>
				<path d="M168.2,322.5c8-0.6,16.1-1.2,24.1-1.8c1.3-0.1,2.5-1.1,2.5-2.5c0-1.3-1.1-2.6-2.5-2.5c-8,0.6-16.1,1.2-24.1,1.8
					c-1.3,0.1-2.5,1.1-2.5,2.5C165.8,321.3,166.9,322.6,168.2,322.5L168.2,322.5z"/>
			</g>
		</g>
		<g>
			<g>
				<path d="M171.1,289.1c0.1,0,0.2-0.1,0.2-0.1c0.4,0,0.9,0,1.3,0c1.6,0.3,0.6,2.9,0.2,2.8c0,0,0.6,0,0.8,0c0.8,0,1.7,0.1,2.5,0.2
					c1.8,0.1,3.6,0.3,5.4,0.4c3.6,0.3,7.2,0.6,10.8,0.8c1.3,0.1,2.5-1.2,2.5-2.5c0-1.4-1.1-2.4-2.5-2.5c-5.5-0.4-11-0.8-16.4-1.3
					c-2.4-0.2-5.4-0.7-6.8,1.8c-1.5,2.7,1.7,6.3,4.4,4.5c1.1-0.7,1.6-2.2,0.9-3.4C173.8,288.8,172.2,288.3,171.1,289.1L171.1,289.1z
					"/>
			</g>
		</g>
		<g>
			<g>
				<path d="M171,227.2c-0.5,0.1,0.6,0.2,0.7,0.3c0,0,1.1,2,1,1.5c0,0.1-0.1,0.6,0,0.2c-0.1,0.5-0.1,0.2,0,0c0,0,0.3-0.4,0.1-0.2
					c-0.2,0.2,0.1-0.1,0.1-0.1c0,0,0.3-0.4,0.1-0.1c-0.1,0.2,0.2,0,0,0c-0.3,0.1,0.3-0.1,0.4-0.1c0.3-0.1,0.6-0.2,0.9-0.3
					c0.5-0.1,0.9-0.3,1.4-0.4c1-0.3,1.9-0.6,2.9-0.8c3.9-1.1,7.8-1.9,11.7-2.7c1.3-0.2,2.1-1.8,1.7-3c-0.4-1.4-1.7-2-3-1.7
					c-5.2,1-10.4,2.2-15.5,3.8c-1.2,0.4-2.4,0.6-3.4,1.4c-0.7,0.6-1.4,1.3-1.8,2.2c-0.5,1-0.7,2.2-0.3,3.3c0.5,1.2,1.7,2,3,1.8
					c1.3-0.1,2.5-1,2.5-2.5C173.4,228.4,172.3,227,171,227.2L171,227.2z"/>
			</g>
		</g>
		<g>
			<g>
				<path d="M215.2,200.4c5,0.3,10,0.6,15,0.9c2.5,0.2,4.9,0.3,7.4,0.5c0.9,0.1,1.6,0,2.2,0.3c0.2,0.1,0.4,0.4,0.6,0.5
					c-0.8-0.4,1.5-2.5,0.4-2c-1.2,0.5-1.5,2.3-0.9,3.4c0.7,1.2,2.2,1.4,3.4,0.9c2.7-1.2,2.1-4.5,0.2-6.2c-2.4-2.1-5.4-1.9-8.3-2.1
					c-6.6-0.4-13.3-0.8-19.9-1.2C212,195.3,212,200.2,215.2,200.4L215.2,200.4z"/>
			</g>
		</g>
		<g>
			<g>
				<path d="M217.2,276.9c9.1,3.7,19.2,5,28.9,3.7c1.3-0.2,2.5-1,2.5-2.5c0-1.2-1.1-2.6-2.5-2.5c-9.4,1.2-18.8,0-27.6-3.5
					c-1.2-0.5-2.7,0.5-3,1.7C215.1,275.2,215.9,276.3,217.2,276.9L217.2,276.9z"/>
			</g>
		</g>
		<g>
			<g>
				<path d="M276.4,244.9C276.4,245.2,276.4,245.2,276.4,244.9c0,0.4,0,0.9,0,1.3c0.1-0.5-0.1-0.3-0.6,0.6c0.2-0.1,0.3-0.2,0.1-0.1
					c0.4,0,0.5-0.1,0.8-0.1c0.5,0,1.8,0.5,2.6,0.7c2.4,0.7,4.7,1.4,7.1,2.1c4.7,1.4,9.4,2.8,14.1,4.2c3,0.9,4.3-3.8,1.3-4.8
					c-6.1-1.8-12.2-3.7-18.4-5.5c-2.6-0.8-5.5-2.2-8.2-1.6c-2.5,0.5-4.8,3-3.1,5.5c0.8,1.1,2.2,1.6,3.4,0.9
					C276.6,247.7,277.2,246,276.4,244.9L276.4,244.9z"/>
			</g>
		</g>
		<g>
			<g>
				<path d="M273.9,295.5c4.6,2.9,10.2,2.9,15.4,2.8c4.5,0,9.7-0.3,13.1,3c2.3,2.2,5.7-1.2,3.5-3.5c-4-3.9-9.5-4.5-14.8-4.5
					c-4.9,0-10.3,0.6-14.6-2.1C273.7,289.6,271.2,293.9,273.9,295.5L273.9,295.5z"/>
			</g>
		</g>
		<g>
			<g>
				<path d="M277.5,325.5c0.6,0.2,0.9,0.7,0.8,1.2c0.1-0.3,0.1-0.3,0-0.1c-0.4,0.3-0.5,0.4-0.2,0.3c-0.1,0,0.8-0.2,0.4-0.1
					c0.4-0.1,0.9,0,1.3,0c2,0,4,0.1,6.1,0.1c4.2,0.1,8.4,0.2,12.5,0.3c3.2,0.1,3.2-4.9,0-4.9c-5.8-0.1-11.5-0.3-17.3-0.4
					c-2.5-0.1-5.5-0.2-7,2.2c-1.4,2.3-0.6,5.4,2.1,6.2C279.2,331.2,280.5,326.4,277.5,325.5L277.5,325.5z"/>
			</g>
		</g>
		<g>
			<g>
				<path d="M336.5,541.5c-1.6,12.3,0.4,24.9,5.4,36.2c0.5,1.2,2.3,1.5,3.4,0.9c1.3-0.7,1.4-2.2,0.9-3.4
					c-4.7-10.5-6.3-22.3-4.8-33.7c0.2-1.3-1.3-2.5-2.5-2.5C337.5,539,336.7,540.2,336.5,541.5L336.5,541.5z"/>
			</g>
		</g>
		<g>
			<g>
				<path d="M360.7,504.9c2.2,8.3,6,16.1,11.1,22.9c0.8,1.1,2.1,1.6,3.4,0.9c1-0.6,1.7-2.3,0.9-3.4c-4.9-6.5-8.5-13.9-10.6-21.7
					C364.6,500.5,359.8,501.8,360.7,504.9L360.7,504.9z"/>
			</g>
		</g>
		<g>
			<g>
				<path d="M148.8,455.6c10.9-1.7,21.4-5.4,30.9-10.9c2.7-1.6,0.3-5.8-2.5-4.3c-9.2,5.3-19.2,8.8-29.7,10.4c-1.3,0.2-2,1.9-1.7,3
					C146.2,455.3,147.5,455.8,148.8,455.6L148.8,455.6z"/>
			</g>
		</g>
		<g>
			<g>
				<path d="M172.3,429.9c5.7-0.1,11.4-1,16.8-2.8c1.3-0.4,2.1-1.7,1.7-3c-0.3-1.2-1.8-2.2-3-1.7c-5.1,1.7-10.1,2.6-15.5,2.7
					c-1.3,0-2.5,1.1-2.5,2.5C169.9,428.7,170.9,429.9,172.3,429.9L172.3,429.9z"/>
			</g>
		</g>
	</g>
	<text transform="matrix(1 0 0 1 139.8757 939.8472)" style="&st1; &st2;">Chimpancé</text>
</g>
</svg>
