<?xml version="1.0" encoding="utf-8"?>
<!-- Generator: Adobe Illustrator 25.4.0, SVG Export Plug-In . SVG Version: 6.00 Build 0)  -->
<!DOCTYPE svg PUBLIC "-//W3C//DTD SVG 1.1//EN" "http://www.w3.org/Graphics/SVG/1.1/DTD/svg11.dtd" [
	<!ENTITY st0 "fill:#B3B3B3;">
	<!ENTITY st1 "font-family:'Roboto-Regular';">
	<!ENTITY st2 "font-size:41.4443px;">
]>
<svg version="1.1" id="Capa_1" xmlns="http://www.w3.org/2000/svg" xmlns:xlink="http://www.w3.org/1999/xlink" x="0px" y="0px"
	 viewBox="0 0 519.3 1080" style="enable-background:new 0 0 519.3 1080;" xml:space="preserve">
<g>
	<g>
		<path style="&st0;" d="M145.1,757.7v-40.8l1.2-27.5c0,0-22.3-6.2-24.9-15.4c-2.6-9.2-13.3-30.2-13-37.3s-0.5-29.2,4.5-53.4
			c5-24.2,8.5-48.9,8.5-48.9s1.2-19.2,1-22.5s-6.9-62.7-3.4-71c3.4-8.3,7.2-22.6,7.2-22.6s-1.8-10.8-2.2-14.8
			c-0.3-4-2.3-89.7-1.2-104.3c1.1-14.6,4.4-64.2,9.4-66.9c5-2.7,9.9-7,9.9-7s6.5-1.2,10,2.6c3.5,3.8,12.8,29.3,14.7,37.6
			s6.4,30.3,7.5,37.6s1.7,11.5,1.7,11.5s2.7-32.7,3.7-41c1-8.3,7.3-73.4,7.3-73.4s3.1-29.1,8.3-35.3c5.2-6.2,8.7-10.7,14.4-9.8
			c5.7,0.8,15.8,3.9,18.3,13.3c2.6,9.4,3.4,31,3.4,31s2.8,52.2,1.5,57.7c-1.2,5.6-0.8,30.8,0.3,41.2s3.7,20.8,3.7,20.8
			c0,0,2.8,0.7,2.8,0c0-0.7,0.6-13.8,0.6-13.8s4.8-63.8,6-74.5c1.3-10.7,8.2-57.6,8.2-57.6s5.4-21.7,6.2-26.1
			c0.8-4.4,8.6-7.9,10.4-8.2c1.8-0.3,16.5,0,17.9,3.8c1.5,3.8,9.7,20.3,11,28c1.3,7.7,4.5,51.3,3.5,61.1s0.5,44.6,1.3,50.8
			c0.8,6.2,2.5,27.5,5.3,27.7c2.8,0.2,7-4.1,6.5-6.7c-0.4-2.6,2.8-25.4,3.1-31.2c0.3-5.8,4.7-39.9,7-44.5
			c2.3-4.6,12.4-18.2,18.7-17.9c6.3,0.4,16.3,3.9,19.5,8.8c3.2,4.9,8.5,19.7,8.4,35.1c0,15.4-3.1,57.4-3.9,64.9
			c-0.8,7.5-4.9,54.4-5,60.5c-0.1,6,0.8,34.7,2.7,45.1c1.9,10.4,13.4,63.1,14.1,69.7c0.8,6.7-0.7,26.1-0.7,26.1s6.3-3.9,9.2-8.1
			c2.8-4.2,7.4-12.3,9.2-19.4s6.3-31.7,12.3-35.9s8.6-9.5,14.5-9.9c5.9-0.4,17.7,0.7,18.8,5.2c1.1,4.5,5.5,16.9,5.5,21.3
			c0,4.4-4.9,46-18.5,71.7s-45.8,59.3-51.2,65.5c-5.4,6.2-20.8,22.9-23.3,30.1s-20,36.1-20.4,55.6c-0.4,19.5-1.8,29.7-1.2,35.8
			s5,24.5,5,24.5l-194.2,2.6L145.1,757.7z"/>
		<g>
			<g>
				<path d="M147.6,757.7c0.4-19.2,0.8-38.5,1.2-57.7c0.1-3.2-4.9-3.2-4.9,0c-0.4,19.2-0.8,38.5-1.2,57.7
					C142.6,760.8,147.5,760.8,147.6,757.7L147.6,757.7z"/>
			</g>
		</g>
		<g>
			<g>
				<path d="M272.1,620c-4.2-18.6,7.2-36.8,21.1-48.1c16.1-13.2,36.7-19.3,55.5-27.4c17.1-7.4,34.3-17.3,44.9-33.1
					c5.8-8.6,8.2-18.4,10.4-28.4c2.1-9.7,4.4-19.6,11.6-26.8c5.8-5.8,14.5-9.5,22.1-4.8c6.4,4,8.9,12.3,9.8,19.4
					c1.1,9.3,0,19-1.7,28.1c-1.9,9.8-4.9,19.3-8.7,28.5c-7.7,18.6-18.9,35.8-31.5,51.4c-13.5,16.7-28.9,31.7-41.9,48.8
					c-12.3,16.3-21.4,34.7-26.4,54.6c-4.9,19.6-5.9,40.1-2.8,60.1c0.7,4.8,1.7,9.6,3,14.3c0.8,3.1,5.6,1.8,4.8-1.3
					c-5.1-19.7-5.9-40.5-2.5-60.5c3.5-20.2,11-39.6,22.5-56.7c12.3-18.3,28.3-33.7,42.4-50.4c13.4-15.8,25.3-33,34-51.8
					c8.5-18.4,14.3-38.6,14.1-58.9c-0.1-8.1-1.5-17.1-6.4-23.9c-5.1-7.1-13.8-10.6-22.4-7.9c-9,2.8-16.1,10.6-19.7,19.1
					c-4.3,10.1-5.2,21.2-8.6,31.6c-6,18.6-22,30.8-38.7,39.4c-18.7,9.6-39.3,15-57.3,26.1c-16.5,10.2-30.8,26.4-33.1,46.3
					c-0.5,4.6-0.2,9.2,0.8,13.7C268,624.4,272.8,623,272.1,620L272.1,620z"/>
			</g>
		</g>
		<g>
			<g>
				<path d="M127.1,409.7c-4.1-42.4-4.3-85.1-0.4-127.5c1-10.7,2.2-21.3,3.7-32c0.9-6.6,2.4-14.4,7.1-19.4c2.1-2.2,4.9-3.5,8-3.2
					c3.2,0.3,5.7,2.4,7.6,4.9c5.1,6.6,6.7,15.5,8.8,23.3c6,22.6,10.3,45.7,13,69c0.4,3.1,4.8,3.2,4.9,0c1-25.7,2.6-51.5,4.8-77.1
					c1.1-12.9,2.4-25.8,3.9-38.6c0.7-6.4,1.5-12.7,2.3-19.1c0.6-4.6,1.3-9.2,2.5-13.7c1.9-6.9,5.5-15.5,12.9-18
					c9.7-3.2,18,5.3,20.7,13.9c1.7,5.5,2,11.2,2,16.9c0.1,6.3,0.1,12.6,0.1,18.9c0.1,13,0.1,25.9,0.2,38.9
					c0.1,12.5-0.1,25.1,0.3,37.6c0.4,11.6,1.4,23.4,4.8,34.5c0.9,2.8,1.9,5.6,3.1,8.3c1,2.4,4.5,1,4.6-1.2
					c0.8-26.9,2.5-53.8,5.2-80.5c2.7-26.8,6.4-53.5,11.1-80c1.6-8.9,3-23,14.4-24.2c10.9-1.2,18.5,8.3,21.8,17.5
					c4,11.2,5.2,23.6,6,35.5c0.8,12.5,0.7,25,0.6,37.5c-0.3,24.7-0.8,49.9,5.2,74.1c0.8,3,1.6,6,2.6,8.9c0.6,1.9,3.5,2.6,4.5,0.6
					c12.5-24.4,6-52.5,12.8-78.2c2.7-10.3,9.3-24.6,21.9-24.6c6,0,11.5,3.6,15.1,8.2c4.2,5.3,5.9,12.2,6.7,18.8
					c1.8,14.9,1.1,30.3,0.1,45.3c-1,15.2-2.7,30.4-4.4,45.6c-3.2,30.2-5.9,60.8-1.5,91.1c4.3,29.5,15.2,58.3,14.6,88.5
					c-0.1,3.8-0.3,7.5-0.8,11.2c-0.2,1.3,1.2,2.5,2.5,2.5c1.5,0,2.3-1.1,2.5-2.5c3.8-31.1-6.8-61.3-12.4-91.6
					c-5.8-31-3.7-62.3-0.5-93.5c1.6-15.8,3.5-31.6,4.7-47.4c1.2-15.5,1.9-31.4,0.5-46.9c-1.2-13.2-6-27.5-19.3-32.8
					c-5.7-2.3-12.1-1.9-17.5,1.1c-5.3,2.9-9.4,8-12.2,13.3c-6.3,12-7.6,26.2-8.3,39.5c-0.8,13.6-0.8,27.5-4.9,40.7
					c-1,3.2-2.2,6.2-3.7,9.2c1.5,0.2,3,0.4,4.5,0.6c-8-24.8-8-51-7.7-76.8c0.2-13,0.4-26-0.3-38.9c-0.7-12.6-1.9-25.5-5.5-37.6
					c-3.1-10.4-9.5-20.6-20.7-23.3c-4.9-1.2-10.2-0.7-14.5,2c-4.5,2.9-7.1,7.6-8.6,12.6c-1.9,5.9-2.6,12.1-3.7,18.2
					c-1.2,6.9-2.3,13.8-3.3,20.7c-2.1,13.8-3.9,27.6-5.5,41.4c-3.2,27.8-5.3,55.8-6.4,83.8c-0.1,3.5-0.2,7-0.3,10.5
					c1.5-0.4,3.1-0.8,4.6-1.2c-4.8-11.3-6.5-23.6-7.1-35.8c-0.6-12.7-0.4-25.6-0.5-38.3c-0.1-13.5-0.1-26.9-0.2-40.4
					c0-6.6,0-13.2-0.1-19.8c0-5.9-0.2-11.9-1.7-17.6c-2.5-9.9-10.1-19.6-21-20.1c-8.8-0.4-15.5,5.9-19.2,13.3
					c-4.5,9-5.5,19-6.7,28.8c-1.6,13.2-3.1,26.5-4.4,39.7c-2.6,26.6-4.5,53.3-5.6,80.1c-0.1,3.4-0.3,6.8-0.4,10.2c1.6,0,3.3,0,4.9,0
					c-2.5-21.9-6.4-43.6-11.8-65c-1.3-5.3-2.7-10.6-4.3-15.9c-1.1-3.7-2.5-7.5-4.4-10.9c-3.7-6.5-10.1-11.8-18-10
					c-7.3,1.6-11.3,8.9-13.5,15.5c-1.3,3.9-1.9,7.9-2.5,11.9c-0.8,5.6-1.5,11.3-2.1,16.9c-2.5,22.3-3.9,44.6-4.2,67
					c-0.3,25.1,0.7,50.3,3.2,75.3C122.5,412.8,127.4,412.9,127.1,409.7L127.1,409.7z"/>
			</g>
		</g>
		<g>
			<g>
				<path d="M234.4,682.4c-11.9,1.5-23.9,3.1-35.8,4.6c-11.4,1.5-23,3.6-34.6,3.2c-9.9-0.3-19.1-3.1-27.2-8.8
					c-7-5.1-12.6-12-16.8-19.6c-10.2-18.7-10.4-40.8-7.6-61.4c3.2-23.1,10.2-45.6,12.2-68.9c1.8-20.8-2-41.4-3.5-62.1
					c-1.4-19.3-0.5-39.6,11.1-55.9c10.8-15.2,28.3-24,45-31.2c20.3-8.7,41.4-16.9,63.3-20.9c10.9-2,22-2.9,33.1-2
					c10.5,0.8,20.7,3.4,30.4,7.3c19,7.6,35.7,20.1,51.4,32.9c3.9,3.1,7.7,6.3,11.5,9.5c2.4,2,5.9-1.4,3.5-3.5
					c-16.1-13.5-32.4-27.1-50.9-37.1c-9.2-5-19-9-29.2-11.4c-11-2.7-22.4-3.4-33.7-2.6c-23.2,1.6-45.6,9-67,17.5
					c-18.2,7.2-37.1,14.8-51.8,28.1c-7.3,6.6-13,14.7-16.7,23.9c-3.7,9.2-5.1,19.2-5.3,29.1c-0.5,20.9,3.9,41.4,4.5,62.3
					c0.7,23.8-5.6,46.7-10.1,69.8c-4.2,22.1-7,45.9,0.6,67.7c6,17.2,18.3,32.9,35.8,39.3c10.7,3.9,22.3,3.5,33.5,2.3
					c12.2-1.4,24.3-3.1,36.4-4.7c6-0.8,12.1-1.6,18.1-2.3c1.3-0.2,2.4-1,2.5-2.5C236.9,683.7,235.7,682.2,234.4,682.4L234.4,682.4z"
					/>
			</g>
		</g>
		<g>
			<g>
				<path d="M154.2,574.4c1,6.6,7.6,10.1,13.2,12.3c7.6,2.9,15.5,5.6,23.6,7.1c4.1,0.7,8.3,1.1,12.5,1c4.1-0.2,8.2-0.8,12.2-1.6
					c7.9-1.5,15.7-3.6,23.8-3.1c7.9,0.6,15.4,4.3,20.9,10c2.2,2.3,5.7-1.2,3.5-3.5c-5-5.2-11.5-9-18.5-10.6
					c-7.8-1.8-15.8-0.7-23.6,0.9c-7.8,1.6-15.6,3.4-23.6,2.9c-8.2-0.5-16.1-3.1-23.8-5.8c-3.4-1.2-6.9-2.3-10.1-4.1
					c-2.6-1.5-4.8-3.6-5.3-6.7c-0.2-1.3-1.9-2-3-1.7C154.6,571.8,154,573.1,154.2,574.4L154.2,574.4z"/>
			</g>
		</g>
		<g>
			<g>
				<path d="M187.7,504.8c11.2,9.6,20.1,22,25.3,35.8c1.5,3.9,2.7,8,3.7,12.1c0.7,3.1,5.5,1.8,4.8-1.3c-3.5-15.1-10.8-29.3-21-40.9
					c-2.9-3.3-6-6.3-9.3-9.2c-1-0.9-2.5-1-3.5,0C186.8,502.2,186.7,503.9,187.7,504.8L187.7,504.8z"/>
			</g>
		</g>
		<g>
			<g>
				<path d="M306.5,477.4c-6.2,15.8-9.5,32.8-9.8,49.8c-0.1,4.8,0.1,9.5,0.5,14.3c0.1,1.3,1.1,2.5,2.5,2.5c1.2,0,2.6-1.1,2.5-2.5
					c-1.4-16.5,0.2-33.2,4.6-49.2c1.3-4.6,2.8-9.1,4.5-13.6c0.5-1.2-0.5-2.7-1.7-3C308.2,475.3,307,476.2,306.5,477.4L306.5,477.4z"
					/>
			</g>
		</g>
		<g>
			<g>
				<path d="M145.1,465.9c27.7,7.5,56.4-1,83.9-5c14.3-2.1,28.7-3.4,43.1-2.9c7.1,0.3,14.2,1,21.3,2.3c7,1.3,14,2.9,21.2,3.8
					c13.2,1.6,28.2,0,37.9-10.1c2.2-2.3-1.3-5.8-3.5-3.5c-8.1,8.4-20.5,10-31.5,8.9c-6.8-0.6-13.4-2.1-20.1-3.4
					c-7-1.4-14.1-2.3-21.3-2.7c-14.1-0.8-28.3,0.2-42.3,2c-14.1,1.8-28,4.7-42,6.7c-15,2.2-30.5,3.1-45.3-0.9
					C143.4,460.3,142.1,465.1,145.1,465.9L145.1,465.9z"/>
			</g>
		</g>
		<g>
			<g>
				<path d="M153.1,496c15.7-12.7,35.5-20.3,55.6-21.7c11.2-0.8,22.2,0.8,33.3,2.6c11.5,1.9,23,3.2,34.6,2.7c13-0.6,25.9-2.9,38.3-7
					c3-1,1.7-5.8-1.3-4.8c-11,3.7-22.4,5.9-34,6.7c-11.7,0.8-23.3-0.2-34.9-2.1c-11.3-1.8-22.5-3.7-33.9-3.1
					c-10.4,0.5-20.6,2.5-30.4,6c-11.2,4-21.6,9.8-30.8,17.2c-1,0.8-0.9,2.6,0,3.5C150.6,497,152,496.9,153.1,496L153.1,496z"/>
			</g>
		</g>
		<g>
			<g>
				<path d="M290.6,682.3c7.6,3.3,16.1,0.5,23.8-1c8.4-1.6,16.8-3.3,25.2-4.9c1.3-0.3,2.1-1.8,1.7-3c-0.4-1.4-1.7-2-3-1.7
					c-7.9,1.5-15.8,3.1-23.8,4.6c-3.8,0.7-7.5,1.5-11.3,2.2c-3.3,0.6-7,0.9-10.1-0.4c-1.2-0.5-2.6-0.4-3.4,0.9
					C289.2,679.9,289.4,681.7,290.6,682.3L290.6,682.3z"/>
			</g>
		</g>
		<g>
			<g>
				<path d="M383.9,528.1c5.6,7.5,12.3,14,20,19.4c1.1,0.8,2.7,0.2,3.4-0.9c0.7-1.2,0.2-2.6-0.9-3.4c-6.9-4.9-13.1-10.9-18.2-17.6
					c-0.8-1.1-2.1-1.6-3.4-0.9C383.7,525.3,383.1,527,383.9,528.1L383.9,528.1z"/>
			</g>
		</g>
		<g>
			<g>
				<path d="M371.7,531.4c-3.4,12.3-1.9,25.6,4,36.9c1.5,2.8,5.7,0.3,4.3-2.5c-5.4-10.1-6.6-22.1-3.5-33.1
					C377.4,529.7,372.6,528.4,371.7,531.4L371.7,531.4z"/>
			</g>
		</g>
		<g>
			<g>
				<path d="M180.2,343.6c-3.2,10.6-5.1,21.6-5.8,32.6c-0.2,3.2,4.7,3.2,4.9,0c0.6-10.6,2.5-21.1,5.6-31.3
					C185.9,341.8,181.2,340.5,180.2,343.6L180.2,343.6z"/>
			</g>
		</g>
		<g>
			<g>
				<path d="M229.5,336.1c-3.4,7.6-4.9,15.8-4.3,24.1c0.1,1.3,1.1,2.5,2.5,2.5c1.3,0,2.6-1.1,2.5-2.5c-0.5-7.4,0.7-14.8,3.7-21.6
					c0.5-1.2,0.4-2.6-0.9-3.4C231.9,334.6,230.1,334.9,229.5,336.1L229.5,336.1z"/>
			</g>
		</g>
		<g>
			<g>
				<path d="M143.2,366.5c2.4-16.8,18.6-25.6,32.1-32.7c2.8-1.5,0.3-5.7-2.5-4.3c-14.6,7.7-31.8,17.6-34.4,35.7
					c-0.2,1.3,0.3,2.6,1.7,3C141.3,368.5,143,367.8,143.2,366.5L143.2,366.5z"/>
			</g>
		</g>
		<g>
			<g>
				<path d="M195.9,326.9c9.9-2.7,20.2-3.8,30.4-3.3c3.2,0.2,3.2-4.8,0-4.9c-10.7-0.6-21.4,0.6-31.7,3.5
					C191.6,323,192.9,327.8,195.9,326.9L195.9,326.9z"/>
			</g>
		</g>
		<g>
			<g>
				<path d="M255,283.3c6.8,8,18.8,11,28.6,7.2c1.2-0.5,2.1-1.6,1.7-3c-0.3-1.2-1.8-2.2-3-1.7c-8.3,3.3-18,0.9-23.8-5.9
					c-0.9-1-2.6-0.9-3.5,0C254,280.8,254.1,282.3,255,283.3L255,283.3z"/>
			</g>
		</g>
		<g>
			<g>
				<path d="M246.9,267.8c12.1,6.4,26.6,7.6,39.6,3c1.3-0.4,2.1-1.7,1.7-3c-0.3-1.2-1.8-2.2-3-1.7c-11.7,4.1-24.8,3.2-35.8-2.5
					C246.5,262,244,266.3,246.9,267.8L246.9,267.8z"/>
			</g>
		</g>
		<g>
			<g>
				<path d="M264.7,206.5c8.5,2,16.9,4,25.4,6c3.1,0.7,4.4-4,1.3-4.8c-8.5-2-16.9-4-25.4-6C262.9,201,261.6,205.8,264.7,206.5
					L264.7,206.5z"/>
			</g>
		</g>
		<g>
			<g>
				<path d="M328.6,260.4c7.6,9.7,20.9,14.1,32.8,11.2c3.1-0.8,1.8-5.5-1.3-4.8c-10.3,2.5-21.5-1.6-28-9.9c-0.8-1.1-2.6-0.9-3.5,0
					C327.6,258,327.8,259.4,328.6,260.4L328.6,260.4z"/>
			</g>
		</g>
		<g>
			<g>
				<path d="M322.3,315.8c12.7,1.8,24.7,7.6,33.9,16.6c2.3,2.2,5.8-1.3,3.5-3.5c-9.8-9.6-22.5-15.9-36-17.8c-1.3-0.2-2.6,0.3-3,1.7
					C320.3,313.9,321,315.6,322.3,315.8L322.3,315.8z"/>
			</g>
		</g>
		<g>
			<g>
				<path d="M187.5,289.7c13,5.8,29,3,39.1-7.2c2.2-2.3-1.3-5.8-3.5-3.5c-8.4,8.5-22.1,11.4-33.1,6.5c-1.2-0.5-2.6-0.4-3.4,0.9
					C186,287.4,186.3,289.2,187.5,289.7L187.5,289.7z"/>
			</g>
		</g>
		<g>
			<g>
				<path d="M198.2,224c9.1,6,19.4,10.3,30.1,12.6c3.1,0.7,4.4-4.1,1.3-4.8c-10.3-2.2-20.1-6.3-28.9-12.1
					C198.1,218,195.6,222.2,198.2,224L198.2,224z"/>
			</g>
		</g>
		<g>
			<g>
				<path d="M132.9,289.7c13.4-3.3,27.7-0.5,39,7.3c1.1,0.8,2.7,0.2,3.4-0.9c0.7-1.2,0.2-2.6-0.9-3.4c-12.4-8.5-28.3-11.3-42.8-7.7
					C128.5,285.8,129.8,290.5,132.9,289.7L132.9,289.7z"/>
			</g>
		</g>
		<g>
			<g>
				<path d="M134,332.3c7.9-7.4,16.8-13.5,26.5-18.2c1.2-0.6,1.5-2.3,0.9-3.4c-0.7-1.2-2.2-1.5-3.4-0.9c-10.1,4.9-19.3,11.3-27.5,19
					C128.2,331,131.7,334.5,134,332.3L134,332.3z"/>
			</g>
		</g>
		<g>
			<g>
				<path d="M148.4,762c24.9-0.3,49.9-0.7,74.8-1c25-0.3,50-0.7,75.1-1c14-0.2,28.1-0.4,42.1-0.6c3.2,0,3.2-5,0-4.9
					c-24.9,0.3-49.9,0.7-74.8,1c-25,0.3-50,0.7-75.1,1c-14,0.2-28.1,0.4-42.1,0.6C145.3,757.1,145.3,762,148.4,762L148.4,762z"/>
			</g>
		</g>
	</g>
	<text transform="matrix(1 0 0 1 184.0404 939.8474)" style="&st1; &st2;">Gorila</text>
</g>
</svg>
